<?xml version="1.0" encoding="UTF-8"?>
<svg xmlns="http://www.w3.org/2000/svg" width="2660" height="2576" viewBox="0 0 2660 2576" role="img" aria-label="Little Man program, 95 by 92 cells">
<rect width="2660" height="2576" fill="#d6d3d1"/>
<g shape-rendering="crispEdges">
<path fill="#6366f1" d="M28 28h2604v28h-2604zM28 56h28v28h-28zM2604 56h28v28h-28zM28 84h28v28h-28zM2604 84h28v28h-28zM28 112h28v28h-28zM2604 112h28v28h-28zM28 140h28v28h-28zM2604 140h28v28h-28zM28 168h28v28h-28zM2604 168h28v28h-28zM28 196h28v28h-28zM2604 196h28v28h-28zM28 224h28v28h-28zM2604 224h28v28h-28zM28 252h28v28h-28zM2604 252h28v28h-28zM28 280h28v28h-28zM2604 280h28v28h-28zM28 308h28v28h-28zM2604 308h28v28h-28zM28 336h28v28h-28zM2604 336h28v28h-28zM28 364h28v28h-28zM2604 364h28v28h-28zM28 392h28v28h-28zM2604 392h28v28h-28zM28 420h28v28h-28zM2604 420h28v28h-28zM28 448h28v28h-28zM2604 448h28v28h-28zM28 476h28v28h-28zM2604 476h28v28h-28zM28 504h28v28h-28zM2604 504h28v28h-28zM28 532h28v28h-28zM2604 532h28v28h-28zM28 560h28v28h-28zM2604 560h28v28h-28zM28 588h28v28h-28zM2604 588h28v28h-28zM28 616h28v28h-28zM2604 616h28v28h-28zM28 644h28v28h-28zM2604 644h28v28h-28zM28 672h28v28h-28zM2604 672h28v28h-28zM28 700h28v28h-28zM2604 700h28v28h-28zM28 728h28v28h-28zM2604 728h28v28h-28zM28 756h28v28h-28zM2604 756h28v28h-28zM28 784h28v28h-28zM2604 784h28v28h-28zM28 812h28v28h-28zM2604 812h28v28h-28zM28 840h28v28h-28zM2604 840h28v28h-28zM28 868h28v28h-28zM2604 868h28v28h-28zM28 896h28v28h-28zM2604 896h28v28h-28zM28 924h28v28h-28zM2604 924h28v28h-28zM28 952h28v28h-28zM2604 952h28v28h-28zM28 980h28v28h-28zM2604 980h28v28h-28zM28 1008h28v28h-28zM2604 1008h28v28h-28zM28 1036h28v28h-28zM2604 1036h28v28h-28zM28 1064h28v28h-28zM2604 1064h28v28h-28zM28 1092h28v28h-28zM2604 1092h28v28h-28zM28 1120h28v28h-28zM2604 1120h28v28h-28zM28 1148h28v28h-28zM2604 1148h28v28h-28zM28 1176h28v28h-28zM2604 1176h28v28h-28zM28 1204h28v28h-28zM2604 1204h28v28h-28zM28 1232h28v28h-28zM2604 1232h28v28h-28zM28 1260h28v28h-28zM2604 1260h28v28h-28zM28 1288h28v28h-28zM2604 1288h28v28h-28zM28 1316h28v28h-28zM2604 1316h28v28h-28zM28 1344h28v28h-28zM2604 1344h28v28h-28zM28 1372h28v28h-28zM2604 1372h28v28h-28zM28 1400h28v28h-28zM2604 1400h28v28h-28zM28 1428h28v28h-28zM2604 1428h28v28h-28zM28 1456h28v28h-28zM2604 1456h28v28h-28zM28 1484h28v28h-28zM2604 1484h28v28h-28zM28 1512h28v28h-28zM2604 1512h28v28h-28zM28 1540h28v28h-28zM2604 1540h28v28h-28zM28 1568h28v28h-28zM2604 1568h28v28h-28zM28 1596h28v28h-28zM2604 1596h28v28h-28zM28 1624h28v28h-28zM2604 1624h28v28h-28zM28 1652h28v28h-28zM2604 1652h28v28h-28zM28 1680h28v28h-28zM2604 1680h28v28h-28zM28 1708h28v28h-28zM2604 1708h28v28h-28zM28 1736h28v28h-28zM2604 1736h28v28h-28zM28 1764h28v28h-28zM2604 1764h28v28h-28zM28 1792h28v28h-28zM2604 1792h28v28h-28zM28 1820h28v28h-28zM2604 1820h28v28h-28zM28 1848h28v28h-28zM2604 1848h28v28h-28zM28 1876h28v28h-28zM2604 1876h28v28h-28zM28 1904h28v28h-28zM2604 1904h28v28h-28zM28 1932h28v28h-28zM2604 1932h28v28h-28zM28 1960h28v28h-28zM2604 1960h28v28h-28zM28 1988h28v28h-28zM2604 1988h28v28h-28zM28 2016h28v28h-28zM2604 2016h28v28h-28zM28 2044h28v28h-28zM2604 2044h28v28h-28zM28 2072h28v28h-28zM2604 2072h28v28h-28zM28 2100h28v28h-28zM2604 2100h28v28h-28zM28 2128h28v28h-28zM2604 2128h28v28h-28zM28 2156h28v28h-28zM2604 2156h28v28h-28zM28 2184h28v28h-28zM2604 2184h28v28h-28zM28 2212h28v28h-28zM2604 2212h28v28h-28zM28 2240h28v28h-28zM2604 2240h28v28h-28zM28 2268h2604v28h-2604zM28 2380h840v28h-840zM28 2408h28v28h-28zM840 2408h28v28h-28zM28 2436h28v28h-28zM840 2436h28v28h-28zM28 2464h28v28h-28zM840 2464h28v28h-28zM28 2492h28v28h-28zM840 2492h28v28h-28zM28 2520h840v28h-840z"/>
<path fill="#f87171" d="M56 56h28v28h-28zM1960 2240h28v28h-28zM84 2436h28v28h-28z"/>
<path fill="#facc15" d="M84 56h28v28h-28zM2576 56h28v28h-28zM56 84h28v28h-28zM2576 84h28v28h-28zM56 112h28v28h-28zM2576 112h28v28h-28zM56 140h28v28h-28zM2576 140h28v28h-28zM56 168h28v28h-28zM2576 168h28v28h-28zM56 196h28v28h-28zM2576 196h28v28h-28zM56 224h28v28h-28zM2576 224h28v28h-28zM56 252h28v28h-28zM2576 252h28v28h-28zM56 280h28v28h-28zM2576 280h28v28h-28zM56 308h28v28h-28zM2576 308h28v28h-28zM56 336h28v28h-28zM2576 336h28v28h-28zM56 364h28v28h-28zM2576 364h28v28h-28zM56 392h28v28h-28zM2576 392h28v28h-28zM56 420h28v28h-28zM2576 420h28v28h-28zM56 448h28v28h-28zM2576 448h28v28h-28zM56 476h28v28h-28zM2576 476h28v28h-28zM56 504h28v28h-28zM2576 504h28v28h-28zM56 532h28v28h-28zM2576 532h28v28h-28zM56 560h28v28h-28zM2576 560h28v28h-28zM56 588h28v28h-28zM2576 588h28v28h-28zM56 616h28v28h-28zM2576 616h28v28h-28zM56 644h28v28h-28zM2576 644h28v28h-28zM56 672h28v28h-28zM2576 672h28v28h-28zM56 700h28v28h-28zM2576 700h28v28h-28zM56 728h28v28h-28zM2576 728h28v28h-28zM56 756h28v28h-28zM2576 756h28v28h-28zM56 784h28v28h-28zM2576 784h28v28h-28zM56 812h28v28h-28zM2576 812h28v28h-28zM56 840h28v28h-28zM2576 840h28v28h-28zM56 868h28v28h-28zM2576 868h28v28h-28zM56 896h28v28h-28zM2576 896h28v28h-28zM56 924h28v28h-28zM2576 924h28v28h-28zM56 952h28v28h-28zM2576 952h28v28h-28zM56 980h28v28h-28zM2576 980h28v28h-28zM56 1008h28v28h-28zM2576 1008h28v28h-28zM56 1036h28v28h-28zM2576 1036h28v28h-28zM56 1064h28v28h-28zM2576 1064h28v28h-28zM56 1092h28v28h-28zM2576 1092h28v28h-28zM56 1120h28v28h-28zM2576 1120h28v28h-28zM56 1148h28v28h-28zM2576 1148h28v28h-28zM56 1176h28v28h-28zM2576 1176h28v28h-28zM56 1204h28v28h-28zM2576 1204h28v28h-28zM56 1232h28v28h-28zM2576 1232h28v28h-28zM56 1260h28v28h-28zM2576 1260h28v28h-28zM56 1288h28v28h-28zM2576 1288h28v28h-28zM56 1316h28v28h-28zM2576 1316h28v28h-28zM56 1344h28v28h-28zM2576 1344h28v28h-28zM56 1372h28v28h-28zM2576 1372h28v28h-28zM56 1400h28v28h-28zM2576 1400h28v28h-28zM56 1428h28v28h-28zM2576 1428h28v28h-28zM56 1456h28v28h-28zM2576 1456h28v28h-28zM56 1484h28v28h-28zM2576 1484h28v28h-28zM56 1512h28v28h-28zM2576 1512h28v28h-28zM56 1540h28v28h-28zM2576 1540h28v28h-28zM56 1568h28v28h-28zM2576 1568h28v28h-28zM56 1596h28v28h-28zM2576 1596h28v28h-28zM56 1624h28v28h-28zM2576 1624h28v28h-28zM56 1652h28v28h-28zM2576 1652h28v28h-28zM56 1680h28v28h-28zM2576 1680h28v28h-28zM56 1708h28v28h-28zM2576 1708h28v28h-28zM56 1736h28v28h-28zM2576 1736h28v28h-28zM56 1764h28v28h-28zM2576 1764h28v28h-28zM56 1792h28v28h-28zM2576 1792h28v28h-28zM56 1820h28v28h-28zM2576 1820h28v28h-28zM56 1848h28v28h-28zM2576 1848h28v28h-28zM56 1876h28v28h-28zM2576 1876h28v28h-28zM56 1904h28v28h-28zM2576 1904h28v28h-28zM56 1932h28v28h-28zM2576 1932h28v28h-28zM56 1960h28v28h-28zM2576 1960h28v28h-28zM56 1988h28v28h-28zM2576 1988h28v28h-28zM56 2016h28v28h-28zM2576 2016h28v28h-28zM56 2044h28v28h-28zM2576 2044h28v28h-28zM56 2072h28v28h-28zM2576 2072h28v28h-28zM56 2100h28v28h-28zM2576 2100h28v28h-28zM56 2128h28v28h-28zM2576 2128h28v28h-28zM56 2156h28v28h-28zM2576 2156h28v28h-28zM56 2184h28v28h-28zM2576 2184h28v28h-28zM56 2212h28v28h-28zM2576 2212h28v28h-28zM56 2240h28v28h-28zM728 2408h28v28h-28zM812 2408h28v28h-28zM56 2436h28v28h-28zM252 2436h28v28h-28zM616 2436h28v28h-28zM728 2436h28v28h-28zM812 2436h28v28h-28zM252 2464h28v28h-28zM616 2464h28v28h-28zM728 2464h28v28h-28zM812 2464h28v28h-28zM56 2492h28v28h-28zM812 2492h28v28h-28z"/>
<path fill="#94a3b8" d="M112 56h588v28h-588zM728 56h588v28h-588zM1344 56h588v28h-588zM1960 56h588v28h-588zM112 84h588v28h-588zM728 84h532v28h-532zM1288 84h28v28h-28zM1344 84h588v28h-588zM1960 84h588v28h-588zM112 112h588v28h-588zM728 112h588v28h-588zM1344 112h588v28h-588zM1960 112h588v28h-588zM112 140h588v28h-588zM728 140h588v28h-588zM1344 140h588v28h-588zM1960 140h588v28h-588zM112 168h588v28h-588zM728 168h588v28h-588zM1344 168h588v28h-588zM1960 168h588v28h-588zM112 196h588v28h-588zM728 196h588v28h-588zM1344 196h588v28h-588zM1960 196h588v28h-588zM112 224h588v28h-588zM728 224h588v28h-588zM1344 224h588v28h-588zM1960 224h588v28h-588zM112 252h588v28h-588zM728 252h588v28h-588zM1344 252h588v28h-588zM1960 252h588v28h-588zM112 280h588v28h-588zM728 280h588v28h-588zM1344 280h588v28h-588zM1960 280h588v28h-588zM112 308h588v28h-588zM728 308h588v28h-588zM1344 308h588v28h-588zM1960 308h504v28h-504zM2520 308h28v28h-28zM112 336h588v28h-588zM728 336h588v28h-588zM1344 336h588v28h-588zM1960 336h588v28h-588zM112 364h588v28h-588zM728 364h588v28h-588zM1344 364h588v28h-588zM1960 364h588v28h-588zM112 392h588v28h-588zM728 392h588v28h-588zM1344 392h588v28h-588zM1960 392h588v28h-588zM112 420h588v28h-588zM728 420h588v28h-588zM1344 420h588v28h-588zM1960 420h588v28h-588zM112 448h588v28h-588zM728 448h588v28h-588zM1344 448h588v28h-588zM1960 448h588v28h-588zM112 476h588v28h-588zM728 476h588v28h-588zM1344 476h588v28h-588zM1960 476h588v28h-588zM112 504h588v28h-588zM728 504h588v28h-588zM1344 504h588v28h-588zM1960 504h588v28h-588zM112 532h588v28h-588zM728 532h588v28h-588zM1344 532h588v28h-588zM1960 532h588v28h-588zM112 560h588v28h-588zM728 560h588v28h-588zM1344 560h588v28h-588zM1960 560h588v28h-588zM112 588h588v28h-588zM728 588h588v28h-588zM1344 588h588v28h-588zM1960 588h588v28h-588zM112 616h588v28h-588zM728 616h588v28h-588zM1344 616h532v28h-532zM1904 616h28v28h-28zM1960 616h588v28h-588zM112 644h588v28h-588zM728 644h588v28h-588zM1344 644h588v28h-588zM1960 644h588v28h-588zM112 672h588v28h-588zM728 672h588v28h-588zM1344 672h588v28h-588zM1960 672h588v28h-588zM112 700h588v28h-588zM728 700h588v28h-588zM1344 700h588v28h-588zM1960 700h588v28h-588zM112 728h588v28h-588zM728 728h504v28h-504zM1288 728h28v28h-28zM1344 728h504v28h-504zM1904 728h28v28h-28zM1960 728h588v28h-588zM112 756h588v28h-588zM728 756h588v28h-588zM1344 756h588v28h-588zM1960 756h588v28h-588zM112 784h588v28h-588zM728 784h588v28h-588zM1344 784h588v28h-588zM1960 784h588v28h-588zM112 812h588v28h-588zM728 812h588v28h-588zM1344 812h532v28h-532zM1904 812h28v28h-28zM1960 812h588v28h-588zM112 840h588v28h-588zM728 840h588v28h-588zM1344 840h588v28h-588zM1960 840h588v28h-588zM112 868h588v28h-588zM728 868h588v28h-588zM1344 868h588v28h-588zM1960 868h588v28h-588zM112 896h588v28h-588zM728 896h588v28h-588zM1344 896h588v28h-588zM1960 896h588v28h-588zM112 924h588v28h-588zM728 924h588v28h-588zM1344 924h588v28h-588zM1960 924h588v28h-588zM112 952h588v28h-588zM728 952h588v28h-588zM1344 952h588v28h-588zM1960 952h588v28h-588zM112 980h588v28h-588zM728 980h588v28h-588zM1344 980h588v28h-588zM1960 980h588v28h-588zM112 1008h588v28h-588zM728 1008h588v28h-588zM1344 1008h588v28h-588zM1960 1008h588v28h-588zM112 1036h588v28h-588zM728 1036h588v28h-588zM1344 1036h588v28h-588zM1960 1036h588v28h-588zM112 1064h588v28h-588zM728 1064h588v28h-588zM1344 1064h588v28h-588zM1960 1064h588v28h-588zM112 1092h588v28h-588zM728 1092h588v28h-588zM1344 1092h588v28h-588zM1960 1092h588v28h-588zM112 1120h588v28h-588zM728 1120h588v28h-588zM1344 1120h588v28h-588zM1960 1120h588v28h-588zM112 1148h588v28h-588zM728 1148h588v28h-588zM1344 1148h532v28h-532zM1904 1148h28v28h-28zM1960 1148h588v28h-588zM112 1176h588v28h-588zM728 1176h588v28h-588zM1344 1176h588v28h-588zM1960 1176h588v28h-588zM112 1204h588v28h-588zM728 1204h588v28h-588zM1344 1204h588v28h-588zM1960 1204h588v28h-588zM112 1232h588v28h-588zM728 1232h588v28h-588zM1344 1232h588v28h-588zM1960 1232h532v28h-532zM2520 1232h28v28h-28zM112 1260h588v28h-588zM728 1260h588v28h-588zM1344 1260h588v28h-588zM1960 1260h588v28h-588zM112 1288h588v28h-588zM728 1288h588v28h-588zM1344 1288h588v28h-588zM1960 1288h588v28h-588zM112 1316h588v28h-588zM728 1316h588v28h-588zM1344 1316h588v28h-588zM1960 1316h588v28h-588zM112 1344h588v28h-588zM728 1344h588v28h-588zM1344 1344h588v28h-588zM1960 1344h588v28h-588zM112 1372h588v28h-588zM728 1372h588v28h-588zM1344 1372h588v28h-588zM1960 1372h532v28h-532zM2520 1372h28v28h-28zM112 1400h588v28h-588zM728 1400h588v28h-588zM1344 1400h588v28h-588zM1960 1400h588v28h-588zM112 1428h588v28h-588zM728 1428h588v28h-588zM1344 1428h588v28h-588zM1960 1428h588v28h-588zM112 1456h588v28h-588zM728 1456h588v28h-588zM1344 1456h588v28h-588zM1960 1456h588v28h-588zM112 1484h588v28h-588zM728 1484h588v28h-588zM1344 1484h588v28h-588zM1960 1484h588v28h-588zM112 1512h588v28h-588zM728 1512h588v28h-588zM1344 1512h588v28h-588zM1960 1512h588v28h-588zM112 1540h588v28h-588zM728 1540h588v28h-588zM1344 1540h588v28h-588zM1960 1540h588v28h-588zM112 1568h588v28h-588zM728 1568h588v28h-588zM1344 1568h588v28h-588zM1960 1568h588v28h-588zM112 1596h588v28h-588zM728 1596h532v28h-532zM1288 1596h28v28h-28zM1344 1596h588v28h-588zM1960 1596h588v28h-588zM112 1624h532v28h-532zM672 1624h28v28h-28zM728 1624h588v28h-588zM1344 1624h588v28h-588zM1960 1624h588v28h-588zM112 1652h588v28h-588zM728 1652h588v28h-588zM1344 1652h588v28h-588zM1960 1652h588v28h-588zM112 1680h588v28h-588zM728 1680h588v28h-588zM1344 1680h532v28h-532zM1904 1680h28v28h-28zM1960 1680h532v28h-532zM2520 1680h28v28h-28zM112 1708h588v28h-588zM728 1708h588v28h-588zM1344 1708h588v28h-588zM1960 1708h588v28h-588zM112 1736h588v28h-588zM728 1736h588v28h-588zM1344 1736h588v28h-588zM1960 1736h588v28h-588zM112 1764h588v28h-588zM728 1764h588v28h-588zM1344 1764h588v28h-588zM1960 1764h588v28h-588zM112 1792h588v28h-588zM728 1792h588v28h-588zM1344 1792h588v28h-588zM1960 1792h532v28h-532zM2520 1792h28v28h-28zM112 1820h588v28h-588zM728 1820h588v28h-588zM1344 1820h588v28h-588zM1960 1820h588v28h-588zM112 1848h588v28h-588zM728 1848h532v28h-532zM1288 1848h28v28h-28zM1344 1848h588v28h-588zM1960 1848h588v28h-588zM112 1876h588v28h-588zM728 1876h588v28h-588zM1344 1876h588v28h-588zM1960 1876h588v28h-588zM112 1904h588v28h-588zM728 1904h588v28h-588zM1344 1904h588v28h-588zM1960 1904h588v28h-588zM112 1932h532v28h-532zM672 1932h28v28h-28zM728 1932h588v28h-588zM1344 1932h588v28h-588zM1960 1932h588v28h-588zM112 1960h588v28h-588zM728 1960h588v28h-588zM1344 1960h588v28h-588zM1960 1960h588v28h-588zM112 1988h588v28h-588zM728 1988h588v28h-588zM1344 1988h588v28h-588zM1960 1988h504v28h-504zM2520 1988h28v28h-28zM112 2016h588v28h-588zM728 2016h588v28h-588zM1344 2016h588v28h-588zM1960 2016h588v28h-588zM112 2044h588v28h-588zM728 2044h588v28h-588zM1344 2044h588v28h-588zM1960 2044h588v28h-588zM112 2072h588v28h-588zM728 2072h588v28h-588zM1344 2072h588v28h-588zM1960 2072h588v28h-588zM112 2100h588v28h-588zM728 2100h588v28h-588zM1344 2100h588v28h-588zM1960 2100h588v28h-588zM112 2128h588v28h-588zM728 2128h588v28h-588zM1344 2128h588v28h-588zM1960 2128h588v28h-588zM112 2156h588v28h-588zM728 2156h588v28h-588zM1344 2156h588v28h-588zM1960 2156h588v28h-588zM112 2184h588v28h-588zM728 2184h588v28h-588zM1344 2184h588v28h-588zM1960 2184h532v28h-532zM2520 2184h28v28h-28zM112 2212h532v28h-532zM672 2212h28v28h-28zM728 2212h532v28h-532zM1288 2212h28v28h-28zM1344 2212h532v28h-532zM1904 2212h28v28h-28zM1960 2212h532v28h-532zM2520 2212h28v28h-28zM112 2240h532v28h-532zM672 2240h28v28h-28zM728 2240h504v28h-504zM1288 2240h28v28h-28zM1344 2240h532v28h-532zM1904 2240h28v28h-28zM168 2436h28v28h-28zM308 2436h140v28h-140zM672 2436h28v28h-28z"/>
<path fill="#f472b6" d="M700 56h28v28h-28zM1316 56h28v28h-28zM1932 56h28v28h-28zM2548 56h28v28h-28zM84 84h28v28h-28zM700 84h28v28h-28zM1316 84h28v28h-28zM1932 84h28v28h-28zM700 112h28v28h-28zM1316 112h28v28h-28zM1932 112h28v28h-28zM2548 112h28v28h-28zM84 140h28v28h-28zM700 140h28v28h-28zM1316 140h28v28h-28zM1932 140h28v28h-28zM700 168h28v28h-28zM1316 168h28v28h-28zM1932 168h28v28h-28zM2548 168h28v28h-28zM84 196h28v28h-28zM700 196h28v28h-28zM1316 196h28v28h-28zM1932 196h28v28h-28zM700 224h28v28h-28zM1316 224h28v28h-28zM1932 224h28v28h-28zM2548 224h28v28h-28zM84 252h28v28h-28zM700 252h28v28h-28zM1316 252h28v28h-28zM1932 252h28v28h-28zM700 280h28v28h-28zM1316 280h28v28h-28zM1932 280h28v28h-28zM2548 280h28v28h-28zM84 308h28v28h-28zM700 308h28v28h-28zM1316 308h28v28h-28zM1932 308h28v28h-28zM700 336h28v28h-28zM1316 336h28v28h-28zM1932 336h28v28h-28zM2548 336h28v28h-28zM84 364h28v28h-28zM700 364h28v28h-28zM1316 364h28v28h-28zM1932 364h28v28h-28zM700 392h28v28h-28zM1316 392h28v28h-28zM1932 392h28v28h-28zM2548 392h28v28h-28zM84 420h28v28h-28zM700 420h28v28h-28zM1316 420h28v28h-28zM1932 420h28v28h-28zM700 448h28v28h-28zM1316 448h28v28h-28zM1932 448h28v28h-28zM2548 448h28v28h-28zM84 476h28v28h-28zM700 476h28v28h-28zM1316 476h28v28h-28zM1932 476h28v28h-28zM700 504h28v28h-28zM1316 504h28v28h-28zM1932 504h28v28h-28zM2548 504h28v28h-28zM84 532h28v28h-28zM700 532h28v28h-28zM1316 532h28v28h-28zM1932 532h28v28h-28zM700 560h28v28h-28zM1316 560h28v28h-28zM1932 560h28v28h-28zM2548 560h28v28h-28zM84 588h28v28h-28zM700 588h28v28h-28zM1316 588h28v28h-28zM1932 588h28v28h-28zM700 616h28v28h-28zM1316 616h28v28h-28zM1932 616h28v28h-28zM2548 616h28v28h-28zM84 644h28v28h-28zM700 644h28v28h-28zM1316 644h28v28h-28zM1932 644h28v28h-28zM700 672h28v28h-28zM1316 672h28v28h-28zM1932 672h28v28h-28zM2548 672h28v28h-28zM84 700h28v28h-28zM700 700h28v28h-28zM1316 700h28v28h-28zM1932 700h28v28h-28zM700 728h28v28h-28zM1316 728h28v28h-28zM1932 728h28v28h-28zM2548 728h28v28h-28zM84 756h28v28h-28zM700 756h28v28h-28zM1316 756h28v28h-28zM1932 756h28v28h-28zM700 784h28v28h-28zM1316 784h28v28h-28zM1932 784h28v28h-28zM2548 784h28v28h-28zM84 812h28v28h-28zM700 812h28v28h-28zM1316 812h28v28h-28zM1932 812h28v28h-28zM700 840h28v28h-28zM1316 840h28v28h-28zM1932 840h28v28h-28zM2548 840h28v28h-28zM84 868h28v28h-28zM700 868h28v28h-28zM1316 868h28v28h-28zM1932 868h28v28h-28zM700 896h28v28h-28zM1316 896h28v28h-28zM1932 896h28v28h-28zM2548 896h28v28h-28zM84 924h28v28h-28zM700 924h28v28h-28zM1316 924h28v28h-28zM1932 924h28v28h-28zM700 952h28v28h-28zM1316 952h28v28h-28zM1932 952h28v28h-28zM2548 952h28v28h-28zM84 980h28v28h-28zM700 980h28v28h-28zM1316 980h28v28h-28zM1932 980h28v28h-28zM700 1008h28v28h-28zM1316 1008h28v28h-28zM1932 1008h28v28h-28zM2548 1008h28v28h-28zM84 1036h28v28h-28zM700 1036h28v28h-28zM1316 1036h28v28h-28zM1932 1036h28v28h-28zM700 1064h28v28h-28zM1316 1064h28v28h-28zM1932 1064h28v28h-28zM2548 1064h28v28h-28zM84 1092h28v28h-28zM700 1092h28v28h-28zM1316 1092h28v28h-28zM1932 1092h28v28h-28zM700 1120h28v28h-28zM1316 1120h28v28h-28zM1932 1120h28v28h-28zM2548 1120h28v28h-28zM84 1148h28v28h-28zM700 1148h28v28h-28zM1316 1148h28v28h-28zM1932 1148h28v28h-28zM700 1176h28v28h-28zM1316 1176h28v28h-28zM1932 1176h28v28h-28zM2548 1176h28v28h-28zM84 1204h28v28h-28zM700 1204h28v28h-28zM1316 1204h28v28h-28zM1932 1204h28v28h-28zM700 1232h28v28h-28zM1316 1232h28v28h-28zM1932 1232h28v28h-28zM2548 1232h28v28h-28zM84 1260h28v28h-28zM700 1260h28v28h-28zM1316 1260h28v28h-28zM1932 1260h28v28h-28zM700 1288h28v28h-28zM1316 1288h28v28h-28zM1932 1288h28v28h-28zM2548 1288h28v28h-28zM84 1316h28v28h-28zM700 1316h28v28h-28zM1316 1316h28v28h-28zM1932 1316h28v28h-28zM700 1344h28v28h-28zM1316 1344h28v28h-28zM1932 1344h28v28h-28zM2548 1344h28v28h-28zM84 1372h28v28h-28zM700 1372h28v28h-28zM1316 1372h28v28h-28zM1932 1372h28v28h-28zM700 1400h28v28h-28zM1316 1400h28v28h-28zM1932 1400h28v28h-28zM2548 1400h28v28h-28zM84 1428h28v28h-28zM700 1428h28v28h-28zM1316 1428h28v28h-28zM1932 1428h28v28h-28zM700 1456h28v28h-28zM1316 1456h28v28h-28zM1932 1456h28v28h-28zM2548 1456h28v28h-28zM84 1484h28v28h-28zM700 1484h28v28h-28zM1316 1484h28v28h-28zM1932 1484h28v28h-28zM700 1512h28v28h-28zM1316 1512h28v28h-28zM1932 1512h28v28h-28zM2548 1512h28v28h-28zM84 1540h28v28h-28zM700 1540h28v28h-28zM1316 1540h28v28h-28zM1932 1540h28v28h-28zM700 1568h28v28h-28zM1316 1568h28v28h-28zM1932 1568h28v28h-28zM2548 1568h28v28h-28zM84 1596h28v28h-28zM700 1596h28v28h-28zM1316 1596h28v28h-28zM1932 1596h28v28h-28zM700 1624h28v28h-28zM1316 1624h28v28h-28zM1932 1624h28v28h-28zM2548 1624h28v28h-28zM84 1652h28v28h-28zM700 1652h28v28h-28zM1316 1652h28v28h-28zM1932 1652h28v28h-28zM700 1680h28v28h-28zM1316 1680h28v28h-28zM1932 1680h28v28h-28zM2548 1680h28v28h-28zM84 1708h28v28h-28zM700 1708h28v28h-28zM1316 1708h28v28h-28zM1932 1708h28v28h-28zM700 1736h28v28h-28zM1316 1736h28v28h-28zM1932 1736h28v28h-28zM2548 1736h28v28h-28zM84 1764h28v28h-28zM700 1764h28v28h-28zM1316 1764h28v28h-28zM1932 1764h28v28h-28zM700 1792h28v28h-28zM1316 1792h28v28h-28zM1932 1792h28v28h-28zM2548 1792h28v28h-28zM84 1820h28v28h-28zM700 1820h28v28h-28zM1316 1820h28v28h-28zM1932 1820h28v28h-28zM700 1848h28v28h-28zM1316 1848h28v28h-28zM1932 1848h28v28h-28zM2548 1848h28v28h-28zM84 1876h28v28h-28zM700 1876h28v28h-28zM1316 1876h28v28h-28zM1932 1876h28v28h-28zM700 1904h28v28h-28zM1316 1904h28v28h-28zM1932 1904h28v28h-28zM2548 1904h28v28h-28zM84 1932h28v28h-28zM700 1932h28v28h-28zM1316 1932h28v28h-28zM1932 1932h28v28h-28zM700 1960h28v28h-28zM1316 1960h28v28h-28zM1932 1960h28v28h-28zM2548 1960h28v28h-28zM84 1988h28v28h-28zM700 1988h28v28h-28zM1316 1988h28v28h-28zM1932 1988h28v28h-28zM700 2016h28v28h-28zM1316 2016h28v28h-28zM1932 2016h28v28h-28zM2548 2016h28v28h-28zM84 2044h28v28h-28zM700 2044h28v28h-28zM1316 2044h28v28h-28zM1932 2044h28v28h-28zM700 2072h28v28h-28zM1316 2072h28v28h-28zM1932 2072h28v28h-28zM2548 2072h28v28h-28zM84 2100h28v28h-28zM700 2100h28v28h-28zM1316 2100h28v28h-28zM1932 2100h28v28h-28zM700 2128h28v28h-28zM1316 2128h28v28h-28zM1932 2128h28v28h-28zM2548 2128h28v28h-28zM84 2156h28v28h-28zM700 2156h28v28h-28zM1316 2156h28v28h-28zM1932 2156h28v28h-28zM700 2184h28v28h-28zM1316 2184h28v28h-28zM1932 2184h28v28h-28zM2548 2184h28v28h-28zM84 2212h28v28h-28zM700 2212h28v28h-28zM1316 2212h28v28h-28zM1932 2212h28v28h-28zM700 2240h28v28h-28zM1316 2240h28v28h-28zM1932 2240h28v28h-28zM784 2408h28v28h-28zM112 2436h28v28h-28zM532 2436h28v28h-28z"/>
<path fill="#a5b4fc" d="M112 2296h28v28h-28zM112 2324h28v28h-28zM784 2324h252v28h-252zM112 2352h28v28h-28zM784 2352h28v28h-28zM1008 2352h28v28h-28zM1008 2380h28v28h-28zM1008 2408h28v28h-28zM1008 2436h28v28h-28z"/>
<path fill="#93c5fd" d="M756 2408h28v28h-28zM140 2436h28v28h-28zM196 2436h56v28h-56zM280 2436h28v28h-28zM448 2436h28v28h-28zM504 2436h28v28h-28zM560 2436h56v28h-56zM644 2436h28v28h-28z"/>
<path fill="#4ade80" d="M476 2436h28v28h-28zM700 2436h28v28h-28z"/>
<path fill="#78716c" d="M980 2464h84v28h-84zM980 2492h28v28h-28zM1036 2492h28v28h-28zM980 2520h84v28h-84z"/>
<path fill="none" stroke="#a8a29e" stroke-width="2" d="M0 0V2576M28 0V2576M56 0V2576M84 0V2576M112 0V2576M140 0V2576M168 0V2576M196 0V2576M224 0V2576M252 0V2576M280 0V2576M308 0V2576M336 0V2576M364 0V2576M392 0V2576M420 0V2576M448 0V2576M476 0V2576M504 0V2576M532 0V2576M560 0V2576M588 0V2576M616 0V2576M644 0V2576M672 0V2576M700 0V2576M728 0V2576M756 0V2576M784 0V2576M812 0V2576M840 0V2576M868 0V2576M896 0V2576M924 0V2576M952 0V2576M980 0V2576M1008 0V2576M1036 0V2576M1064 0V2576M1092 0V2576M1120 0V2576M1148 0V2576M1176 0V2576M1204 0V2576M1232 0V2576M1260 0V2576M1288 0V2576M1316 0V2576M1344 0V2576M1372 0V2576M1400 0V2576M1428 0V2576M1456 0V2576M1484 0V2576M1512 0V2576M1540 0V2576M1568 0V2576M1596 0V2576M1624 0V2576M1652 0V2576M1680 0V2576M1708 0V2576M1736 0V2576M1764 0V2576M1792 0V2576M1820 0V2576M1848 0V2576M1876 0V2576M1904 0V2576M1932 0V2576M1960 0V2576M1988 0V2576M2016 0V2576M2044 0V2576M2072 0V2576M2100 0V2576M2128 0V2576M2156 0V2576M2184 0V2576M2212 0V2576M2240 0V2576M2268 0V2576M2296 0V2576M2324 0V2576M2352 0V2576M2380 0V2576M2408 0V2576M2436 0V2576M2464 0V2576M2492 0V2576M2520 0V2576M2548 0V2576M2576 0V2576M2604 0V2576M2632 0V2576M2660 0V2576M0 0H2660M0 28H2660M0 56H2660M0 84H2660M0 112H2660M0 140H2660M0 168H2660M0 196H2660M0 224H2660M0 252H2660M0 280H2660M0 308H2660M0 336H2660M0 364H2660M0 392H2660M0 420H2660M0 448H2660M0 476H2660M0 504H2660M0 532H2660M0 560H2660M0 588H2660M0 616H2660M0 644H2660M0 672H2660M0 700H2660M0 728H2660M0 756H2660M0 784H2660M0 812H2660M0 840H2660M0 868H2660M0 896H2660M0 924H2660M0 952H2660M0 980H2660M0 1008H2660M0 1036H2660M0 1064H2660M0 1092H2660M0 1120H2660M0 1148H2660M0 1176H2660M0 1204H2660M0 1232H2660M0 1260H2660M0 1288H2660M0 1316H2660M0 1344H2660M0 1372H2660M0 1400H2660M0 1428H2660M0 1456H2660M0 1484H2660M0 1512H2660M0 1540H2660M0 1568H2660M0 1596H2660M0 1624H2660M0 1652H2660M0 1680H2660M0 1708H2660M0 1736H2660M0 1764H2660M0 1792H2660M0 1820H2660M0 1848H2660M0 1876H2660M0 1904H2660M0 1932H2660M0 1960H2660M0 1988H2660M0 2016H2660M0 2044H2660M0 2072H2660M0 2100H2660M0 2128H2660M0 2156H2660M0 2184H2660M0 2212H2660M0 2240H2660M0 2268H2660M0 2296H2660M0 2324H2660M0 2352H2660M0 2380H2660M0 2408H2660M0 2436H2660M0 2464H2660M0 2492H2660M0 2520H2660M0 2548H2660M0 2576H2660"/>
</g>
<g fill="#000" font-family="DejaVu Sans Mono, ui-monospace, monospace" font-size="18" text-anchor="middle" dominant-baseline="central">
<text x="42 70 98 126 154 182 210 238 266 294 322 350 378 406 434 462 490 518 546 574 602 630 658 686 714 742 770 798 826 854 882 910 938 966 994 1022 1050 1078 1106 1134 1162 1190 1218 1246 1274 1302 1330 1358 1386 1414 1442 1470 1498 1526 1554 1582 1610 1638 1666 1694 1722 1750 1778 1806 1834 1862 1890 1918 1946 1974 2002 2030 2058 2086 2114 2142 2170 2198 2226 2254 2282 2310 2338 2366 2394 2422 2450 2478 2506 2534 2562 2590 2618" y="42">+-------------------------------------------------------------------------------------------+</text>
<text x="42 70 98 126 154 182 210 238 266 294 322 350 378 406 434 462 490 518 546 574 602 630 658 686 714 742 770 798 826 854 882 910 938 966 994 1022 1050 1078 1106 1134 1162 1190 1218 1246 1274 1302 1330 1358 1386 1414 1442 1470 1498 1526 1554 1582 1610 1638 1666 1694 1722 1750 1778 1806 1834 1862 1890 1918 1946 1974 2002 2030 2058 2086 2114 2142 2170 2198 2226 2254 2282 2310 2338 2366 2394 2422 2450 2478 2506 2534 2562 2590 2618" y="70">|@&gt;`7624947128054209713`s`7049157641120592108`s`4730843404013146156`s`7837309327795015968`sv|</text>
<text x="42 70 98 126 154 182 210 238 266 294 322 350 378 406 434 462 490 518 546 574 602 630 658 686 714 742 770 798 826 854 882 910 938 966 994 1022 1050 1078 1106 1134 1162 1190 1218 1246 1302 1330 1358 1386 1414 1442 1470 1498 1526 1554 1582 1610 1638 1666 1694 1722 1750 1778 1806 1834 1862 1890 1918 1946 1974 2002 2030 2058 2086 2114 2142 2170 2198 2226 2254 2282 2310 2338 2366 2394 2422 2450 2478 2506 2534 2590 2618" y="98">|vs`8634315168883950632`s`388621189599987731`s`4146076634158563897`s`7561951282835054857`&lt;|</text>
<text x="42 70 126 154 182 210 238 266 294 322 350 378 406 434 462 490 518 546 574 602 630 658 686 714 742 770 798 826 854 882 910 938 966 994 1022 1050 1078 1106 1134 1162 1190 1218 1246 1274 1302 1330 1358 1386 1414 1442 1470 1498 1526 1554 1582 1610 1638 1666 1694 1722 1750 1778 1806 1834 1862 1890 1918 1946 1974 2002 2030 2058 2086 2114 2142 2170 2198 2226 2254 2282 2310 2338 2366 2394 2422 2450 2478 2506 2534 2562 2590 2618" y="126">|&gt;`7334603930382170083`s`2363162345881718892`s`7045462764501561580`s`2325264367565500908`sv|</text>
<text x="42 70 98 126 154 182 210 238 266 294 322 350 378 406 434 462 490 518 546 574 602 630 658 686 714 742 770 798 826 854 882 910 938 966 994 1022 1050 1078 1106 1134 1162 1190 1218 1246 1274 1302 1330 1358 1386 1414 1442 1470 1498 1526 1554 1582 1610 1638 1666 1694 1722 1750 1778 1806 1834 1862 1890 1918 1946 1974 2002 2030 2058 2086 2114 2142 2170 2198 2226 2254 2282 2310 2338 2366 2394 2422 2450 2478 2506 2534 2590 2618" y="154">|vs`4559280383810105314`s`6909298721033990267`s`3037784831315262632`s`4628416396194152307`&lt;|</text>
<text x="42 70 126 154 182 210 238 266 294 322 350 378 406 434 462 490 518 546 574 602 630 658 686 714 742 770 798 826 854 882 910 938 966 994 1022 1050 1078 1106 1134 1162 1190 1218 1246 1274 1302 1330 1358 1386 1414 1442 1470 1498 1526 1554 1582 1610 1638 1666 1694 1722 1750 1778 1806 1834 1862 1890 1918 1946 1974 2002 2030 2058 2086 2114 2142 2170 2198 2226 2254 2282 2310 2338 2366 2394 2422 2450 2478 2506 2534 2562 2590 2618" y="182">|&gt;`7343628730504223673`s`8415883012876038770`s`2371025864346088168`s`7989288596422877986`sv|</text>
<text x="42 70 98 126 154 182 210 238 266 294 322 350 378 406 434 462 490 518 546 574 602 630 658 686 714 742 770 798 826 854 882 910 938 966 994 1022 1050 1078 1106 1134 1162 1190 1218 1246 1274 1302 1330 1358 1386 1414 1442 1470 1498 1526 1554 1582 1610 1638 1666 1694 1722 1750 1778 1806 1834 1862 1890 1918 1946 1974 2002 2030 2058 2086 2114 2142 2170 2198 2226 2254 2282 2310 2338 2366 2394 2422 2450 2478 2506 2534 2590 2618" y="210">|vs`7186801018883361248`s`3951760711488119897`s`4508065548700773148`s`7501210345338871367`&lt;|</text>
<text x="42 70 126 154 182 210 238 266 294 322 350 378 406 434 462 490 518 546 574 602 630 658 686 714 742 770 798 826 854 882 910 938 966 994 1022 1050 1078 1106 1134 1162 1190 1218 1246 1274 1302 1330 1358 1386 1414 1442 1470 1498 1526 1554 1582 1610 1638 1666 1694 1722 1750 1778 1806 1834 1862 1890 1918 1946 1974 2002 2030 2058 2086 2114 2142 2170 2198 2226 2254 2282 2310 2338 2366 2394 2422 2450 2478 2506 2534 2562 2590 2618" y="238">|&gt;`8485697618227777652`s`4274952947289428076`s`7026884064110860448`s`2331060956898687596`sv|</text>
<text x="42 70 98 126 154 182 210 238 266 294 322 350 378 406 434 462 490 518 546 574 602 630 658 686 714 742 770 798 826 854 882 910 938 966 994 1022 1050 1078 1106 1134 1162 1190 1218 1246 1274 1302 1330 1358 1386 1414 1442 1470 1498 1526 1554 1582 1610 1638 1666 1694 1722 1750 1778 1806 1834 1862 1890 1918 1946 1974 2002 2030 2058 2086 2114 2142 2170 2198 2226 2254 2282 2310 2338 2366 2394 2422 2450 2478 2506 2534 2590 2618" y="266">|vs`5732094033125324227`s`2785346580758095507`s`7458876222414501623`s`3140935653431628642`&lt;|</text>
<text x="42 70 126 154 182 210 238 266 294 322 350 378 406 434 462 490 518 546 574 602 630 658 686 714 742 770 798 826 854 882 910 938 966 994 1022 1050 1078 1106 1134 1162 1190 1218 1246 1274 1302 1330 1358 1386 1414 1442 1470 1498 1526 1554 1582 1610 1638 1666 1694 1722 1750 1778 1806 1834 1862 1890 1918 1946 1974 2002 2030 2058 2086 2114 2142 2170 2198 2226 2254 2282 2310 2338 2366 2394 2422 2450 2478 2506 2534 2562 2590 2618" y="294">|&gt;`2371632486336264293`s`5499037081822575860`s`8467475003434841957`s`3016778016079280871`sv|</text>
<text x="42 70 98 126 154 182 210 238 266 294 322 350 378 406 434 462 490 518 546 574 602 630 658 686 714 742 770 798 826 854 882 910 938 966 994 1022 1050 1078 1106 1134 1162 1190 1218 1246 1274 1302 1330 1358 1386 1414 1442 1470 1498 1526 1554 1582 1610 1638 1666 1694 1722 1750 1778 1806 1834 1862 1890 1918 1946 1974 2002 2030 2058 2086 2114 2142 2170 2198 2226 2254 2282 2310 2338 2366 2394 2422 2450 2534 2590 2618" y="322">|vs`3087784831315262632`s`1407686226927451438`s`6378722747944114528`s`55560317135092309`&lt;|</text>
<text x="42 70 126 154 182 210 238 266 294 322 350 378 406 434 462 490 518 546 574 602 630 658 686 714 742 770 798 826 854 882 910 938 966 994 1022 1050 1078 1106 1134 1162 1190 1218 1246 1274 1302 1330 1358 1386 1414 1442 1470 1498 1526 1554 1582 1610 1638 1666 1694 1722 1750 1778 1806 1834 1862 1890 1918 1946 1974 2002 2030 2058 2086 2114 2142 2170 2198 2226 2254 2282 2310 2338 2366 2394 2422 2450 2478 2506 2534 2562 2590 2618" y="350">|&gt;`7340188143658936024`s`7621699697062245618`s`8277197884848156910`s`8341662041938754080`sv|</text>
<text x="42 70 98 126 154 182 210 238 266 294 322 350 378 406 434 462 490 518 546 574 602 630 658 686 714 742 770 798 826 854 882 910 938 966 994 1022 1050 1078 1106 1134 1162 1190 1218 1246 1274 1302 1330 1358 1386 1414 1442 1470 1498 1526 1554 1582 1610 1638 1666 1694 1722 1750 1778 1806 1834 1862 1890 1918 1946 1974 2002 2030 2058 2086 2114 2142 2170 2198 2226 2254 2282 2310 2338 2366 2394 2422 2450 2478 2506 2534 2590 2618" y="378">|vs`1008816524275801897`s`5212046377028057826`s`1443193308889640092`s`9099595959456447487`&lt;|</text>
<text x="42 70 126 154 182 210 238 266 294 322 350 378 406 434 462 490 518 546 574 602 630 658 686 714 742 770 798 826 854 882 910 938 966 994 1022 1050 1078 1106 1134 1162 1190 1218 1246 1274 1302 1330 1358 1386 1414 1442 1470 1498 1526 1554 1582 1610 1638 1666 1694 1722 1750 1778 1806 1834 1862 1890 1918 1946 1974 2002 2030 2058 2086 2114 2142 2170 2198 2226 2254 2282 2310 2338 2366 2394 2422 2450 2478 2506 2534 2562 2590 2618" y="406">|&gt;`5927224531733237860`s`4274966143820167029`s`8041882827962980640`s`4846070450200820334`sv|</text>
<text x="42 70 98 126 154 182 210 238 266 294 322 350 378 406 434 462 490 518 546 574 602 630 658 686 714 742 770 798 826 854 882 910 938 966 994 1022 1050 1078 1106 1134 1162 1190 1218 1246 1274 1302 1330 1358 1386 1414 1442 1470 1498 1526 1554 1582 1610 1638 1666 1694 1722 1750 1778 1806 1834 1862 1890 1918 1946 1974 2002 2030 2058 2086 2114 2142 2170 2198 2226 2254 2282 2310 2338 2366 2394 2422 2450 2478 2506 2534 2590 2618" y="434">|vs`5610005037861931608`s`8235523149486160468`s`9067363124005100424`s`3597527008018846748`&lt;|</text>
<text x="42 70 126 154 182 210 238 266 294 322 350 378 406 434 462 490 518 546 574 602 630 658 686 714 742 770 798 826 854 882 910 938 966 994 1022 1050 1078 1106 1134 1162 1190 1218 1246 1274 1302 1330 1358 1386 1414 1442 1470 1498 1526 1554 1582 1610 1638 1666 1694 1722 1750 1778 1806 1834 1862 1890 1918 1946 1974 2002 2030 2058 2086 2114 2142 2170 2198 2226 2254 2282 2310 2338 2366 2394 2422 2450 2478 2506 2534 2562 2590 2618" y="462">|&gt;`7981443997303935084`s`7631858845469079524`s`8341547246317745134`s`7484924865147515627`sv|</text>
<text x="42 70 98 126 154 182 210 238 266 294 322 350 378 406 434 462 490 518 546 574 602 630 658 686 714 742 770 798 826 854 882 910 938 966 994 1022 1050 1078 1106 1134 1162 1190 1218 1246 1274 1302 1330 1358 1386 1414 1442 1470 1498 1526 1554 1582 1610 1638 1666 1694 1722 1750 1778 1806 1834 1862 1890 1918 1946 1974 2002 2030 2058 2086 2114 2142 2170 2198 2226 2254 2282 2310 2338 2366 2394 2422 2450 2478 2506 2534 2590 2618" y="490">|vs`0463595017222493438`s`5842327597345910408`s`1263849273210181538`s`2067448545121970408`&lt;|</text>
<text x="42 70 126 154 182 210 238 266 294 322 350 378 406 434 462 490 518 546 574 602 630 658 686 714 742 770 798 826 854 882 910 938 966 994 1022 1050 1078 1106 1134 1162 1190 1218 1246 1274 1302 1330 1358 1386 1414 1442 1470 1498 1526 1554 1582 1610 1638 1666 1694 1722 1750 1778 1806 1834 1862 1890 1918 1946 1974 2002 2030 2058 2086 2114 2142 2170 2198 2226 2254 2282 2310 2338 2366 2394 2422 2450 2478 2506 2534 2562 2590 2618" y="518">|&gt;`2338711273048907177`s`3227831296493090374`s`5928007933739476128`s`2363223562881167845`sv|</text>
<text x="42 70 98 126 154 182 210 238 266 294 322 350 378 406 434 462 490 518 546 574 602 630 658 686 714 742 770 798 826 854 882 910 938 966 994 1022 1050 1078 1106 1134 1162 1190 1218 1246 1274 1302 1330 1358 1386 1414 1442 1470 1498 1526 1554 1582 1610 1638 1666 1694 1722 1750 1778 1806 1834 1862 1890 1918 1946 1974 2002 2030 2058 2086 2114 2142 2170 2198 2226 2254 2282 2310 2338 2366 2394 2422 2450 2478 2506 2534 2590 2618" y="546">|vs`0462755234356497508`s`6045776299612803942`s`7262304844894525507`s`5950654156781152437`&lt;|</text>
<text x="42 70 126 154 182 210 238 266 294 322 350 378 406 434 462 490 518 546 574 602 630 658 686 714 742 770 798 826 854 882 910 938 966 994 1022 1050 1078 1106 1134 1162 1190 1218 1246 1274 1302 1330 1358 1386 1414 1442 1470 1498 1526 1554 1582 1610 1638 1666 1694 1722 1750 1778 1806 1834 1862 1890 1918 1946 1974 2002 2030 2058 2086 2114 2142 2170 2198 2226 2254 2282 2310 2338 2366 2394 2422 2450 2478 2506 2534 2562 2590 2618" y="574">|&gt;`2339241221416642848`s`8418143612416301106`s`2331073773903067636`s`2468261343565390032`sv|</text>
<text x="42 70 98 126 154 182 210 238 266 294 322 350 378 406 434 462 490 518 546 574 602 630 658 686 714 742 770 798 826 854 882 910 938 966 994 1022 1050 1078 1106 1134 1162 1190 1218 1246 1274 1302 1330 1358 1386 1414 1442 1470 1498 1526 1554 1582 1610 1638 1666 1694 1722 1750 1778 1806 1834 1862 1890 1918 1946 1974 2002 2030 2058 2086 2114 2142 2170 2198 2226 2254 2282 2310 2338 2366 2394 2422 2450 2478 2506 2534 2590 2618" y="602">|vs`6046621251369309438`s`3569530143796640732`s`4038914722009342557`s`5593354039724632538`&lt;|</text>
<text x="42 70 126 154 182 210 238 266 294 322 350 378 406 434 462 490 518 546 574 602 630 658 686 714 742 770 798 826 854 882 910 938 966 994 1022 1050 1078 1106 1134 1162 1190 1218 1246 1274 1302 1330 1358 1386 1414 1442 1470 1498 1526 1554 1582 1610 1638 1666 1694 1722 1750 1778 1806 1834 1862 1918 1946 1974 2002 2030 2058 2086 2114 2142 2170 2198 2226 2254 2282 2310 2338 2366 2394 2422 2450 2478 2506 2534 2562 2590 2618" y="630">|&gt;`8423304803010613282`s`2370467244529050400`s`137873315663001441`s`7843465367777735912`sv|</text>
<text x="42 70 98 126 154 182 210 238 266 294 322 350 378 406 434 462 490 518 546 574 602 630 658 686 714 742 770 798 826 854 882 910 938 966 994 1022 1050 1078 1106 1134 1162 1190 1218 1246 1274 1302 1330 1358 1386 1414 1442 1470 1498 1526 1554 1582 1610 1638 1666 1694 1722 1750 1778 1806 1834 1862 1890 1918 1946 1974 2002 2030 2058 2086 2114 2142 2170 2198 2226 2254 2282 2310 2338 2366 2394 2422 2450 2478 2506 2534 2590 2618" y="658">|vs`5405939481064088332`s`1844625617753413627`s`6965134469129610538`s`1227190463205511263`&lt;|</text>
<text x="42 70 126 154 182 210 238 266 294 322 350 378 406 434 462 490 518 546 574 602 630 658 686 714 742 770 798 826 854 882 910 938 966 994 1022 1050 1078 1106 1134 1162 1190 1218 1246 1274 1302 1330 1358 1386 1414 1442 1470 1498 1526 1554 1582 1610 1638 1666 1694 1722 1750 1778 1806 1834 1862 1890 1918 1946 1974 2002 2030 2058 2086 2114 2142 2170 2198 2226 2254 2282 2310 2338 2366 2394 2422 2450 2478 2506 2534 2562 2590 2618" y="686">|&gt;`5566905946220425426`s`2363162345900675148`s`2363753217952446416`s`2489509204086029523`sv|</text>
<text x="42 70 98 126 154 182 210 238 266 294 322 350 378 406 434 462 490 518 546 574 602 630 658 686 714 742 770 798 826 854 882 910 938 966 994 1022 1050 1078 1106 1134 1162 1190 1218 1246 1274 1302 1330 1358 1386 1414 1442 1470 1498 1526 1554 1582 1610 1638 1666 1694 1722 1750 1778 1806 1834 1862 1890 1918 1946 1974 2002 2030 2058 2086 2114 2142 2170 2198 2226 2254 2282 2310 2338 2366 2394 2422 2450 2478 2506 2534 2590 2618" y="714">|vs`3124381542394105724`s`4093091749056082267`s`4805702434940241897`s`8849378341417640732`&lt;|</text>
<text x="42 70 126 154 182 210 238 266 294 322 350 378 406 434 462 490 518 546 574 602 630 658 686 714 742 770 798 826 854 882 910 938 966 994 1022 1050 1078 1106 1134 1162 1190 1218 1302 1330 1358 1386 1414 1442 1470 1498 1526 1554 1582 1610 1638 1666 1694 1722 1750 1778 1806 1834 1918 1946 1974 2002 2030 2058 2086 2114 2142 2170 2198 2226 2254 2282 2310 2338 2366 2394 2422 2450 2478 2506 2534 2562 2590 2618" y="742">|&gt;`7973202934719322400`s`90268973391199215`s`90360740313770581`s`8041884696681441698`sv|</text>
<text x="42 70 98 126 154 182 210 238 266 294 322 350 378 406 434 462 490 518 546 574 602 630 658 686 714 742 770 798 826 854 882 910 938 966 994 1022 1050 1078 1106 1134 1162 1190 1218 1246 1274 1302 1330 1358 1386 1414 1442 1470 1498 1526 1554 1582 1610 1638 1666 1694 1722 1750 1778 1806 1834 1862 1890 1918 1946 1974 2002 2030 2058 2086 2114 2142 2170 2198 2226 2254 2282 2310 2338 2366 2394 2422 2450 2478 2506 2534 2590 2618" y="770">|vs`0804747700773801897`s`2434328284540592323`s`4663031271561214237`s`6600530532922091728`&lt;|</text>
<text x="42 70 126 154 182 210 238 266 294 322 350 378 406 434 462 490 518 546 574 602 630 658 686 714 742 770 798 826 854 882 910 938 966 994 1022 1050 1078 1106 1134 1162 1190 1218 1246 1274 1302 1330 1358 1386 1414 1442 1470 1498 1526 1554 1582 1610 1638 1666 1694 1722 1750 1778 1806 1834 1862 1890 1918 1946 1974 2002 2030 2058 2086 2114 2142 2170 2198 2226 2254 2282 2310 2338 2366 2394 2422 2450 2478 2506 2534 2562 2590 2618" y="798">|&gt;`7837331178954805348`s`8423849074458458601`s`2363742248476610931`s`7981085965336408268`sv|</text>
<text x="42 70 98 126 154 182 210 238 266 294 322 350 378 406 434 462 490 518 546 574 602 630 658 686 714 742 770 798 826 854 882 910 938 966 994 1022 1050 1078 1106 1134 1162 1190 1218 1246 1274 1302 1330 1358 1386 1414 1442 1470 1498 1526 1554 1582 1610 1638 1666 1694 1722 1750 1778 1806 1834 1862 1918 1946 1974 2002 2030 2058 2086 2114 2142 2170 2198 2226 2254 2282 2310 2338 2366 2394 2422 2450 2478 2506 2534 2590 2618" y="826">|vs`1645811735183295897`s`4129157439217006843`s`502347385326178431`s`4886291700559013875`&lt;|</text>
<text x="42 70 126 154 182 210 238 266 294 322 350 378 406 434 462 490 518 546 574 602 630 658 686 714 742 770 798 826 854 882 910 938 966 994 1022 1050 1078 1106 1134 1162 1190 1218 1246 1274 1302 1330 1358 1386 1414 1442 1470 1498 1526 1554 1582 1610 1638 1666 1694 1722 1750 1778 1806 1834 1862 1890 1918 1946 1974 2002 2030 2058 2086 2114 2142 2170 2198 2226 2254 2282 2310 2338 2366 2394 2422 2450 2478 2506 2534 2562 2590 2618" y="854">|&gt;`7628464068766471790`s`7622271584910741601`s`7341402451261094497`s`8348520832512715168`sv|</text>
<text x="42 70 98 126 154 182 210 238 266 294 322 350 378 406 434 462 490 518 546 574 602 630 658 686 714 742 770 798 826 854 882 910 938 966 994 1022 1050 1078 1106 1134 1162 1190 1218 1246 1274 1302 1330 1358 1386 1414 1442 1470 1498 1526 1554 1582 1610 1638 1666 1694 1722 1750 1778 1806 1834 1862 1890 1918 1946 1974 2002 2030 2058 2086 2114 2142 2170 2198 2226 2254 2282 2310 2338 2366 2394 2422 2450 2478 2506 2534 2590 2618" y="882">|vs`8035786979383459387`s`1219273625185774878`s`4224056747679481357`s`4768615068746959387`&lt;|</text>
<text x="42 70 126 154 182 210 238 266 294 322 350 378 406 434 462 490 518 546 574 602 630 658 686 714 742 770 798 826 854 882 910 938 966 994 1022 1050 1078 1106 1134 1162 1190 1218 1246 1274 1302 1330 1358 1386 1414 1442 1470 1498 1526 1554 1582 1610 1638 1666 1694 1722 1750 1778 1806 1834 1862 1890 1918 1946 1974 2002 2030 2058 2086 2114 2142 2170 2198 2226 2254 2282 2310 2338 2366 2394 2422 2450 2478 2506 2534 2562 2590 2618" y="910">|&gt;`3235158375112298597`s`8060219138676338848`s`2368259705676238958`s`3621155024983013322`sv|</text>
<text x="42 70 98 126 154 182 210 238 266 294 322 350 378 406 434 462 490 518 546 574 602 630 658 686 714 742 770 798 826 854 882 910 938 966 994 1022 1050 1078 1106 1134 1162 1190 1218 1246 1274 1302 1330 1358 1386 1414 1442 1470 1498 1526 1554 1582 1610 1638 1666 1694 1722 1750 1778 1806 1834 1862 1890 1918 1946 1974 2002 2030 2058 2086 2114 2142 2170 2198 2226 2254 2282 2310 2338 2366 2394 2422 2450 2478 2506 2534 2590 2618" y="938">|vs`0449102615783393267`s`4819252600173573197`s`8871708501954407123`s`4642393473418433248`&lt;|</text>
<text x="42 70 126 154 182 210 238 266 294 322 350 378 406 434 462 490 518 546 574 602 630 658 686 714 742 770 798 826 854 882 910 938 966 994 1022 1050 1078 1106 1134 1162 1190 1218 1246 1274 1302 1330 1358 1386 1414 1442 1470 1498 1526 1554 1582 1610 1638 1666 1694 1722 1750 1778 1806 1834 1862 1890 1918 1946 1974 2002 2030 2058 2086 2114 2142 2170 2198 2226 2254 2282 2310 2338 2366 2394 2422 2450 2478 2506 2534 2562 2590 2618" y="966">|&gt;`7044957438796968163`s`2363197724454105843`s`7334036329484367721`s`6091406817414083360`sv|</text>
<text x="42 70 98 126 154 182 210 238 266 294 322 350 378 406 434 462 490 518 546 574 602 630 658 686 714 742 770 798 826 854 882 910 938 966 994 1022 1050 1078 1106 1134 1162 1190 1218 1246 1274 1302 1330 1358 1386 1414 1442 1470 1498 1526 1554 1582 1610 1638 1666 1694 1722 1750 1778 1806 1834 1862 1890 1918 1946 1974 2002 2030 2058 2086 2114 2142 2170 2198 2226 2254 2282 2310 2338 2366 2394 2422 2450 2478 2506 2534 2590 2618" y="994">|vs`1400020643927257678`s`1517671793767863197`s`0882627577893670535`s`1525368026085039897`&lt;|</text>
<text x="42 70 126 154 182 210 238 266 294 322 350 378 406 434 462 490 518 546 574 602 630 658 686 714 742 770 798 826 854 882 910 938 966 994 1022 1050 1078 1106 1134 1162 1190 1218 1246 1274 1302 1330 1358 1386 1414 1442 1470 1498 1526 1554 1582 1610 1638 1666 1694 1722 1750 1778 1806 1834 1862 1890 1918 1946 1974 2002 2030 2058 2086 2114 2142 2170 2198 2226 2254 2282 2310 2338 2366 2394 2422 2450 2478 2506 2534 2562 2590 2618" y="1022">|&gt;`3235739192943949044`s`7628402083061639584`s`7550187565626019941`s`8055564271395295276`sv|</text>
<text x="42 70 98 126 154 182 210 238 266 294 322 350 378 406 434 462 490 518 546 574 602 630 658 686 714 742 770 798 826 854 882 910 938 966 994 1022 1050 1078 1106 1134 1162 1190 1218 1246 1274 1302 1330 1358 1386 1414 1442 1470 1498 1526 1554 1582 1610 1638 1666 1694 1722 1750 1778 1806 1834 1862 1890 1918 1946 1974 2002 2030 2058 2086 2114 2142 2170 2198 2226 2254 2282 2310 2338 2366 2394 2422 2450 2478 2506 2534 2590 2618" y="1050">|vs`6492032648307371728`s`8214144740119043267`s`2702128663205511263`s`0917506902223161438`&lt;|</text>
<text x="42 70 126 154 182 210 238 266 294 322 350 378 406 434 462 490 518 546 574 602 630 658 686 714 742 770 798 826 854 882 910 938 966 994 1022 1050 1078 1106 1134 1162 1190 1218 1246 1274 1302 1330 1358 1386 1414 1442 1470 1498 1526 1554 1582 1610 1638 1666 1694 1722 1750 1778 1806 1834 1862 1890 1918 1946 1974 2002 2030 2058 2086 2114 2142 2170 2198 2226 2254 2282 2310 2338 2366 2394 2422 2450 2478 2506 2534 2562 2590 2618" y="1078">|&gt;`8424331725747499245`s`7631788473112940602`s`5999273536584692470`s`8055958587513256053`sv|</text>
<text x="42 70 98 126 154 182 210 238 266 294 322 350 378 406 434 462 490 518 546 574 602 630 658 686 714 742 770 798 826 854 882 910 938 966 994 1022 1050 1078 1106 1134 1162 1190 1218 1246 1274 1302 1330 1358 1386 1414 1442 1470 1498 1526 1554 1582 1610 1638 1666 1694 1722 1750 1778 1806 1834 1862 1890 1918 1946 1974 2002 2030 2058 2086 2114 2142 2170 2198 2226 2254 2282 2310 2338 2366 2394 2422 2450 2478 2506 2534 2590 2618" y="1106">|vs`4645310285256864237`s`0515920970647945232`s`3885955699225931507`s`8773363402296347728`&lt;|</text>
<text x="42 70 126 154 182 210 238 266 294 322 350 378 406 434 462 490 518 546 574 602 630 658 686 714 742 770 798 826 854 882 910 938 966 994 1022 1050 1078 1106 1134 1162 1190 1218 1246 1274 1302 1330 1358 1386 1414 1442 1470 1498 1526 1554 1582 1610 1638 1666 1694 1722 1750 1778 1806 1834 1862 1890 1918 1946 1974 2002 2030 2058 2086 2114 2142 2170 2198 2226 2254 2282 2310 2338 2366 2394 2422 2450 2478 2506 2534 2562 2590 2618" y="1134">|&gt;`7054071891175879415`s`7040396695724192238`s`7334616724376418416`s`8421606620376233580`sv|</text>
<text x="42 70 98 126 154 182 210 238 266 294 322 350 378 406 434 462 490 518 546 574 602 630 658 686 714 742 770 798 826 854 882 910 938 966 994 1022 1050 1078 1106 1134 1162 1190 1218 1246 1274 1302 1330 1358 1386 1414 1442 1470 1498 1526 1554 1582 1610 1638 1666 1694 1722 1750 1778 1806 1834 1862 1918 1946 1974 2002 2030 2058 2086 2114 2142 2170 2198 2226 2254 2282 2310 2338 2366 2394 2422 2450 2478 2506 2534 2590 2618" y="1162">|vs`6101782039190325627`s`1831635281139401706`s`999651015603832711`s`2189607449832211332`&lt;|</text>
<text x="42 70 126 154 182 210 238 266 294 322 350 378 406 434 462 490 518 546 574 602 630 658 686 714 742 770 798 826 854 882 910 938 966 994 1022 1050 1078 1106 1134 1162 1190 1218 1246 1274 1302 1330 1358 1386 1414 1442 1470 1498 1526 1554 1582 1610 1638 1666 1694 1722 1750 1778 1806 1834 1862 1890 1918 1946 1974 2002 2030 2058 2086 2114 2142 2170 2198 2226 2254 2282 2310 2338 2366 2394 2422 2450 2478 2506 2534 2562 2590 2618" y="1190">|&gt;`7627918736691507943`s`3235140750168871028`s`2366569663692517536`s`4274909586627803731`sv|</text>
<text x="42 70 98 126 154 182 210 238 266 294 322 350 378 406 434 462 490 518 546 574 602 630 658 686 714 742 770 798 826 854 882 910 938 966 994 1022 1050 1078 1106 1134 1162 1190 1218 1246 1274 1302 1330 1358 1386 1414 1442 1470 1498 1526 1554 1582 1610 1638 1666 1694 1722 1750 1778 1806 1834 1862 1890 1918 1946 1974 2002 2030 2058 2086 2114 2142 2170 2198 2226 2254 2282 2310 2338 2366 2394 2422 2450 2478 2506 2534 2590 2618" y="1218">|vs`2595095644061206148`s`3696123823302136407`s`1187640830842104774`s`0848863645183064167`&lt;|</text>
<text x="42 70 126 154 182 210 238 266 294 322 350 378 406 434 462 490 518 546 574 602 630 658 686 714 742 770 798 826 854 882 910 938 966 994 1022 1050 1078 1106 1134 1162 1190 1218 1246 1274 1302 1330 1358 1386 1414 1442 1470 1498 1526 1554 1582 1610 1638 1666 1694 1722 1750 1778 1806 1834 1862 1890 1918 1946 1974 2002 2030 2058 2086 2114 2142 2170 2198 2226 2254 2282 2310 2338 2366 2394 2422 2450 2478 2534 2562 2590 2618" y="1246">|&gt;`7336820427535742194`s`7008105894908778226`s`8305151314159811042`s`134994771541047161`sv|</text>
<text x="42 70 98 126 154 182 210 238 266 294 322 350 378 406 434 462 490 518 546 574 602 630 658 686 714 742 770 798 826 854 882 910 938 966 994 1022 1050 1078 1106 1134 1162 1190 1218 1246 1274 1302 1330 1358 1386 1414 1442 1470 1498 1526 1554 1582 1610 1638 1666 1694 1722 1750 1778 1806 1834 1862 1890 1918 1946 1974 2002 2030 2058 2086 2114 2142 2170 2198 2226 2254 2282 2310 2338 2366 2394 2422 2450 2478 2506 2534 2590 2618" y="1274">|vs`5431495520552013507`s`2734686051818252427`s`2843606997734241897`s`2257581759702048267`&lt;|</text>
<text x="42 70 126 154 182 210 238 266 294 322 350 378 406 434 462 490 518 546 574 602 630 658 686 714 742 770 798 826 854 882 910 938 966 994 1022 1050 1078 1106 1134 1162 1190 1218 1246 1274 1302 1330 1358 1386 1414 1442 1470 1498 1526 1554 1582 1610 1638 1666 1694 1722 1750 1778 1806 1834 1862 1890 1918 1946 1974 2002 2030 2058 2086 2114 2142 2170 2198 2226 2254 2282 2310 2338 2366 2394 2422 2450 2478 2506 2534 2562 2590 2618" y="1302">|&gt;`4134517290859917548`s`8280865681399959610`s`5928006346880005223`s`8477607585875048309`sv|</text>
<text x="42 70 98 126 154 182 210 238 266 294 322 350 378 406 434 462 490 518 546 574 602 630 658 686 714 742 770 798 826 854 882 910 938 966 994 1022 1050 1078 1106 1134 1162 1190 1218 1246 1274 1302 1330 1358 1386 1414 1442 1470 1498 1526 1554 1582 1610 1638 1666 1694 1722 1750 1778 1806 1834 1862 1890 1918 1946 1974 2002 2030 2058 2086 2114 2142 2170 2198 2226 2254 2282 2310 2338 2366 2394 2422 2450 2478 2506 2534 2590 2618" y="1330">|vs`4198964280649528632`s`3960300331666643487`s`0040167980122947728`s`6102378876982057728`&lt;|</text>
<text x="42 70 126 154 182 210 238 266 294 322 350 378 406 434 462 490 518 546 574 602 630 658 686 714 742 770 798 826 854 882 910 938 966 994 1022 1050 1078 1106 1134 1162 1190 1218 1246 1274 1302 1330 1358 1386 1414 1442 1470 1498 1526 1554 1582 1610 1638 1666 1694 1722 1750 1778 1806 1834 1862 1890 1918 1946 1974 2002 2030 2058 2086 2114 2142 2170 2198 2226 2254 2282 2310 2338 2366 2394 2422 2450 2478 2506 2534 2562 2590 2618" y="1358">|&gt;`5998992336537563341`s`8427244813062764265`s`3235721394533185391`s`7992067009940271264`sv|</text>
<text x="42 70 98 126 154 182 210 238 266 294 322 350 378 406 434 462 490 518 546 574 602 630 658 686 714 742 770 798 826 854 882 910 938 966 994 1022 1050 1078 1106 1134 1162 1190 1218 1246 1274 1302 1330 1358 1386 1414 1442 1470 1498 1526 1554 1582 1610 1638 1666 1694 1722 1750 1778 1806 1834 1862 1890 1918 1946 1974 2002 2030 2058 2086 2114 2142 2170 2198 2226 2254 2282 2310 2338 2366 2394 2422 2450 2478 2534 2590 2618" y="1386">|vs`0648839104043480374`s`6220475239425842437`s`1444312639096078332`s`904339519591160131`&lt;|</text>
<text x="42 70 126 154 182 210 238 266 294 322 350 378 406 434 462 490 518 546 574 602 630 658 686 714 742 770 798 826 854 882 910 938 966 994 1022 1050 1078 1106 1134 1162 1190 1218 1246 1274 1302 1330 1358 1386 1414 1442 1470 1498 1526 1554 1582 1610 1638 1666 1694 1722 1750 1778 1806 1834 1862 1890 1918 1946 1974 2002 2030 2058 2086 2114 2142 2170 2198 2226 2254 2282 2310 2338 2366 2394 2422 2450 2478 2506 2534 2562 2590 2618" y="1414">|&gt;`7188813349345317152`s`8423854503303558388`s`7550152189891113202`s`7028044249253377897`sv|</text>
<text x="42 70 98 126 154 182 210 238 266 294 322 350 378 406 434 462 490 518 546 574 602 630 658 686 714 742 770 798 826 854 882 910 938 966 994 1022 1050 1078 1106 1134 1162 1190 1218 1246 1274 1302 1330 1358 1386 1414 1442 1470 1498 1526 1554 1582 1610 1638 1666 1694 1722 1750 1778 1806 1834 1862 1890 1918 1946 1974 2002 2030 2058 2086 2114 2142 2170 2198 2226 2254 2282 2310 2338 2366 2394 2422 2450 2478 2506 2534 2590 2618" y="1442">|vs`1193645833274608553`s`7775905204739359067`s`5798249579472986655`s`0556435040138466025`&lt;|</text>
<text x="42 70 126 154 182 210 238 266 294 322 350 378 406 434 462 490 518 546 574 602 630 658 686 714 742 770 798 826 854 882 910 938 966 994 1022 1050 1078 1106 1134 1162 1190 1218 1246 1274 1302 1330 1358 1386 1414 1442 1470 1498 1526 1554 1582 1610 1638 1666 1694 1722 1750 1778 1806 1834 1862 1890 1918 1946 1974 2002 2030 2058 2086 2114 2142 2170 2198 2226 2254 2282 2310 2338 2366 2394 2422 2450 2478 2506 2534 2562 2590 2618" y="1470">|&gt;`3233557452591471921`s`5063316424405574944`s`2338933152241398514`s`7774831160072048737`sv|</text>
<text x="42 70 98 126 154 182 210 238 266 294 322 350 378 406 434 462 490 518 546 574 602 630 658 686 714 742 770 798 826 854 882 910 938 966 994 1022 1050 1078 1106 1134 1162 1190 1218 1246 1274 1302 1330 1358 1386 1414 1442 1470 1498 1526 1554 1582 1610 1638 1666 1694 1722 1750 1778 1806 1834 1862 1890 1918 1946 1974 2002 2030 2058 2086 2114 2142 2170 2198 2226 2254 2282 2310 2338 2366 2394 2422 2450 2478 2506 2534 2590 2618" y="1498">|vs`3333410981568515323`s`7944181654841363148`s`3366460174949029848`s`6507332640589606197`&lt;|</text>
<text x="42 70 126 154 182 210 238 266 294 322 350 378 406 434 462 490 518 546 574 602 630 658 686 714 742 770 798 826 854 882 910 938 966 994 1022 1050 1078 1106 1134 1162 1190 1218 1246 1274 1302 1330 1358 1386 1414 1442 1470 1498 1526 1554 1582 1610 1638 1666 1694 1722 1750 1778 1806 1834 1862 1890 1918 1946 1974 2002 2030 2058 2086 2114 2142 2170 2198 2226 2254 2282 2310 2338 2366 2394 2422 2450 2478 2506 2534 2562 2590 2618" y="1526">|&gt;`8279171108223838496`s`7193151316000766441`s`7335178734428319976`s`8273408296150922980`sv|</text>
<text x="42 70 98 126 154 182 210 238 266 294 322 350 378 406 434 462 490 518 546 574 602 630 658 686 714 742 770 798 826 854 882 910 938 966 994 1022 1050 1078 1106 1134 1162 1190 1218 1246 1274 1302 1330 1358 1386 1414 1442 1470 1498 1526 1554 1582 1610 1638 1666 1694 1722 1750 1778 1806 1834 1862 1890 1918 1946 1974 2002 2030 2058 2086 2114 2142 2170 2198 2226 2254 2282 2310 2338 2366 2394 2422 2450 2478 2506 2534 2590 2618" y="1554">|vs`2515297781534337223`s`2369426983095781728`s`7951336471655353323`s`9065063130117640732`&lt;|</text>
<text x="42 70 126 154 182 210 238 266 294 322 350 378 406 434 462 490 518 546 574 602 630 658 686 714 742 770 798 826 854 882 910 938 966 994 1022 1050 1078 1106 1134 1162 1190 1218 1246 1274 1302 1330 1358 1386 1414 1442 1470 1498 1526 1554 1582 1610 1638 1666 1694 1722 1750 1778 1806 1834 1862 1890 1918 1946 1974 2002 2030 2058 2086 2114 2142 2170 2198 2226 2254 2282 2310 2338 2366 2394 2422 2450 2478 2506 2534 2562 2590 2618" y="1582">|&gt;`8064061302604767392`s`4918374403416997106`s`7771390765637991265`s`3630677082547845477`sv|</text>
<text x="42 70 98 126 154 182 210 238 266 294 322 350 378 406 434 462 490 518 546 574 602 630 658 686 714 742 770 798 826 854 882 910 938 966 994 1022 1050 1078 1106 1134 1162 1190 1218 1246 1302 1330 1358 1386 1414 1442 1470 1498 1526 1554 1582 1610 1638 1666 1694 1722 1750 1778 1806 1834 1862 1890 1918 1946 1974 2002 2030 2058 2086 2114 2142 2170 2198 2226 2254 2282 2310 2338 2366 2394 2422 2450 2478 2506 2534 2590 2618" y="1610">|vs`2044005505103712517`s`106548906636497821`s`3244434582978466197`s`4769723852070268407`&lt;|</text>
<text x="42 70 126 154 182 210 238 266 294 322 350 378 406 434 462 490 518 546 574 602 630 686 714 742 770 798 826 854 882 910 938 966 994 1022 1050 1078 1106 1134 1162 1190 1218 1246 1274 1302 1330 1358 1386 1414 1442 1470 1498 1526 1554 1582 1610 1638 1666 1694 1722 1750 1778 1806 1834 1862 1890 1918 1946 1974 2002 2030 2058 2086 2114 2142 2170 2198 2226 2254 2282 2310 2338 2366 2394 2422 2450 2478 2506 2534 2562 2590 2618" y="1638">|&gt;`129426843619654511`s`7989288595885815538`s`7627874708320137376`s`7340228638843352046`sv|</text>
<text x="42 70 98 126 154 182 210 238 266 294 322 350 378 406 434 462 490 518 546 574 602 630 658 686 714 742 770 798 826 854 882 910 938 966 994 1022 1050 1078 1106 1134 1162 1190 1218 1246 1274 1302 1330 1358 1386 1414 1442 1470 1498 1526 1554 1582 1610 1638 1666 1694 1722 1750 1778 1806 1834 1862 1890 1918 1946 1974 2002 2030 2058 2086 2114 2142 2170 2198 2226 2254 2282 2310 2338 2366 2394 2422 2450 2478 2506 2534 2590 2618" y="1666">|vs`2665544559792583878`s`8320259019126108508`s`3403631182575754857`s`0095076684239529897`&lt;|</text>
<text x="42 70 126 154 182 210 238 266 294 322 350 378 406 434 462 490 518 546 574 602 630 658 686 714 742 770 798 826 854 882 910 938 966 994 1022 1050 1078 1106 1134 1162 1190 1218 1246 1274 1302 1330 1358 1386 1414 1442 1470 1498 1526 1554 1582 1610 1638 1666 1694 1722 1750 1778 1806 1834 1862 1918 1946 1974 2002 2030 2058 2086 2114 2142 2170 2198 2226 2254 2282 2310 2338 2366 2394 2422 2450 2478 2534 2562 2590 2618" y="1694">|&gt;`4922576329535748723`s`7407245571239998693`s`132178220166100833`s`138284507950823265`sv|</text>
<text x="42 70 98 126 154 182 210 238 266 294 322 350 378 406 434 462 490 518 546 574 602 630 658 686 714 742 770 798 826 854 882 910 938 966 994 1022 1050 1078 1106 1134 1162 1190 1218 1246 1274 1302 1330 1358 1386 1414 1442 1470 1498 1526 1554 1582 1610 1638 1666 1694 1722 1750 1778 1806 1834 1862 1890 1918 1946 1974 2002 2030 2058 2086 2114 2142 2170 2198 2226 2254 2282 2310 2338 2366 2394 2422 2450 2478 2506 2534 2590 2618" y="1722">|vs`3130271357850636484`s`4078208714249899558`s`9136026628393075323`s`1394916059168187387`&lt;|</text>
<text x="42 70 126 154 182 210 238 266 294 322 350 378 406 434 462 490 518 546 574 602 630 658 686 714 742 770 798 826 854 882 910 938 966 994 1022 1050 1078 1106 1134 1162 1190 1218 1246 1274 1302 1330 1358 1386 1414 1442 1470 1498 1526 1554 1582 1610 1638 1666 1694 1722 1750 1778 1806 1834 1862 1890 1918 1946 1974 2002 2030 2058 2086 2114 2142 2170 2198 2226 2254 2282 2310 2338 2366 2394 2422 2450 2478 2506 2534 2562 2590 2618" y="1750">|&gt;`7839538931203002414`s`8557702435707572332`s`8271889678591341161`s`3702734676585773541`sv|</text>
<text x="42 70 98 126 154 182 210 238 266 294 322 350 378 406 434 462 490 518 546 574 602 630 658 686 714 742 770 798 826 854 882 910 938 966 994 1022 1050 1078 1106 1134 1162 1190 1218 1246 1274 1302 1330 1358 1386 1414 1442 1470 1498 1526 1554 1582 1610 1638 1666 1694 1722 1750 1778 1806 1834 1862 1890 1918 1946 1974 2002 2030 2058 2086 2114 2142 2170 2198 2226 2254 2282 2310 2338 2366 2394 2422 2450 2478 2506 2534 2590 2618" y="1778">|vs`8634585485726108508`s`4728396769457421538`s`2726457033272082432`s`6453051452380592323`&lt;|</text>
<text x="42 70 126 154 182 210 238 266 294 322 350 378 406 434 462 490 518 546 574 602 630 658 686 714 742 770 798 826 854 882 910 938 966 994 1022 1050 1078 1106 1134 1162 1190 1218 1246 1274 1302 1330 1358 1386 1414 1442 1470 1498 1526 1554 1582 1610 1638 1666 1694 1722 1750 1778 1806 1834 1862 1890 1918 1946 1974 2002 2030 2058 2086 2114 2142 2170 2198 2226 2254 2282 2310 2338 2366 2394 2422 2450 2478 2534 2562 2590 2618" y="1806">|&gt;`2362568209771008366`s`5998992160982790347`s`7339059205368198881`s`116111893598836345`sv|</text>
<text x="42 70 98 126 154 182 210 238 266 294 322 350 378 406 434 462 490 518 546 574 602 630 658 686 714 742 770 798 826 854 882 910 938 966 994 1022 1050 1078 1106 1134 1162 1190 1218 1246 1274 1302 1330 1358 1386 1414 1442 1470 1498 1526 1554 1582 1610 1638 1666 1694 1722 1750 1778 1806 1834 1862 1890 1918 1946 1974 2002 2030 2058 2086 2114 2142 2170 2198 2226 2254 2282 2310 2338 2366 2394 2422 2450 2478 2506 2534 2590 2618" y="1834">|vs`3753635617753413627`s`0108516708156104217`s`8522073260722974773`s`7582862883626535748`&lt;|</text>
<text x="42 70 126 154 182 210 238 266 294 322 350 378 406 434 462 490 518 546 574 602 630 658 686 714 742 770 798 826 854 882 910 938 966 994 1022 1050 1078 1106 1134 1162 1190 1218 1246 1302 1330 1358 1386 1414 1442 1470 1498 1526 1554 1582 1610 1638 1666 1694 1722 1750 1778 1806 1834 1862 1890 1918 1946 1974 2002 2030 2058 2086 2114 2142 2170 2198 2226 2254 2282 2310 2338 2366 2394 2422 2450 2478 2506 2534 2562 2590 2618" y="1862">|&gt;`7985897182442567525`s`140545105191335653`s`5206666387922940656`s`2900471433664330209`sv|</text>
<text x="42 70 98 126 154 182 210 238 266 294 322 350 378 406 434 462 490 518 546 574 602 630 658 686 714 742 770 798 826 854 882 910 938 966 994 1022 1050 1078 1106 1134 1162 1190 1218 1246 1274 1302 1330 1358 1386 1414 1442 1470 1498 1526 1554 1582 1610 1638 1666 1694 1722 1750 1778 1806 1834 1862 1890 1918 1946 1974 2002 2030 2058 2086 2114 2142 2170 2198 2226 2254 2282 2310 2338 2366 2394 2422 2450 2478 2506 2534 2590 2618" y="1890">|vs`4870140717610970535`s`0348868079930871323`s`5658006150950384945`s`4589738876042057608`&lt;|</text>
<text x="42 70 126 154 182 210 238 266 294 322 350 378 406 434 462 490 518 546 574 602 630 658 686 714 742 770 798 826 854 882 910 938 966 994 1022 1050 1078 1106 1134 1162 1190 1218 1246 1274 1302 1330 1358 1386 1414 1442 1470 1498 1526 1554 1582 1610 1638 1666 1694 1722 1750 1778 1806 1834 1862 1890 1918 1946 1974 2002 2030 2058 2086 2114 2142 2170 2198 2226 2254 2282 2310 2338 2366 2394 2422 2450 2478 2506 2534 2562 2590 2618" y="1918">|&gt;`7913687673934131432`s`8767527293460200041`s`3235739192943949044`s`8060219138676338848`sv|</text>
<text x="42 70 98 126 154 182 210 238 266 294 322 350 378 406 434 462 490 518 546 574 602 630 686 714 742 770 798 826 854 882 910 938 966 994 1022 1050 1078 1106 1134 1162 1190 1218 1246 1274 1302 1330 1358 1386 1414 1442 1470 1498 1526 1554 1582 1610 1638 1666 1694 1722 1750 1778 1806 1834 1862 1890 1918 1946 1974 2002 2030 2058 2086 2114 2142 2170 2198 2226 2254 2282 2310 2338 2366 2394 2422 2450 2478 2506 2534 2590 2618" y="1946">|vs`387089590175453901`s`0080372978785506917`s`2233103894205511263`s`6212039618248005033`&lt;|</text>
<text x="42 70 126 154 182 210 238 266 294 322 350 378 406 434 462 490 518 546 574 602 630 658 686 714 742 770 798 826 854 882 910 938 966 994 1022 1050 1078 1106 1134 1162 1190 1218 1246 1274 1302 1330 1358 1386 1414 1442 1470 1498 1526 1554 1582 1610 1638 1666 1694 1722 1750 1778 1806 1834 1862 1890 1918 1946 1974 2002 2030 2058 2086 2114 2142 2170 2198 2226 2254 2282 2310 2338 2366 2394 2422 2450 2478 2506 2534 2562 2590 2618" y="1974">|&gt;`7046312033283216963`s`7151915240432357664`s`7872735758972975471`s`7992345204921037423`sv|</text>
<text x="42 70 98 126 154 182 210 238 266 294 322 350 378 406 434 462 490 518 546 574 602 630 658 686 714 742 770 798 826 854 882 910 938 966 994 1022 1050 1078 1106 1134 1162 1190 1218 1246 1274 1302 1330 1358 1386 1414 1442 1470 1498 1526 1554 1582 1610 1638 1666 1694 1722 1750 1778 1806 1834 1862 1890 1918 1946 1974 2002 2030 2058 2086 2114 2142 2170 2198 2226 2254 2282 2310 2338 2366 2394 2422 2450 2534 2590 2618" y="2002">|vs`8834290443319640092`s`5294746603029989508`s`5603117655615293248`s`50581588388599679`&lt;|</text>
<text x="42 70 126 154 182 210 238 266 294 322 350 378 406 434 462 490 518 546 574 602 630 658 686 714 742 770 798 826 854 882 910 938 966 994 1022 1050 1078 1106 1134 1162 1190 1218 1246 1274 1302 1330 1358 1386 1414 1442 1470 1498 1526 1554 1582 1610 1638 1666 1694 1722 1750 1778 1806 1834 1862 1890 1918 1946 1974 2002 2030 2058 2086 2114 2142 2170 2198 2226 2254 2282 2310 2338 2366 2394 2422 2450 2478 2506 2534 2562 2590 2618" y="2030">|&gt;`5927246245215680321`s`4274935939448240623`s`7033639462998120736`s`7981437423689871602`sv|</text>
<text x="42 70 98 126 154 182 210 238 266 294 322 350 378 406 434 462 490 518 546 574 602 630 658 686 714 742 770 798 826 854 882 910 938 966 994 1022 1050 1078 1106 1134 1162 1190 1218 1246 1274 1302 1330 1358 1386 1414 1442 1470 1498 1526 1554 1582 1610 1638 1666 1694 1722 1750 1778 1806 1834 1862 1890 1918 1946 1974 2002 2030 2058 2086 2114 2142 2170 2198 2226 2254 2282 2310 2338 2366 2394 2422 2450 2478 2506 2534 2590 2618" y="2058">|vs`0054851427229375323`s`7037135577271509995`s`8692076825752132545`s`5917683427131280175`&lt;|</text>
<text x="42 70 126 154 182 210 238 266 294 322 350 378 406 434 462 490 518 546 574 602 630 658 686 714 742 770 798 826 854 882 910 938 966 994 1022 1050 1078 1106 1134 1162 1190 1218 1246 1274 1302 1330 1358 1386 1414 1442 1470 1498 1526 1554 1582 1610 1638 1666 1694 1722 1750 1778 1806 1834 1862 1890 1918 1946 1974 2002 2030 2058 2086 2114 2142 2170 2198 2226 2254 2282 2310 2338 2366 2394 2422 2450 2478 2506 2534 2562 2590 2618" y="2086">|&gt;`4288357762331829920`s`7315114440514083104`s`8271737038476834418`s`3630122317591064813`sv|</text>
<text x="42 70 98 126 154 182 210 238 266 294 322 350 378 406 434 462 490 518 546 574 602 630 658 686 714 742 770 798 826 854 882 910 938 966 994 1022 1050 1078 1106 1134 1162 1190 1218 1246 1274 1302 1330 1358 1386 1414 1442 1470 1498 1526 1554 1582 1610 1638 1666 1694 1722 1750 1778 1806 1834 1862 1890 1918 1946 1974 2002 2030 2058 2086 2114 2142 2170 2198 2226 2254 2282 2310 2338 2366 2394 2422 2450 2478 2506 2534 2590 2618" y="2114">|vs`0981965903205511263`s`8605891847052562367`s`6581606127334136735`s`4475841153456336778`&lt;|</text>
<text x="42 70 126 154 182 210 238 266 294 322 350 378 406 434 462 490 518 546 574 602 630 658 686 714 742 770 798 826 854 882 910 938 966 994 1022 1050 1078 1106 1134 1162 1190 1218 1246 1274 1302 1330 1358 1386 1414 1442 1470 1498 1526 1554 1582 1610 1638 1666 1694 1722 1750 1778 1806 1834 1862 1890 1918 1946 1974 2002 2030 2058 2086 2114 2142 2170 2198 2226 2254 2282 2310 2338 2366 2394 2422 2450 2478 2506 2534 2562 2590 2618" y="2142">|&gt;`7695391869002078512`s`8425037096654976997`s`2900748271707410536`s`4274957349897942262`sv|</text>
<text x="42 70 98 126 154 182 210 238 266 294 322 350 378 406 434 462 490 518 546 574 602 630 658 686 714 742 770 798 826 854 882 910 938 966 994 1022 1050 1078 1106 1134 1162 1190 1218 1246 1274 1302 1330 1358 1386 1414 1442 1470 1498 1526 1554 1582 1610 1638 1666 1694 1722 1750 1778 1806 1834 1862 1890 1918 1946 1974 2002 2030 2058 2086 2114 2142 2170 2198 2226 2254 2282 2310 2338 2366 2394 2422 2450 2478 2506 2534 2590 2618" y="2170">|vs`4289273118854864237`s`1149775355979646034`s`5278439053223401332`s`4684890638091301867`&lt;|</text>
<text x="42 70 126 154 182 210 238 266 294 322 350 378 406 434 462 490 518 546 574 602 630 658 686 714 742 770 798 826 854 882 910 938 966 994 1022 1050 1078 1106 1134 1162 1190 1218 1246 1274 1302 1330 1358 1386 1414 1442 1470 1498 1526 1554 1582 1610 1638 1666 1694 1722 1750 1778 1806 1834 1862 1890 1918 1946 1974 2002 2030 2058 2086 2114 2142 2170 2198 2226 2254 2282 2310 2338 2366 2394 2422 2450 2478 2534 2562 2590 2618" y="2198">|&gt;`4732862535070202465`s`3487054793828290604`s`7981420107187264050`s`105807542052081708`sv|</text>
<text x="42 70 98 126 154 182 210 238 266 294 322 350 378 406 434 462 490 518 546 574 602 630 686 714 742 770 798 826 854 882 910 938 966 994 1022 1050 1078 1106 1134 1162 1190 1218 1246 1302 1330 1358 1386 1414 1442 1470 1498 1526 1554 1582 1610 1638 1666 1694 1722 1750 1778 1806 1834 1862 1918 1946 1974 2002 2030 2058 2086 2114 2142 2170 2198 2226 2254 2282 2310 2338 2366 2394 2422 2450 2478 2534 2590 2618" y="2226">|vs`579087346429714001`s`400902531861835531`s`507106638067024921`s`631708758481529811`&lt;|</text>
<text x="42 70 126 154 182 210 238 266 294 322 350 378 406 434 462 490 518 546 574 602 630 686 714 742 770 798 826 854 882 910 938 966 994 1022 1050 1078 1106 1134 1162 1190 1218 1302 1330 1358 1386 1414 1442 1470 1498 1526 1554 1582 1610 1638 1666 1694 1722 1750 1778 1806 1834 1862 1918 1946 1974 2618" y="2254">|&gt;`127129000058821942`s`97336804335431918`s`181074902169920672`sH|</text>
<text x="42 70 98 126 154 182 210 238 266 294 322 350 378 406 434 462 490 518 546 574 602 630 658 686 714 742 770 798 826 854 882 910 938 966 994 1022 1050 1078 1106 1134 1162 1190 1218 1246 1274 1302 1330 1358 1386 1414 1442 1470 1498 1526 1554 1582 1610 1638 1666 1694 1722 1750 1778 1806 1834 1862 1890 1918 1946 1974 2002 2030 2058 2086 2114 2142 2170 2198 2226 2254 2282 2310 2338 2366 2394 2422 2450 2478 2506 2534 2562 2590 2618" y="2282">+-------------------------------------------------------------------------------------------+</text>
<text x="126" y="2310">v</text>
<text x="126 798 826 854 882 910 938 966 994 1022" y="2338">v&gt;&gt;&gt;&gt;&gt;&gt;&gt;&gt;v</text>
<text x="126 798 1022" y="2366">v^v</text>
<text x="42 70 98 126 154 182 210 238 266 294 322 350 378 406 434 462 490 518 546 574 602 630 658 686 714 742 770 798 826 854 1022" y="2394">+----------------------------+v</text>
<text x="42 742 770 798 826 854 1022" y="2422">|&gt;Wsv|v</text>
<text x="42 70 98 126 154 182 210 238 266 294 322 350 378 406 434 462 490 518 546 574 602 630 658 686 714 742 826 854 1022" y="2450">|&gt;@rM8bW&gt;M`128`W/WsWmdM2-Xv|v</text>
<text x="42 266 630 742 826 854 994 1022 1050" y="2478">|^&lt;&gt;v|+-+</text>
<text x="42 70 826 854 994 1022 1050" y="2506">|^&lt;||O|</text>
<text x="42 70 98 126 154 182 210 238 266 294 322 350 378 406 434 462 490 518 546 574 602 630 658 686 714 742 770 798 826 854 994 1022 1050" y="2534">+----------------------------++-+</text>
</g>
</svg>
