<?xml version="1.0" encoding="UTF-8"?>
<svg xmlns="http://www.w3.org/2000/svg" width="2016" height="2912" viewBox="0 0 2016 2912" role="img" aria-label="Little Man program, 72 by 104 cells">
<rect width="2016" height="2912" fill="#d6d3d1"/>
<g shape-rendering="crispEdges">
<path fill="#a5b4fc" d="M28 28h196v28h-196zM532 28h364v28h-364zM28 56h28v28h-28zM868 56h28v28h-28zM28 84h28v28h-28zM28 112h28v28h-28zM28 140h28v28h-28zM1848 140h56v28h-56zM28 168h28v28h-28zM1148 168h532v28h-532zM28 196h28v28h-28zM1736 196h28v28h-28zM28 224h28v28h-28zM1736 224h28v28h-28zM28 252h28v28h-28zM140 252h28v28h-28zM1736 252h28v28h-28zM28 280h28v28h-28zM140 280h28v28h-28zM28 308h28v28h-28zM1624 308h84v28h-84zM28 336h28v28h-28zM28 364h28v28h-28zM252 364h56v28h-56zM504 364h56v28h-56zM28 392h28v28h-28zM1148 392h56v28h-56zM1624 392h56v28h-56zM28 420h28v28h-28zM1652 420h28v28h-28zM28 448h28v28h-28zM1652 448h28v28h-28zM1736 448h28v28h-28zM28 476h28v28h-28zM252 476h56v28h-56zM504 476h56v28h-56zM1652 476h28v28h-28zM1736 476h28v28h-28zM28 504h28v28h-28zM1148 504h56v28h-56zM1652 504h28v28h-28zM1736 504h28v28h-28zM28 532h28v28h-28zM1652 532h28v28h-28zM1736 532h28v28h-28zM28 560h28v28h-28zM1652 560h28v28h-28zM1736 560h28v28h-28zM28 588h28v28h-28zM252 588h56v28h-56zM504 588h56v28h-56zM1652 588h28v28h-28zM1736 588h28v28h-28zM28 616h28v28h-28zM1148 616h56v28h-56zM1652 616h28v28h-28zM1736 616h28v28h-28zM28 644h28v28h-28zM1652 644h28v28h-28zM1736 644h28v28h-28zM28 672h28v28h-28zM1652 672h112v28h-112zM28 700h28v28h-28zM252 700h56v28h-56zM504 700h56v28h-56zM28 728h28v28h-28zM1148 728h56v28h-56zM28 756h28v28h-28zM28 784h28v28h-28zM28 812h28v28h-28zM252 812h56v28h-56zM504 812h56v28h-56zM28 840h28v28h-28zM1148 840h56v28h-56zM28 868h28v28h-28zM28 896h28v28h-28zM28 924h28v28h-28zM252 924h56v28h-56zM504 924h56v28h-56zM28 952h28v28h-28zM1148 952h56v28h-56zM28 980h28v28h-28zM28 1008h28v28h-28zM28 1036h28v28h-28zM252 1036h56v28h-56zM504 1036h56v28h-56zM28 1064h28v28h-28zM1148 1064h56v28h-56zM28 1092h28v28h-28zM28 1120h28v28h-28zM28 1148h28v28h-28zM252 1148h56v28h-56zM504 1148h56v28h-56zM28 1176h28v28h-28zM1148 1176h56v28h-56zM28 1204h28v28h-28zM28 1232h28v28h-28zM28 1260h28v28h-28zM252 1260h56v28h-56zM504 1260h56v28h-56zM28 1288h28v28h-28zM1148 1288h56v28h-56zM28 1316h28v28h-28zM28 1344h28v28h-28zM28 1372h28v28h-28zM252 1372h56v28h-56zM504 1372h56v28h-56zM28 1400h28v28h-28zM1148 1400h56v28h-56zM28 1428h28v28h-28zM28 1456h28v28h-28zM28 1484h28v28h-28zM252 1484h56v28h-56zM504 1484h56v28h-56zM28 1512h28v28h-28zM1148 1512h56v28h-56zM28 1540h28v28h-28zM28 1568h28v28h-28zM28 1596h28v28h-28zM252 1596h56v28h-56zM504 1596h56v28h-56zM28 1624h28v28h-28zM1148 1624h56v28h-56zM28 1652h28v28h-28zM28 1680h28v28h-28zM28 1708h28v28h-28zM252 1708h56v28h-56zM504 1708h56v28h-56zM28 1736h28v28h-28zM1148 1736h56v28h-56zM28 1764h28v28h-28zM28 1792h28v28h-28zM28 1820h28v28h-28zM252 1820h56v28h-56zM504 1820h56v28h-56zM28 1848h28v28h-28zM1148 1848h56v28h-56zM28 1876h28v28h-28zM28 1904h28v28h-28zM28 1932h28v28h-28zM252 1932h56v28h-56zM504 1932h56v28h-56zM28 1960h28v28h-28zM1148 1960h56v28h-56zM28 1988h28v28h-28zM28 2016h28v28h-28zM28 2044h28v28h-28zM252 2044h56v28h-56zM504 2044h56v28h-56zM28 2072h28v28h-28zM1148 2072h56v28h-56zM28 2100h28v28h-28zM28 2128h28v28h-28zM28 2156h28v28h-28zM252 2156h56v28h-56zM504 2156h56v28h-56zM28 2184h28v28h-28zM1148 2184h56v28h-56zM28 2212h28v28h-28zM28 2240h28v28h-28zM28 2268h28v28h-28zM252 2268h56v28h-56zM504 2268h56v28h-56zM28 2296h28v28h-28zM1148 2296h56v28h-56zM28 2324h28v28h-28zM28 2352h28v28h-28zM28 2380h28v28h-28zM252 2380h56v28h-56zM504 2380h56v28h-56zM28 2408h28v28h-28zM1148 2408h56v28h-56zM28 2436h28v28h-28zM28 2464h28v28h-28zM28 2492h28v28h-28zM252 2492h56v28h-56zM504 2492h56v28h-56zM28 2520h28v28h-28zM1148 2520h56v28h-56zM28 2548h28v28h-28zM28 2576h28v28h-28zM28 2604h28v28h-28zM252 2604h56v28h-56zM504 2604h56v28h-56zM28 2632h28v28h-28zM28 2660h28v28h-28zM28 2688h28v28h-28zM28 2716h28v28h-28zM28 2744h28v28h-28zM28 2772h28v28h-28zM28 2800h28v28h-28zM28 2828h28v28h-28zM140 2828h28v28h-28zM28 2856h140v28h-140z"/>
<path fill="#6366f1" d="M224 28h308v28h-308zM224 56h28v28h-28zM504 56h28v28h-28zM224 84h28v28h-28zM504 84h28v28h-28zM560 84h588v28h-588zM1680 84h168v28h-168zM224 112h308v28h-308zM560 112h28v28h-28zM1120 112h28v28h-28zM1680 112h28v28h-28zM1820 112h28v28h-28zM560 140h28v28h-28zM1120 140h28v28h-28zM1680 140h28v28h-28zM1820 140h28v28h-28zM560 168h28v28h-28zM1120 168h28v28h-28zM1680 168h168v28h-168zM560 196h28v28h-28zM1120 196h28v28h-28zM560 224h28v28h-28zM1120 224h28v28h-28zM560 252h28v28h-28zM1120 252h28v28h-28zM560 280h28v28h-28zM1120 280h28v28h-28zM1204 280h420v28h-420zM1708 280h168v28h-168zM56 308h196v28h-196zM560 308h28v28h-28zM1120 308h28v28h-28zM1204 308h28v28h-28zM1596 308h28v28h-28zM1708 308h28v28h-28zM1848 308h28v28h-28zM56 336h28v28h-28zM224 336h28v28h-28zM308 336h196v28h-196zM560 336h28v28h-28zM1120 336h28v28h-28zM1204 336h28v28h-28zM1596 336h28v28h-28zM1708 336h28v28h-28zM1848 336h28v28h-28zM56 364h28v28h-28zM224 364h28v28h-28zM308 364h28v28h-28zM476 364h28v28h-28zM560 364h28v28h-28zM1120 364h28v28h-28zM1204 364h28v28h-28zM1596 364h28v28h-28zM1708 364h28v28h-28zM1848 364h28v28h-28zM56 392h28v28h-28zM224 392h28v28h-28zM308 392h28v28h-28zM476 392h28v28h-28zM560 392h28v28h-28zM1120 392h28v28h-28zM1204 392h28v28h-28zM1596 392h28v28h-28zM1708 392h28v28h-28zM1848 392h28v28h-28zM56 420h28v28h-28zM224 420h28v28h-28zM308 420h196v28h-196zM560 420h28v28h-28zM1120 420h28v28h-28zM1204 420h28v28h-28zM1596 420h28v28h-28zM1708 420h168v28h-168zM56 448h28v28h-28zM224 448h28v28h-28zM308 448h196v28h-196zM560 448h28v28h-28zM1120 448h28v28h-28zM1204 448h28v28h-28zM1596 448h28v28h-28zM56 476h28v28h-28zM224 476h28v28h-28zM308 476h28v28h-28zM476 476h28v28h-28zM560 476h28v28h-28zM1120 476h28v28h-28zM1204 476h28v28h-28zM1596 476h28v28h-28zM56 504h28v28h-28zM224 504h28v28h-28zM308 504h28v28h-28zM476 504h28v28h-28zM560 504h28v28h-28zM1120 504h28v28h-28zM1204 504h28v28h-28zM1596 504h28v28h-28zM56 532h28v28h-28zM224 532h28v28h-28zM308 532h196v28h-196zM560 532h28v28h-28zM1120 532h28v28h-28zM1204 532h28v28h-28zM1596 532h28v28h-28zM56 560h28v28h-28zM224 560h28v28h-28zM308 560h196v28h-196zM560 560h28v28h-28zM1120 560h28v28h-28zM1204 560h28v28h-28zM1596 560h28v28h-28zM56 588h28v28h-28zM224 588h28v28h-28zM308 588h28v28h-28zM476 588h28v28h-28zM560 588h28v28h-28zM1120 588h28v28h-28zM1204 588h28v28h-28zM1596 588h28v28h-28zM56 616h28v28h-28zM224 616h28v28h-28zM308 616h28v28h-28zM476 616h28v28h-28zM560 616h28v28h-28zM1120 616h28v28h-28zM1204 616h28v28h-28zM1596 616h28v28h-28zM56 644h28v28h-28zM224 644h28v28h-28zM308 644h196v28h-196zM560 644h28v28h-28zM1120 644h28v28h-28zM1204 644h28v28h-28zM1596 644h28v28h-28zM56 672h28v28h-28zM224 672h28v28h-28zM308 672h196v28h-196zM560 672h28v28h-28zM1120 672h28v28h-28zM1204 672h28v28h-28zM1596 672h28v28h-28zM56 700h28v28h-28zM224 700h28v28h-28zM308 700h28v28h-28zM476 700h28v28h-28zM560 700h28v28h-28zM1120 700h28v28h-28zM1204 700h28v28h-28zM1596 700h28v28h-28zM56 728h28v28h-28zM224 728h28v28h-28zM308 728h28v28h-28zM476 728h28v28h-28zM560 728h28v28h-28zM1120 728h28v28h-28zM1204 728h28v28h-28zM1596 728h28v28h-28zM56 756h28v28h-28zM224 756h28v28h-28zM308 756h196v28h-196zM560 756h28v28h-28zM1120 756h28v28h-28zM1204 756h28v28h-28zM1596 756h28v28h-28zM56 784h28v28h-28zM224 784h28v28h-28zM308 784h196v28h-196zM560 784h28v28h-28zM1120 784h28v28h-28zM1204 784h28v28h-28zM1596 784h28v28h-28zM56 812h28v28h-28zM224 812h28v28h-28zM308 812h28v28h-28zM476 812h28v28h-28zM560 812h28v28h-28zM1120 812h28v28h-28zM1204 812h28v28h-28zM1596 812h28v28h-28zM56 840h28v28h-28zM224 840h28v28h-28zM308 840h28v28h-28zM476 840h28v28h-28zM560 840h28v28h-28zM1120 840h28v28h-28zM1204 840h28v28h-28zM1596 840h28v28h-28zM56 868h28v28h-28zM224 868h28v28h-28zM308 868h196v28h-196zM560 868h28v28h-28zM1120 868h28v28h-28zM1204 868h28v28h-28zM1596 868h28v28h-28zM56 896h28v28h-28zM224 896h28v28h-28zM308 896h196v28h-196zM560 896h28v28h-28zM1120 896h28v28h-28zM1204 896h28v28h-28zM1596 896h28v28h-28zM56 924h28v28h-28zM224 924h28v28h-28zM308 924h28v28h-28zM476 924h28v28h-28zM560 924h28v28h-28zM1120 924h28v28h-28zM1204 924h28v28h-28zM1596 924h28v28h-28zM56 952h28v28h-28zM224 952h28v28h-28zM308 952h28v28h-28zM476 952h28v28h-28zM560 952h28v28h-28zM1120 952h28v28h-28zM1204 952h28v28h-28zM1596 952h28v28h-28zM56 980h28v28h-28zM224 980h28v28h-28zM308 980h196v28h-196zM560 980h28v28h-28zM1120 980h28v28h-28zM1204 980h28v28h-28zM1596 980h28v28h-28zM56 1008h28v28h-28zM224 1008h28v28h-28zM308 1008h196v28h-196zM560 1008h28v28h-28zM1120 1008h28v28h-28zM1204 1008h28v28h-28zM1596 1008h28v28h-28zM56 1036h28v28h-28zM224 1036h28v28h-28zM308 1036h28v28h-28zM476 1036h28v28h-28zM560 1036h28v28h-28zM1120 1036h28v28h-28zM1204 1036h28v28h-28zM1596 1036h28v28h-28zM56 1064h28v28h-28zM224 1064h28v28h-28zM308 1064h28v28h-28zM476 1064h28v28h-28zM560 1064h28v28h-28zM1120 1064h28v28h-28zM1204 1064h28v28h-28zM1596 1064h28v28h-28zM56 1092h28v28h-28zM224 1092h28v28h-28zM308 1092h196v28h-196zM560 1092h28v28h-28zM1120 1092h28v28h-28zM1204 1092h28v28h-28zM1596 1092h28v28h-28zM56 1120h28v28h-28zM224 1120h28v28h-28zM308 1120h196v28h-196zM560 1120h28v28h-28zM1120 1120h28v28h-28zM1204 1120h28v28h-28zM1596 1120h28v28h-28zM56 1148h28v28h-28zM224 1148h28v28h-28zM308 1148h28v28h-28zM476 1148h28v28h-28zM560 1148h28v28h-28zM1120 1148h28v28h-28zM1204 1148h28v28h-28zM1596 1148h28v28h-28zM56 1176h28v28h-28zM224 1176h28v28h-28zM308 1176h28v28h-28zM476 1176h28v28h-28zM560 1176h28v28h-28zM1120 1176h28v28h-28zM1204 1176h28v28h-28zM1596 1176h28v28h-28zM56 1204h28v28h-28zM224 1204h28v28h-28zM308 1204h196v28h-196zM560 1204h28v28h-28zM1120 1204h28v28h-28zM1204 1204h28v28h-28zM1596 1204h28v28h-28zM56 1232h28v28h-28zM224 1232h28v28h-28zM308 1232h196v28h-196zM560 1232h28v28h-28zM1120 1232h28v28h-28zM1204 1232h28v28h-28zM1596 1232h28v28h-28zM56 1260h28v28h-28zM224 1260h28v28h-28zM308 1260h28v28h-28zM476 1260h28v28h-28zM560 1260h28v28h-28zM1120 1260h28v28h-28zM1204 1260h28v28h-28zM1596 1260h28v28h-28zM56 1288h28v28h-28zM224 1288h28v28h-28zM308 1288h28v28h-28zM476 1288h28v28h-28zM560 1288h28v28h-28zM1120 1288h28v28h-28zM1204 1288h28v28h-28zM1596 1288h28v28h-28zM56 1316h28v28h-28zM224 1316h28v28h-28zM308 1316h196v28h-196zM560 1316h28v28h-28zM1120 1316h28v28h-28zM1204 1316h28v28h-28zM1596 1316h28v28h-28zM56 1344h28v28h-28zM224 1344h28v28h-28zM308 1344h196v28h-196zM560 1344h28v28h-28zM1120 1344h28v28h-28zM1204 1344h28v28h-28zM1596 1344h28v28h-28zM56 1372h28v28h-28zM224 1372h28v28h-28zM308 1372h28v28h-28zM476 1372h28v28h-28zM560 1372h28v28h-28zM1120 1372h28v28h-28zM1204 1372h28v28h-28zM1596 1372h28v28h-28zM56 1400h28v28h-28zM224 1400h28v28h-28zM308 1400h28v28h-28zM476 1400h28v28h-28zM560 1400h28v28h-28zM1120 1400h28v28h-28zM1204 1400h28v28h-28zM1596 1400h28v28h-28zM56 1428h28v28h-28zM224 1428h28v28h-28zM308 1428h196v28h-196zM560 1428h28v28h-28zM1120 1428h28v28h-28zM1204 1428h28v28h-28zM1596 1428h28v28h-28zM56 1456h28v28h-28zM224 1456h28v28h-28zM308 1456h196v28h-196zM560 1456h28v28h-28zM1120 1456h28v28h-28zM1204 1456h28v28h-28zM1596 1456h28v28h-28zM56 1484h28v28h-28zM224 1484h28v28h-28zM308 1484h28v28h-28zM476 1484h28v28h-28zM560 1484h28v28h-28zM1120 1484h28v28h-28zM1204 1484h28v28h-28zM1596 1484h28v28h-28zM56 1512h28v28h-28zM224 1512h28v28h-28zM308 1512h28v28h-28zM476 1512h28v28h-28zM560 1512h28v28h-28zM1120 1512h28v28h-28zM1204 1512h28v28h-28zM1596 1512h28v28h-28zM56 1540h28v28h-28zM224 1540h28v28h-28zM308 1540h196v28h-196zM560 1540h28v28h-28zM1120 1540h28v28h-28zM1204 1540h28v28h-28zM1596 1540h28v28h-28zM56 1568h28v28h-28zM224 1568h28v28h-28zM308 1568h196v28h-196zM560 1568h28v28h-28zM1120 1568h28v28h-28zM1204 1568h28v28h-28zM1596 1568h28v28h-28zM56 1596h28v28h-28zM224 1596h28v28h-28zM308 1596h28v28h-28zM476 1596h28v28h-28zM560 1596h28v28h-28zM1120 1596h28v28h-28zM1204 1596h28v28h-28zM1596 1596h28v28h-28zM56 1624h28v28h-28zM224 1624h28v28h-28zM308 1624h28v28h-28zM476 1624h28v28h-28zM560 1624h28v28h-28zM1120 1624h28v28h-28zM1204 1624h28v28h-28zM1596 1624h28v28h-28zM56 1652h28v28h-28zM224 1652h28v28h-28zM308 1652h196v28h-196zM560 1652h28v28h-28zM1120 1652h28v28h-28zM1204 1652h28v28h-28zM1596 1652h28v28h-28zM56 1680h28v28h-28zM224 1680h28v28h-28zM308 1680h196v28h-196zM560 1680h28v28h-28zM1120 1680h28v28h-28zM1204 1680h28v28h-28zM1596 1680h28v28h-28zM56 1708h28v28h-28zM224 1708h28v28h-28zM308 1708h28v28h-28zM476 1708h28v28h-28zM560 1708h28v28h-28zM1120 1708h28v28h-28zM1204 1708h28v28h-28zM1596 1708h28v28h-28zM56 1736h28v28h-28zM224 1736h28v28h-28zM308 1736h28v28h-28zM476 1736h28v28h-28zM560 1736h28v28h-28zM1120 1736h28v28h-28zM1204 1736h28v28h-28zM1596 1736h28v28h-28zM56 1764h28v28h-28zM224 1764h28v28h-28zM308 1764h196v28h-196zM560 1764h28v28h-28zM1120 1764h28v28h-28zM1204 1764h28v28h-28zM1596 1764h28v28h-28zM56 1792h28v28h-28zM224 1792h28v28h-28zM308 1792h196v28h-196zM560 1792h28v28h-28zM1120 1792h28v28h-28zM1204 1792h28v28h-28zM1596 1792h28v28h-28zM56 1820h28v28h-28zM224 1820h28v28h-28zM308 1820h28v28h-28zM476 1820h28v28h-28zM560 1820h28v28h-28zM1120 1820h28v28h-28zM1204 1820h28v28h-28zM1596 1820h28v28h-28zM56 1848h28v28h-28zM224 1848h28v28h-28zM308 1848h28v28h-28zM476 1848h28v28h-28zM560 1848h28v28h-28zM1120 1848h28v28h-28zM1204 1848h28v28h-28zM1596 1848h28v28h-28zM56 1876h28v28h-28zM224 1876h28v28h-28zM308 1876h196v28h-196zM560 1876h28v28h-28zM1120 1876h28v28h-28zM1204 1876h28v28h-28zM1596 1876h28v28h-28zM56 1904h28v28h-28zM224 1904h28v28h-28zM308 1904h196v28h-196zM560 1904h28v28h-28zM1120 1904h28v28h-28zM1204 1904h28v28h-28zM1596 1904h28v28h-28zM56 1932h28v28h-28zM224 1932h28v28h-28zM308 1932h28v28h-28zM476 1932h28v28h-28zM560 1932h28v28h-28zM1120 1932h28v28h-28zM1204 1932h28v28h-28zM1596 1932h28v28h-28zM56 1960h28v28h-28zM224 1960h28v28h-28zM308 1960h28v28h-28zM476 1960h28v28h-28zM560 1960h28v28h-28zM1120 1960h28v28h-28zM1204 1960h28v28h-28zM1596 1960h28v28h-28zM56 1988h28v28h-28zM224 1988h28v28h-28zM308 1988h196v28h-196zM560 1988h28v28h-28zM1120 1988h28v28h-28zM1204 1988h28v28h-28zM1596 1988h28v28h-28zM56 2016h28v28h-28zM224 2016h28v28h-28zM308 2016h196v28h-196zM560 2016h28v28h-28zM1120 2016h28v28h-28zM1204 2016h28v28h-28zM1596 2016h28v28h-28zM56 2044h28v28h-28zM224 2044h28v28h-28zM308 2044h28v28h-28zM476 2044h28v28h-28zM560 2044h28v28h-28zM1120 2044h28v28h-28zM1204 2044h28v28h-28zM1596 2044h28v28h-28zM56 2072h28v28h-28zM224 2072h28v28h-28zM308 2072h28v28h-28zM476 2072h28v28h-28zM560 2072h28v28h-28zM1120 2072h28v28h-28zM1204 2072h28v28h-28zM1596 2072h28v28h-28zM56 2100h28v28h-28zM224 2100h28v28h-28zM308 2100h196v28h-196zM560 2100h28v28h-28zM1120 2100h28v28h-28zM1204 2100h28v28h-28zM1596 2100h28v28h-28zM56 2128h28v28h-28zM224 2128h28v28h-28zM308 2128h196v28h-196zM560 2128h28v28h-28zM1120 2128h28v28h-28zM1204 2128h28v28h-28zM1596 2128h28v28h-28zM56 2156h28v28h-28zM224 2156h28v28h-28zM308 2156h28v28h-28zM476 2156h28v28h-28zM560 2156h28v28h-28zM1120 2156h28v28h-28zM1204 2156h28v28h-28zM1596 2156h28v28h-28zM56 2184h28v28h-28zM224 2184h28v28h-28zM308 2184h28v28h-28zM476 2184h28v28h-28zM560 2184h28v28h-28zM1120 2184h28v28h-28zM1204 2184h28v28h-28zM1596 2184h28v28h-28zM56 2212h28v28h-28zM224 2212h28v28h-28zM308 2212h196v28h-196zM560 2212h28v28h-28zM1120 2212h28v28h-28zM1204 2212h28v28h-28zM1596 2212h28v28h-28zM56 2240h28v28h-28zM224 2240h28v28h-28zM308 2240h196v28h-196zM560 2240h28v28h-28zM1120 2240h28v28h-28zM1204 2240h28v28h-28zM1596 2240h28v28h-28zM56 2268h28v28h-28zM224 2268h28v28h-28zM308 2268h28v28h-28zM476 2268h28v28h-28zM560 2268h28v28h-28zM1120 2268h28v28h-28zM1204 2268h28v28h-28zM1596 2268h28v28h-28zM56 2296h28v28h-28zM224 2296h28v28h-28zM308 2296h28v28h-28zM476 2296h28v28h-28zM560 2296h28v28h-28zM1120 2296h28v28h-28zM1204 2296h28v28h-28zM1596 2296h28v28h-28zM56 2324h28v28h-28zM224 2324h28v28h-28zM308 2324h196v28h-196zM560 2324h28v28h-28zM1120 2324h28v28h-28zM1204 2324h28v28h-28zM1596 2324h28v28h-28zM56 2352h28v28h-28zM224 2352h28v28h-28zM308 2352h196v28h-196zM560 2352h28v28h-28zM1120 2352h28v28h-28zM1204 2352h28v28h-28zM1596 2352h28v28h-28zM56 2380h28v28h-28zM224 2380h28v28h-28zM308 2380h28v28h-28zM476 2380h28v28h-28zM560 2380h28v28h-28zM1120 2380h28v28h-28zM1204 2380h28v28h-28zM1596 2380h28v28h-28zM56 2408h28v28h-28zM224 2408h28v28h-28zM308 2408h28v28h-28zM476 2408h28v28h-28zM560 2408h28v28h-28zM1120 2408h28v28h-28zM1204 2408h28v28h-28zM1596 2408h28v28h-28zM56 2436h28v28h-28zM224 2436h28v28h-28zM308 2436h196v28h-196zM560 2436h28v28h-28zM1120 2436h28v28h-28zM1204 2436h28v28h-28zM1596 2436h28v28h-28zM56 2464h28v28h-28zM224 2464h28v28h-28zM308 2464h196v28h-196zM560 2464h28v28h-28zM1120 2464h28v28h-28zM1204 2464h28v28h-28zM1596 2464h28v28h-28zM56 2492h28v28h-28zM224 2492h28v28h-28zM308 2492h28v28h-28zM476 2492h28v28h-28zM560 2492h28v28h-28zM1120 2492h28v28h-28zM1204 2492h28v28h-28zM1596 2492h28v28h-28zM56 2520h28v28h-28zM224 2520h28v28h-28zM308 2520h28v28h-28zM476 2520h28v28h-28zM560 2520h28v28h-28zM1120 2520h28v28h-28zM1204 2520h28v28h-28zM1596 2520h28v28h-28zM56 2548h28v28h-28zM224 2548h28v28h-28zM308 2548h196v28h-196zM560 2548h28v28h-28zM1120 2548h28v28h-28zM1204 2548h28v28h-28zM1596 2548h28v28h-28zM56 2576h28v28h-28zM224 2576h28v28h-28zM308 2576h196v28h-196zM560 2576h28v28h-28zM1120 2576h28v28h-28zM1204 2576h28v28h-28zM1596 2576h28v28h-28zM56 2604h28v28h-28zM224 2604h28v28h-28zM308 2604h28v28h-28zM476 2604h28v28h-28zM560 2604h28v28h-28zM1120 2604h28v28h-28zM1204 2604h28v28h-28zM1596 2604h28v28h-28zM56 2632h28v28h-28zM224 2632h28v28h-28zM308 2632h28v28h-28zM476 2632h28v28h-28zM560 2632h28v28h-28zM1120 2632h28v28h-28zM1204 2632h28v28h-28zM1596 2632h28v28h-28zM56 2660h28v28h-28zM224 2660h28v28h-28zM308 2660h196v28h-196zM560 2660h28v28h-28zM1120 2660h28v28h-28zM1204 2660h28v28h-28zM1596 2660h28v28h-28zM56 2688h28v28h-28zM224 2688h28v28h-28zM560 2688h28v28h-28zM1120 2688h28v28h-28zM1204 2688h28v28h-28zM1596 2688h28v28h-28zM56 2716h28v28h-28zM224 2716h28v28h-28zM560 2716h28v28h-28zM1120 2716h28v28h-28zM1204 2716h420v28h-420zM56 2744h28v28h-28zM224 2744h28v28h-28zM560 2744h28v28h-28zM1120 2744h28v28h-28zM56 2772h28v28h-28zM224 2772h28v28h-28zM560 2772h28v28h-28zM1120 2772h28v28h-28zM56 2800h196v28h-196zM560 2800h588v28h-588z"/>
<path fill="#f87171" d="M252 56h28v28h-28zM336 84h28v28h-28zM1708 112h28v28h-28zM980 168h28v28h-28zM588 280h28v28h-28zM1260 308h28v28h-28zM1736 308h28v28h-28zM336 364h28v28h-28zM336 476h28v28h-28zM336 588h28v28h-28zM336 700h28v28h-28zM336 812h28v28h-28zM336 924h28v28h-28zM336 1036h28v28h-28zM336 1148h28v28h-28zM336 1260h28v28h-28zM336 1372h28v28h-28zM336 1484h28v28h-28zM336 1596h28v28h-28zM336 1708h28v28h-28zM336 1820h28v28h-28zM336 1932h28v28h-28zM336 2044h28v28h-28zM336 2156h28v28h-28zM336 2268h28v28h-28zM336 2380h28v28h-28zM336 2492h28v28h-28zM336 2604h28v28h-28zM784 2604h28v28h-28zM84 2660h28v28h-28zM700 2660h28v28h-28zM1092 2660h28v28h-28zM1232 2660h28v28h-28zM84 2772h28v28h-28zM784 2772h28v28h-28z"/>
<path fill="#f472b6" d="M280 56h28v28h-28zM364 84h28v28h-28zM756 112h28v28h-28zM1764 112h28v28h-28zM1764 140h28v28h-28zM1008 168h28v28h-28zM1288 308h28v28h-28zM1764 308h56v28h-56zM644 336h28v28h-28zM784 336h28v28h-28zM84 364h28v28h-28zM168 364h56v28h-56zM364 364h28v28h-28zM420 364h28v28h-28zM728 392h28v28h-28zM840 392h28v28h-28zM1288 392h28v28h-28zM1764 392h56v28h-56zM112 420h28v28h-28zM1260 420h28v28h-28zM644 448h28v28h-28zM784 448h28v28h-28zM168 476h56v28h-56zM364 476h28v28h-28zM420 476h28v28h-28zM728 504h28v28h-28zM840 504h28v28h-28zM1288 504h28v28h-28zM112 532h28v28h-28zM1260 532h28v28h-28zM644 560h28v28h-28zM784 560h28v28h-28zM168 588h56v28h-56zM364 588h28v28h-28zM420 588h28v28h-28zM728 616h28v28h-28zM840 616h28v28h-28zM1288 616h28v28h-28zM112 644h28v28h-28zM1260 644h28v28h-28zM644 672h28v28h-28zM784 672h28v28h-28zM168 700h56v28h-56zM364 700h28v28h-28zM420 700h28v28h-28zM728 728h28v28h-28zM840 728h28v28h-28zM1288 728h28v28h-28zM112 756h28v28h-28zM1260 756h28v28h-28zM644 784h28v28h-28zM784 784h28v28h-28zM168 812h56v28h-56zM364 812h28v28h-28zM420 812h28v28h-28zM728 840h28v28h-28zM840 840h28v28h-28zM1288 840h28v28h-28zM112 868h28v28h-28zM1260 868h28v28h-28zM644 896h28v28h-28zM784 896h28v28h-28zM168 924h56v28h-56zM364 924h28v28h-28zM420 924h28v28h-28zM728 952h28v28h-28zM840 952h28v28h-28zM1288 952h28v28h-28zM112 980h28v28h-28zM1260 980h28v28h-28zM644 1008h28v28h-28zM784 1008h28v28h-28zM168 1036h56v28h-56zM364 1036h28v28h-28zM420 1036h28v28h-28zM728 1064h28v28h-28zM840 1064h28v28h-28zM1288 1064h28v28h-28zM112 1092h28v28h-28zM1260 1092h28v28h-28zM644 1120h28v28h-28zM784 1120h28v28h-28zM168 1148h56v28h-56zM364 1148h28v28h-28zM420 1148h28v28h-28zM728 1176h28v28h-28zM840 1176h28v28h-28zM1288 1176h28v28h-28zM112 1204h28v28h-28zM1260 1204h28v28h-28zM644 1232h28v28h-28zM784 1232h28v28h-28zM168 1260h56v28h-56zM364 1260h28v28h-28zM420 1260h28v28h-28zM728 1288h28v28h-28zM840 1288h28v28h-28zM1288 1288h28v28h-28zM112 1316h28v28h-28zM1260 1316h28v28h-28zM644 1344h28v28h-28zM784 1344h28v28h-28zM168 1372h56v28h-56zM364 1372h28v28h-28zM420 1372h28v28h-28zM728 1400h28v28h-28zM840 1400h28v28h-28zM1288 1400h28v28h-28zM112 1428h28v28h-28zM1260 1428h28v28h-28zM644 1456h28v28h-28zM784 1456h28v28h-28zM168 1484h56v28h-56zM364 1484h28v28h-28zM420 1484h28v28h-28zM728 1512h28v28h-28zM840 1512h28v28h-28zM1288 1512h28v28h-28zM112 1540h28v28h-28zM1260 1540h28v28h-28zM644 1568h28v28h-28zM784 1568h28v28h-28zM168 1596h56v28h-56zM364 1596h28v28h-28zM420 1596h28v28h-28zM728 1624h28v28h-28zM840 1624h28v28h-28zM1288 1624h28v28h-28zM112 1652h28v28h-28zM1260 1652h28v28h-28zM644 1680h28v28h-28zM784 1680h28v28h-28zM168 1708h56v28h-56zM364 1708h28v28h-28zM420 1708h28v28h-28zM728 1736h28v28h-28zM840 1736h28v28h-28zM1288 1736h28v28h-28zM112 1764h28v28h-28zM1260 1764h28v28h-28zM644 1792h28v28h-28zM784 1792h28v28h-28zM168 1820h56v28h-56zM364 1820h28v28h-28zM420 1820h28v28h-28zM728 1848h28v28h-28zM840 1848h28v28h-28zM1288 1848h28v28h-28zM112 1876h28v28h-28zM1260 1876h28v28h-28zM644 1904h28v28h-28zM784 1904h28v28h-28zM168 1932h56v28h-56zM364 1932h28v28h-28zM420 1932h28v28h-28zM728 1960h28v28h-28zM840 1960h28v28h-28zM1288 1960h28v28h-28zM112 1988h28v28h-28zM1260 1988h28v28h-28zM644 2016h28v28h-28zM784 2016h28v28h-28zM168 2044h56v28h-56zM364 2044h28v28h-28zM420 2044h28v28h-28zM728 2072h28v28h-28zM840 2072h28v28h-28zM1288 2072h28v28h-28zM112 2100h28v28h-28zM1260 2100h28v28h-28zM644 2128h28v28h-28zM784 2128h28v28h-28zM168 2156h56v28h-56zM364 2156h28v28h-28zM420 2156h28v28h-28zM728 2184h28v28h-28zM840 2184h28v28h-28zM1288 2184h28v28h-28zM112 2212h28v28h-28zM1260 2212h28v28h-28zM644 2240h28v28h-28zM784 2240h28v28h-28zM168 2268h56v28h-56zM364 2268h28v28h-28zM420 2268h28v28h-28zM728 2296h28v28h-28zM840 2296h28v28h-28zM1288 2296h28v28h-28zM112 2324h28v28h-28zM1260 2324h28v28h-28zM644 2352h28v28h-28zM784 2352h28v28h-28zM168 2380h56v28h-56zM364 2380h28v28h-28zM420 2380h28v28h-28zM728 2408h28v28h-28zM840 2408h28v28h-28zM1288 2408h28v28h-28zM112 2436h28v28h-28zM1260 2436h28v28h-28zM644 2464h28v28h-28zM784 2464h28v28h-28zM168 2492h56v28h-56zM364 2492h28v28h-28zM420 2492h28v28h-28zM728 2520h28v28h-28zM840 2520h28v28h-28zM1288 2520h28v28h-28zM112 2548h28v28h-28zM1260 2548h28v28h-28zM364 2604h28v28h-28zM420 2604h28v28h-28zM644 2604h28v28h-28zM84 2632h28v28h-28zM112 2772h56v28h-56z"/>
<path fill="#93c5fd" d="M308 56h28v28h-28zM448 84h28v28h-28zM644 112h28v28h-28zM784 112h28v28h-28zM700 140h28v28h-28zM1036 196h28v28h-28zM644 252h28v28h-28zM1036 252h28v28h-28zM644 308h28v28h-28zM812 308h28v28h-28zM1316 336h28v28h-28zM1288 364h28v28h-28zM588 392h28v28h-28zM616 420h28v28h-28zM672 420h28v28h-28zM756 420h28v28h-28zM812 420h28v28h-28zM1428 420h28v28h-28zM140 448h28v28h-28zM1288 476h28v28h-28zM588 504h28v28h-28zM616 532h28v28h-28zM672 532h28v28h-28zM756 532h28v28h-28zM812 532h28v28h-28zM140 560h28v28h-28zM1288 588h28v28h-28zM588 616h28v28h-28zM616 644h28v28h-28zM672 644h28v28h-28zM756 644h28v28h-28zM812 644h28v28h-28zM140 672h28v28h-28zM1288 700h28v28h-28zM588 728h28v28h-28zM616 756h28v28h-28zM672 756h28v28h-28zM756 756h28v28h-28zM812 756h28v28h-28zM140 784h28v28h-28zM1288 812h28v28h-28zM588 840h28v28h-28zM616 868h28v28h-28zM672 868h28v28h-28zM756 868h28v28h-28zM812 868h28v28h-28zM140 896h28v28h-28zM1288 924h28v28h-28zM588 952h28v28h-28zM616 980h28v28h-28zM672 980h28v28h-28zM756 980h28v28h-28zM812 980h28v28h-28zM140 1008h28v28h-28zM1288 1036h28v28h-28zM588 1064h28v28h-28zM616 1092h28v28h-28zM672 1092h28v28h-28zM756 1092h28v28h-28zM812 1092h28v28h-28zM140 1120h28v28h-28zM1288 1148h28v28h-28zM588 1176h28v28h-28zM616 1204h28v28h-28zM672 1204h28v28h-28zM756 1204h28v28h-28zM812 1204h28v28h-28zM140 1232h28v28h-28zM1288 1260h28v28h-28zM588 1288h28v28h-28zM616 1316h28v28h-28zM672 1316h28v28h-28zM756 1316h28v28h-28zM812 1316h28v28h-28zM140 1344h28v28h-28zM1288 1372h28v28h-28zM588 1400h28v28h-28zM616 1428h28v28h-28zM672 1428h28v28h-28zM756 1428h28v28h-28zM812 1428h28v28h-28zM140 1456h28v28h-28zM1288 1484h28v28h-28zM588 1512h28v28h-28zM616 1540h28v28h-28zM672 1540h28v28h-28zM756 1540h28v28h-28zM812 1540h28v28h-28zM140 1568h28v28h-28zM1288 1596h28v28h-28zM588 1624h28v28h-28zM616 1652h28v28h-28zM672 1652h28v28h-28zM756 1652h28v28h-28zM812 1652h28v28h-28zM140 1680h28v28h-28zM1288 1708h28v28h-28zM588 1736h28v28h-28zM616 1764h28v28h-28zM672 1764h28v28h-28zM756 1764h28v28h-28zM812 1764h28v28h-28zM140 1792h28v28h-28zM1288 1820h28v28h-28zM588 1848h28v28h-28zM616 1876h28v28h-28zM672 1876h28v28h-28zM756 1876h28v28h-28zM812 1876h28v28h-28zM140 1904h28v28h-28zM1288 1932h28v28h-28zM588 1960h28v28h-28zM616 1988h28v28h-28zM672 1988h28v28h-28zM756 1988h28v28h-28zM812 1988h28v28h-28zM140 2016h28v28h-28zM1288 2044h28v28h-28zM588 2072h28v28h-28zM616 2100h28v28h-28zM672 2100h28v28h-28zM756 2100h28v28h-28zM812 2100h28v28h-28zM140 2128h28v28h-28zM1288 2156h28v28h-28zM588 2184h28v28h-28zM616 2212h28v28h-28zM672 2212h28v28h-28zM756 2212h28v28h-28zM812 2212h28v28h-28zM140 2240h28v28h-28zM1288 2268h28v28h-28zM588 2296h28v28h-28zM616 2324h28v28h-28zM672 2324h28v28h-28zM756 2324h28v28h-28zM812 2324h28v28h-28zM140 2352h28v28h-28zM1288 2380h28v28h-28zM588 2408h28v28h-28zM616 2436h28v28h-28zM672 2436h28v28h-28zM756 2436h28v28h-28zM812 2436h28v28h-28zM140 2464h28v28h-28zM1288 2492h28v28h-28zM588 2520h28v28h-28zM616 2548h28v28h-28zM672 2548h28v28h-28zM756 2548h28v28h-28zM812 2548h28v28h-28zM140 2576h28v28h-28zM168 2604h28v28h-28zM1260 2604h28v28h-28z"/>
<path fill="#94a3b8" d="M336 56h112v28h-112zM420 84h28v28h-28zM812 112h224v28h-224zM1064 112h28v28h-28zM616 140h28v28h-28zM616 168h28v28h-28zM1036 168h28v28h-28zM616 196h28v28h-28zM616 224h28v28h-28zM896 252h140v28h-140zM644 280h28v28h-28zM1288 336h28v28h-28zM1344 336h112v28h-112zM812 364h28v28h-28zM196 392h28v28h-28zM812 476h28v28h-28zM196 504h28v28h-28zM812 588h28v28h-28zM196 616h28v28h-28zM812 700h28v28h-28zM196 728h28v28h-28zM812 812h28v28h-28zM196 840h28v28h-28zM812 924h28v28h-28zM196 952h28v28h-28zM812 1036h28v28h-28zM196 1064h28v28h-28zM812 1148h28v28h-28zM196 1176h28v28h-28zM812 1260h28v28h-28zM196 1288h28v28h-28zM812 1372h28v28h-28zM196 1400h28v28h-28zM812 1484h28v28h-28zM196 1512h28v28h-28zM812 1596h28v28h-28zM196 1624h28v28h-28zM812 1708h28v28h-28zM196 1736h28v28h-28zM812 1820h28v28h-28zM196 1848h28v28h-28zM812 1932h28v28h-28zM196 1960h28v28h-28zM812 2044h28v28h-28zM196 2072h28v28h-28zM812 2156h28v28h-28zM196 2184h28v28h-28zM812 2268h28v28h-28zM196 2296h28v28h-28zM812 2380h28v28h-28zM196 2408h28v28h-28zM812 2492h28v28h-28zM196 2520h28v28h-28zM1260 2660h112v28h-112z"/>
<path fill="#4ade80" d="M448 56h28v28h-28zM392 84h28v28h-28zM840 196h28v28h-28zM616 364h28v28h-28zM1428 392h28v28h-28zM616 476h28v28h-28zM616 588h28v28h-28zM616 700h28v28h-28zM616 812h28v28h-28zM616 924h28v28h-28zM616 1036h28v28h-28zM616 1148h28v28h-28zM616 1260h28v28h-28zM616 1372h28v28h-28zM616 1484h28v28h-28zM616 1596h28v28h-28zM616 1708h28v28h-28zM616 1820h28v28h-28zM616 1932h28v28h-28zM616 2044h28v28h-28zM616 2156h28v28h-28zM616 2268h28v28h-28zM616 2380h28v28h-28zM616 2492h28v28h-28zM644 2632h28v28h-28z"/>
<path fill="#facc15" d="M476 56h28v28h-28zM476 84h28v28h-28zM616 112h28v28h-28zM672 112h28v28h-28zM728 112h28v28h-28zM1092 112h28v28h-28zM1736 112h28v28h-28zM1792 112h28v28h-28zM672 140h28v28h-28zM728 140h28v28h-28zM868 140h28v28h-28zM1092 140h28v28h-28zM1736 140h28v28h-28zM1792 140h28v28h-28zM868 168h28v28h-28zM1064 168h28v28h-28zM644 196h28v28h-28zM812 196h28v28h-28zM868 196h28v28h-28zM1008 196h28v28h-28zM1064 196h28v28h-28zM812 224h28v28h-28zM868 224h28v28h-28zM1008 224h28v28h-28zM1064 224h28v28h-28zM868 252h28v28h-28zM1064 252h28v28h-28zM616 280h28v28h-28zM812 280h28v28h-28zM924 280h28v28h-28zM784 308h28v28h-28zM868 308h28v28h-28zM1484 308h28v28h-28zM1820 308h28v28h-28zM84 336h28v28h-28zM168 336h56v28h-56zM1260 336h28v28h-28zM1456 336h28v28h-28zM392 364h28v28h-28zM448 364h28v28h-28zM588 364h28v28h-28zM644 364h28v28h-28zM700 364h56v28h-56zM784 364h28v28h-28zM840 364h28v28h-28zM1260 364h28v28h-28zM1316 364h28v28h-28zM1428 364h56v28h-56zM1736 364h28v28h-28zM1820 364h28v28h-28zM112 392h84v28h-84zM392 392h28v28h-28zM448 392h28v28h-28zM1260 392h28v28h-28zM1316 392h28v28h-28zM1736 392h28v28h-28zM1820 392h28v28h-28zM168 420h56v28h-56zM588 420h28v28h-28zM644 420h28v28h-28zM700 420h56v28h-56zM784 420h28v28h-28zM840 420h28v28h-28zM924 420h28v28h-28zM1064 420h28v28h-28zM112 448h28v28h-28zM168 448h28v28h-28zM924 448h28v28h-28zM1064 448h28v28h-28zM1428 448h56v28h-56zM392 476h28v28h-28zM448 476h28v28h-28zM588 476h28v28h-28zM644 476h28v28h-28zM700 476h56v28h-56zM784 476h28v28h-28zM840 476h28v28h-28zM924 476h28v28h-28zM1064 476h28v28h-28zM1260 476h28v28h-28zM1316 476h28v28h-28zM1456 476h56v28h-56zM112 504h84v28h-84zM392 504h28v28h-28zM448 504h28v28h-28zM924 504h28v28h-28zM1064 504h28v28h-28zM1260 504h28v28h-28zM1316 504h28v28h-28zM168 532h56v28h-56zM588 532h28v28h-28zM644 532h28v28h-28zM700 532h56v28h-56zM784 532h28v28h-28zM840 532h28v28h-28zM924 532h28v28h-28zM1064 532h28v28h-28zM112 560h28v28h-28zM168 560h28v28h-28zM924 560h28v28h-28zM1064 560h28v28h-28zM392 588h28v28h-28zM448 588h28v28h-28zM588 588h28v28h-28zM644 588h28v28h-28zM700 588h56v28h-56zM784 588h28v28h-28zM840 588h28v28h-28zM924 588h28v28h-28zM1064 588h28v28h-28zM1260 588h28v28h-28zM1316 588h28v28h-28zM112 616h84v28h-84zM392 616h28v28h-28zM448 616h28v28h-28zM924 616h28v28h-28zM1064 616h28v28h-28zM1260 616h28v28h-28zM1316 616h28v28h-28zM168 644h56v28h-56zM588 644h28v28h-28zM644 644h28v28h-28zM700 644h56v28h-56zM784 644h28v28h-28zM840 644h28v28h-28zM924 644h28v28h-28zM1064 644h28v28h-28zM112 672h28v28h-28zM168 672h28v28h-28zM924 672h28v28h-28zM1064 672h28v28h-28zM392 700h28v28h-28zM448 700h28v28h-28zM588 700h28v28h-28zM644 700h28v28h-28zM700 700h56v28h-56zM784 700h28v28h-28zM840 700h28v28h-28zM924 700h28v28h-28zM1064 700h28v28h-28zM1260 700h28v28h-28zM1316 700h28v28h-28zM112 728h84v28h-84zM392 728h28v28h-28zM448 728h28v28h-28zM924 728h28v28h-28zM1064 728h28v28h-28zM1260 728h28v28h-28zM1316 728h28v28h-28zM168 756h56v28h-56zM588 756h28v28h-28zM644 756h28v28h-28zM700 756h56v28h-56zM784 756h28v28h-28zM840 756h28v28h-28zM924 756h28v28h-28zM1064 756h28v28h-28zM112 784h28v28h-28zM168 784h28v28h-28zM924 784h28v28h-28zM1064 784h28v28h-28zM392 812h28v28h-28zM448 812h28v28h-28zM588 812h28v28h-28zM644 812h28v28h-28zM700 812h56v28h-56zM784 812h28v28h-28zM840 812h28v28h-28zM924 812h28v28h-28zM1064 812h28v28h-28zM1260 812h28v28h-28zM1316 812h28v28h-28zM112 840h84v28h-84zM392 840h28v28h-28zM448 840h28v28h-28zM924 840h28v28h-28zM1064 840h28v28h-28zM1260 840h28v28h-28zM1316 840h28v28h-28zM168 868h56v28h-56zM588 868h28v28h-28zM644 868h28v28h-28zM700 868h56v28h-56zM784 868h28v28h-28zM840 868h28v28h-28zM924 868h28v28h-28zM1064 868h28v28h-28zM112 896h28v28h-28zM168 896h28v28h-28zM924 896h28v28h-28zM1064 896h28v28h-28zM392 924h28v28h-28zM448 924h28v28h-28zM588 924h28v28h-28zM644 924h28v28h-28zM700 924h56v28h-56zM784 924h28v28h-28zM840 924h28v28h-28zM924 924h28v28h-28zM1008 924h28v28h-28zM1260 924h28v28h-28zM1316 924h28v28h-28zM112 952h84v28h-84zM392 952h28v28h-28zM448 952h28v28h-28zM924 952h28v28h-28zM1008 952h28v28h-28zM1260 952h28v28h-28zM1316 952h28v28h-28zM168 980h56v28h-56zM588 980h28v28h-28zM644 980h28v28h-28zM700 980h56v28h-56zM784 980h28v28h-28zM840 980h28v28h-28zM112 1008h28v28h-28zM168 1008h28v28h-28zM392 1036h28v28h-28zM448 1036h28v28h-28zM588 1036h28v28h-28zM644 1036h28v28h-28zM700 1036h56v28h-56zM784 1036h28v28h-28zM840 1036h28v28h-28zM1260 1036h28v28h-28zM1316 1036h28v28h-28zM112 1064h84v28h-84zM392 1064h28v28h-28zM448 1064h28v28h-28zM1260 1064h28v28h-28zM1316 1064h28v28h-28zM168 1092h56v28h-56zM588 1092h28v28h-28zM644 1092h28v28h-28zM700 1092h56v28h-56zM784 1092h28v28h-28zM840 1092h28v28h-28zM112 1120h28v28h-28zM168 1120h28v28h-28zM392 1148h28v28h-28zM448 1148h28v28h-28zM588 1148h28v28h-28zM644 1148h28v28h-28zM700 1148h56v28h-56zM784 1148h28v28h-28zM840 1148h28v28h-28zM1260 1148h28v28h-28zM1316 1148h28v28h-28zM112 1176h84v28h-84zM392 1176h28v28h-28zM448 1176h28v28h-28zM1260 1176h28v28h-28zM1316 1176h28v28h-28zM168 1204h56v28h-56zM588 1204h28v28h-28zM644 1204h28v28h-28zM700 1204h56v28h-56zM784 1204h28v28h-28zM840 1204h28v28h-28zM112 1232h28v28h-28zM168 1232h28v28h-28zM392 1260h28v28h-28zM448 1260h28v28h-28zM588 1260h28v28h-28zM644 1260h28v28h-28zM700 1260h56v28h-56zM784 1260h28v28h-28zM840 1260h28v28h-28zM1260 1260h28v28h-28zM1316 1260h28v28h-28zM112 1288h84v28h-84zM392 1288h28v28h-28zM448 1288h28v28h-28zM1260 1288h28v28h-28zM1316 1288h28v28h-28zM168 1316h56v28h-56zM588 1316h28v28h-28zM644 1316h28v28h-28zM700 1316h56v28h-56zM784 1316h28v28h-28zM840 1316h28v28h-28zM112 1344h28v28h-28zM168 1344h28v28h-28zM392 1372h28v28h-28zM448 1372h28v28h-28zM588 1372h28v28h-28zM644 1372h28v28h-28zM700 1372h56v28h-56zM784 1372h28v28h-28zM840 1372h28v28h-28zM1260 1372h28v28h-28zM1316 1372h28v28h-28zM112 1400h84v28h-84zM392 1400h28v28h-28zM448 1400h28v28h-28zM1260 1400h28v28h-28zM1316 1400h28v28h-28zM168 1428h56v28h-56zM588 1428h28v28h-28zM644 1428h28v28h-28zM700 1428h56v28h-56zM784 1428h28v28h-28zM840 1428h28v28h-28zM112 1456h28v28h-28zM168 1456h28v28h-28zM392 1484h28v28h-28zM448 1484h28v28h-28zM588 1484h28v28h-28zM644 1484h28v28h-28zM700 1484h56v28h-56zM784 1484h28v28h-28zM840 1484h28v28h-28zM1260 1484h28v28h-28zM1316 1484h28v28h-28zM112 1512h84v28h-84zM392 1512h28v28h-28zM448 1512h28v28h-28zM1260 1512h28v28h-28zM1316 1512h28v28h-28zM168 1540h56v28h-56zM588 1540h28v28h-28zM644 1540h28v28h-28zM700 1540h56v28h-56zM784 1540h28v28h-28zM840 1540h28v28h-28zM112 1568h28v28h-28zM168 1568h28v28h-28zM392 1596h28v28h-28zM448 1596h28v28h-28zM588 1596h28v28h-28zM644 1596h28v28h-28zM700 1596h56v28h-56zM784 1596h28v28h-28zM840 1596h28v28h-28zM1260 1596h28v28h-28zM1316 1596h28v28h-28zM112 1624h84v28h-84zM392 1624h28v28h-28zM448 1624h28v28h-28zM1260 1624h28v28h-28zM1316 1624h28v28h-28zM168 1652h56v28h-56zM588 1652h28v28h-28zM644 1652h28v28h-28zM700 1652h56v28h-56zM784 1652h28v28h-28zM840 1652h28v28h-28zM112 1680h28v28h-28zM168 1680h28v28h-28zM392 1708h28v28h-28zM448 1708h28v28h-28zM588 1708h28v28h-28zM644 1708h28v28h-28zM700 1708h56v28h-56zM784 1708h28v28h-28zM840 1708h28v28h-28zM1260 1708h28v28h-28zM1316 1708h28v28h-28zM112 1736h84v28h-84zM392 1736h28v28h-28zM448 1736h28v28h-28zM1260 1736h28v28h-28zM1316 1736h28v28h-28zM168 1764h56v28h-56zM588 1764h28v28h-28zM644 1764h28v28h-28zM700 1764h56v28h-56zM784 1764h28v28h-28zM840 1764h28v28h-28zM112 1792h28v28h-28zM168 1792h28v28h-28zM392 1820h28v28h-28zM448 1820h28v28h-28zM588 1820h28v28h-28zM644 1820h28v28h-28zM700 1820h56v28h-56zM784 1820h28v28h-28zM840 1820h28v28h-28zM1260 1820h28v28h-28zM1316 1820h28v28h-28zM112 1848h84v28h-84zM392 1848h28v28h-28zM448 1848h28v28h-28zM1260 1848h28v28h-28zM1316 1848h28v28h-28zM168 1876h56v28h-56zM588 1876h28v28h-28zM644 1876h28v28h-28zM700 1876h56v28h-56zM784 1876h28v28h-28zM840 1876h28v28h-28zM112 1904h28v28h-28zM168 1904h28v28h-28zM392 1932h28v28h-28zM448 1932h28v28h-28zM588 1932h28v28h-28zM644 1932h28v28h-28zM700 1932h56v28h-56zM784 1932h28v28h-28zM840 1932h28v28h-28zM1260 1932h28v28h-28zM1316 1932h28v28h-28zM112 1960h84v28h-84zM392 1960h28v28h-28zM448 1960h28v28h-28zM1260 1960h28v28h-28zM1316 1960h28v28h-28zM168 1988h56v28h-56zM588 1988h28v28h-28zM644 1988h28v28h-28zM700 1988h56v28h-56zM784 1988h28v28h-28zM840 1988h28v28h-28zM112 2016h28v28h-28zM168 2016h28v28h-28zM392 2044h28v28h-28zM448 2044h28v28h-28zM588 2044h28v28h-28zM644 2044h28v28h-28zM700 2044h56v28h-56zM784 2044h28v28h-28zM840 2044h28v28h-28zM1260 2044h28v28h-28zM1316 2044h28v28h-28zM112 2072h84v28h-84zM392 2072h28v28h-28zM448 2072h28v28h-28zM1260 2072h28v28h-28zM1316 2072h28v28h-28zM168 2100h56v28h-56zM588 2100h28v28h-28zM644 2100h28v28h-28zM700 2100h56v28h-56zM784 2100h28v28h-28zM840 2100h28v28h-28zM112 2128h28v28h-28zM168 2128h28v28h-28zM392 2156h28v28h-28zM448 2156h28v28h-28zM588 2156h28v28h-28zM644 2156h28v28h-28zM700 2156h56v28h-56zM784 2156h28v28h-28zM840 2156h28v28h-28zM1260 2156h28v28h-28zM1316 2156h28v28h-28zM112 2184h84v28h-84zM392 2184h28v28h-28zM448 2184h28v28h-28zM1260 2184h28v28h-28zM1316 2184h28v28h-28zM168 2212h56v28h-56zM588 2212h28v28h-28zM644 2212h28v28h-28zM700 2212h56v28h-56zM784 2212h28v28h-28zM840 2212h28v28h-28zM112 2240h28v28h-28zM168 2240h28v28h-28zM392 2268h28v28h-28zM448 2268h28v28h-28zM588 2268h28v28h-28zM644 2268h28v28h-28zM700 2268h56v28h-56zM784 2268h28v28h-28zM840 2268h28v28h-28zM1260 2268h28v28h-28zM1316 2268h28v28h-28zM112 2296h84v28h-84zM392 2296h28v28h-28zM448 2296h28v28h-28zM1260 2296h28v28h-28zM1316 2296h28v28h-28zM168 2324h56v28h-56zM588 2324h28v28h-28zM644 2324h28v28h-28zM700 2324h56v28h-56zM784 2324h28v28h-28zM840 2324h28v28h-28zM112 2352h28v28h-28zM168 2352h28v28h-28zM392 2380h28v28h-28zM448 2380h28v28h-28zM588 2380h28v28h-28zM644 2380h28v28h-28zM700 2380h56v28h-56zM784 2380h28v28h-28zM840 2380h28v28h-28zM1260 2380h28v28h-28zM1316 2380h28v28h-28zM112 2408h84v28h-84zM392 2408h28v28h-28zM448 2408h28v28h-28zM1260 2408h28v28h-28zM1316 2408h28v28h-28zM168 2436h56v28h-56zM588 2436h28v28h-28zM644 2436h28v28h-28zM700 2436h56v28h-56zM784 2436h28v28h-28zM840 2436h28v28h-28zM112 2464h28v28h-28zM168 2464h28v28h-28zM392 2492h28v28h-28zM448 2492h28v28h-28zM588 2492h28v28h-28zM644 2492h28v28h-28zM700 2492h56v28h-56zM784 2492h28v28h-28zM840 2492h28v28h-28zM1260 2492h28v28h-28zM1316 2492h28v28h-28zM112 2520h84v28h-84zM392 2520h28v28h-28zM448 2520h28v28h-28zM1260 2520h28v28h-28zM1316 2520h28v28h-28zM168 2548h56v28h-56zM588 2548h28v28h-28zM644 2548h28v28h-28zM700 2548h56v28h-56zM784 2548h28v28h-28zM840 2548h28v28h-28zM112 2576h28v28h-28zM168 2576h28v28h-28zM392 2604h28v28h-28zM448 2604h28v28h-28zM392 2632h28v28h-28zM448 2632h28v28h-28zM672 2632h28v28h-28zM728 2632h28v28h-28zM1260 2632h28v28h-28zM1372 2632h28v28h-28zM644 2660h56v28h-56zM728 2660h28v28h-28zM1372 2660h28v28h-28zM672 2688h28v28h-28zM728 2688h28v28h-28zM868 2716h28v28h-28zM924 2716h28v28h-28zM168 2744h56v28h-56zM196 2772h28v28h-28z"/>
<path fill="#78716c" d="M1904 112h84v28h-84zM1904 140h28v28h-28zM1960 140h28v28h-28zM112 168h84v28h-84zM1904 168h84v28h-84zM112 196h28v28h-28zM168 196h28v28h-28zM112 224h84v28h-84z"/>
<path fill="none" stroke="#a8a29e" stroke-width="2" d="M0 0V2912M28 0V2912M56 0V2912M84 0V2912M112 0V2912M140 0V2912M168 0V2912M196 0V2912M224 0V2912M252 0V2912M280 0V2912M308 0V2912M336 0V2912M364 0V2912M392 0V2912M420 0V2912M448 0V2912M476 0V2912M504 0V2912M532 0V2912M560 0V2912M588 0V2912M616 0V2912M644 0V2912M672 0V2912M700 0V2912M728 0V2912M756 0V2912M784 0V2912M812 0V2912M840 0V2912M868 0V2912M896 0V2912M924 0V2912M952 0V2912M980 0V2912M1008 0V2912M1036 0V2912M1064 0V2912M1092 0V2912M1120 0V2912M1148 0V2912M1176 0V2912M1204 0V2912M1232 0V2912M1260 0V2912M1288 0V2912M1316 0V2912M1344 0V2912M1372 0V2912M1400 0V2912M1428 0V2912M1456 0V2912M1484 0V2912M1512 0V2912M1540 0V2912M1568 0V2912M1596 0V2912M1624 0V2912M1652 0V2912M1680 0V2912M1708 0V2912M1736 0V2912M1764 0V2912M1792 0V2912M1820 0V2912M1848 0V2912M1876 0V2912M1904 0V2912M1932 0V2912M1960 0V2912M1988 0V2912M2016 0V2912M0 0H2016M0 28H2016M0 56H2016M0 84H2016M0 112H2016M0 140H2016M0 168H2016M0 196H2016M0 224H2016M0 252H2016M0 280H2016M0 308H2016M0 336H2016M0 364H2016M0 392H2016M0 420H2016M0 448H2016M0 476H2016M0 504H2016M0 532H2016M0 560H2016M0 588H2016M0 616H2016M0 644H2016M0 672H2016M0 700H2016M0 728H2016M0 756H2016M0 784H2016M0 812H2016M0 840H2016M0 868H2016M0 896H2016M0 924H2016M0 952H2016M0 980H2016M0 1008H2016M0 1036H2016M0 1064H2016M0 1092H2016M0 1120H2016M0 1148H2016M0 1176H2016M0 1204H2016M0 1232H2016M0 1260H2016M0 1288H2016M0 1316H2016M0 1344H2016M0 1372H2016M0 1400H2016M0 1428H2016M0 1456H2016M0 1484H2016M0 1512H2016M0 1540H2016M0 1568H2016M0 1596H2016M0 1624H2016M0 1652H2016M0 1680H2016M0 1708H2016M0 1736H2016M0 1764H2016M0 1792H2016M0 1820H2016M0 1848H2016M0 1876H2016M0 1904H2016M0 1932H2016M0 1960H2016M0 1988H2016M0 2016H2016M0 2044H2016M0 2072H2016M0 2100H2016M0 2128H2016M0 2156H2016M0 2184H2016M0 2212H2016M0 2240H2016M0 2268H2016M0 2296H2016M0 2324H2016M0 2352H2016M0 2380H2016M0 2408H2016M0 2436H2016M0 2464H2016M0 2492H2016M0 2520H2016M0 2548H2016M0 2576H2016M0 2604H2016M0 2632H2016M0 2660H2016M0 2688H2016M0 2716H2016M0 2744H2016M0 2772H2016M0 2800H2016M0 2828H2016M0 2856H2016M0 2884H2016M0 2912H2016"/>
</g>
<g fill="#000" font-family="DejaVu Sans Mono, ui-monospace, monospace" font-size="18" text-anchor="middle" dominant-baseline="central">
<text x="42 70 98 126 154 182 210 238 266 294 322 350 378 406 434 462 490 518 546 574 602 630 658 686 714 742 770 798 826 854 882" y="42">&gt;-----&gt;+---------+&gt;-----------v</text>
<text x="42 238 266 294 322 350 378 406 434 462 490 518 882" y="70">||@rM`20`-v|v</text>
<text x="42 238 350 378 406 434 462 490 518 574 602 630 658 686 714 742 770 798 826 854 882 910 938 966 994 1022 1050 1078 1106 1134 1694 1722 1750 1778 1806 1834" y="98">||Hs{1M&lt;|+-------------------++----+</text>
<text x="42 238 266 294 322 350 378 406 434 462 490 518 574 630 658 686 742 770 798 826 854 882 910 938 966 994 1022 1078 1106 1134 1694 1722 1750 1778 1806 1834 1918 1946 1974" y="126">|+---------+|&gt;b&gt;drM`1048576`v||@&gt;Rv|+-+</text>
<text x="42 574 630 686 714 742 882 1106 1134 1694 1750 1778 1806 1834 1862 1890 1918 1946 1974" y="154">||`^m&lt;v&lt;||^s&lt;|&gt;&gt;|O|</text>
<text x="42 126 154 182 574 630 882 994 1022 1050 1078 1134 1162 1190 1218 1246 1274 1302 1330 1358 1386 1414 1442 1470 1498 1526 1554 1582 1610 1638 1666 1694 1722 1750 1778 1806 1834 1918 1946 1974" y="182">|+-+|5vHs0&lt;|&gt;-----------------&gt;+----++-+</text>
<text x="42 126 154 182 574 630 658 826 854 882 1022 1050 1078 1134 1750" y="210">||I||2vY-vvma|^</text>
<text x="42 126 154 182 574 630 826 882 1022 1078 1134 1750" y="238">|+-+|`YX&gt;^||</text>
<text x="42 154 574 658 882 910 938 966 994 1022 1050 1078 1134 1750" y="266">|v|b&gt;`200`b^|^</text>
<text x="42 154 574 602 630 658 826 938 1134 1218 1246 1274 1302 1330 1358 1386 1414 1442 1470 1498 1526 1554 1582 1610 1722 1750 1778 1806 1834 1862" y="294">|v|@^0&gt;v|+-------------++----+</text>
<text x="42 70 98 126 154 182 210 238 574 658 798 826 882 1134 1218 1274 1302 1498 1610 1638 1666 1694 1722 1750 1778 1806 1834 1862" y="322">|+-----+|Mvb&lt;||Hs&lt;|&gt;&gt;&gt;|@rsv|</text>
<text x="42 70 98 182 210 238 322 350 378 406 434 462 490 574 658 798 1134 1218 1274 1302 1330 1358 1386 1414 1442 1470 1610 1722 1862" y="350">||v&lt;&lt;|+-----+|rr||&gt;1M`20`v|||</text>
<text x="42 70 98 182 210 238 266 294 322 350 378 406 434 462 490 518 546 574 602 630 658 714 742 798 826 854 1134 1218 1274 1302 1330 1442 1470 1610 1722 1750 1834 1862" y="378">||rss|&gt;&gt;|@r&gt;sv|&gt;&gt;|v+xvvx0v||^m&lt;&gt;v||&gt;v|</text>
<text x="42 70 126 154 182 210 238 322 406 462 490 574 602 742 854 1134 1162 1190 1218 1274 1302 1330 1442 1610 1638 1666 1722 1750 1778 1806 1834 1862" y="406">||&gt;&gt;^0||^&lt;||Mss|&gt;&gt;|Xs^-|&gt;v|^sr&lt;|</text>
<text x="42 70 126 182 210 238 322 350 378 406 434 462 490 574 602 630 658 686 714 742 770 798 826 854 938 1078 1134 1218 1274 1442 1610 1666 1722 1750 1778 1806 1834 1862" y="434">||r&gt;^|+-----+|&gt;]v]&lt;&gt;]v]&lt;&gt;V||rm|v+----+</text>
<text x="42 70 126 154 182 238 322 350 378 406 434 462 490 574 658 798 938 1078 1134 1218 1442 1470 1610 1666 1750" y="462">||^ma|+-----+|rrv&lt;||^d|v^</text>
<text x="42 70 182 210 238 266 294 322 350 378 406 434 462 490 518 546 574 602 630 658 714 742 798 826 854 938 1078 1134 1218 1274 1302 1330 1470 1498 1610 1666 1750" y="490">||ss|&gt;&gt;|@r&gt;sv|&gt;&gt;|v+xvvx0v&gt;v||^m&lt;&gt;^|v^</text>
<text x="42 70 126 154 182 210 238 322 406 462 490 574 602 742 854 938 1078 1134 1162 1190 1218 1274 1302 1330 1610 1666 1750" y="518">||&gt;&gt;^0||^&lt;||Mssv&lt;|&gt;&gt;|Xs^|v^</text>
<text x="42 70 126 182 210 238 322 350 378 406 434 462 490 574 602 630 658 686 714 742 770 798 826 854 938 1078 1134 1218 1274 1610 1666 1750" y="546">||r&gt;^|+-----+|&gt;]v]&lt;&gt;]v]&lt;&gt;v||r|v^</text>
<text x="42 70 126 154 182 238 322 350 378 406 434 462 490 574 658 798 938 1078 1134 1218 1610 1666 1750" y="574">||^ma|+-----+|rrv&lt;|||v^</text>
<text x="42 70 182 210 238 266 294 322 350 378 406 434 462 490 518 546 574 602 630 658 714 742 798 826 854 938 1078 1134 1218 1274 1302 1330 1610 1666 1750" y="602">||ss|&gt;&gt;|@r&gt;sv|&gt;&gt;|v+xvvx0v&gt;v||^m&lt;|v^</text>
<text x="42 70 126 154 182 210 238 322 406 462 490 574 602 742 854 938 1078 1134 1162 1190 1218 1274 1302 1330 1610 1666 1750" y="630">^|&gt;&gt;^0||^&lt;||Mssv&lt;|&gt;&gt;|Xs^|v^</text>
<text x="42 70 126 182 210 238 322 350 378 406 434 462 490 574 602 630 658 686 714 742 770 798 826 854 938 1078 1134 1218 1274 1610 1666 1750" y="658">||r&gt;^|+-----+|&gt;]v]&lt;&gt;]v]&lt;&gt;v||r|v^</text>
<text x="42 70 126 154 182 238 322 350 378 406 434 462 490 574 658 798 938 1078 1134 1218 1610 1666 1694 1722 1750" y="686">||^ma|+-----+|rrv&lt;|||&gt;&gt;&gt;^</text>
<text x="42 70 182 210 238 266 294 322 350 378 406 434 462 490 518 546 574 602 630 658 714 742 798 826 854 938 1078 1134 1218 1274 1302 1330 1610" y="714">||ss|&gt;&gt;|@r&gt;sv|&gt;&gt;|v+xvvx0v&gt;v||^m&lt;|</text>
<text x="42 70 126 154 182 210 238 322 406 462 490 574 602 742 854 938 1078 1134 1162 1190 1218 1274 1302 1330 1610" y="742">||&gt;&gt;^0||^&lt;||Mssv&lt;|&gt;&gt;|Xs^|</text>
<text x="42 70 126 182 210 238 322 350 378 406 434 462 490 574 602 630 658 686 714 742 770 798 826 854 938 1078 1134 1218 1274 1610" y="770">||r&gt;^|+-----+|&gt;]v]&lt;&gt;]v]&lt;&gt;v||r|</text>
<text x="42 70 126 154 182 238 322 350 378 406 434 462 490 574 658 798 938 1078 1134 1218 1610" y="798">||^ma|+-----+|rrv&lt;|||</text>
<text x="42 70 182 210 238 266 294 322 350 378 406 434 462 490 518 546 574 602 630 658 714 742 798 826 854 938 1078 1134 1218 1274 1302 1330 1610" y="826">||ss|&gt;&gt;|@r&gt;sv|&gt;&gt;|v+xvvx0v&gt;v||^m&lt;|</text>
<text x="42 70 126 154 182 210 238 322 406 462 490 574 602 742 854 938 1078 1134 1162 1190 1218 1274 1302 1330 1610" y="854">||&gt;&gt;^0||^&lt;||Mssv&lt;|&gt;&gt;|Xs^|</text>
<text x="42 70 126 182 210 238 322 350 378 406 434 462 490 574 602 630 658 686 714 742 770 798 826 854 938 1078 1134 1218 1274 1610" y="882">||r&gt;^|+-----+|&gt;]v]&lt;&gt;]v]&lt;&gt;v||r|</text>
<text x="42 70 126 154 182 238 322 350 378 406 434 462 490 574 658 798 938 1078 1134 1218 1610" y="910">||^ma|+-----+|rrv&lt;|||</text>
<text x="42 70 182 210 238 266 294 322 350 378 406 434 462 490 518 546 574 602 630 658 714 742 798 826 854 938 1022 1134 1218 1274 1302 1330 1610" y="938">||ss|&gt;&gt;|@r&gt;sv|&gt;&gt;|v+xvvx0v&gt;v||^m&lt;|</text>
<text x="42 70 126 154 182 210 238 322 406 462 490 574 602 742 854 938 1022 1134 1162 1190 1218 1274 1302 1330 1610" y="966">||&gt;&gt;^0||^&lt;||Mssv&lt;|&gt;&gt;|Xs^|</text>
<text x="42 70 126 182 210 238 322 350 378 406 434 462 490 574 602 630 658 686 714 742 770 798 826 854 1134 1218 1274 1610" y="994">||r&gt;^|+-----+|&gt;]v]&lt;&gt;]v]&lt;||r|</text>
<text x="42 70 126 154 182 238 322 350 378 406 434 462 490 574 658 798 1134 1218 1610" y="1022">||^ma|+-----+|rr|||</text>
<text x="42 70 182 210 238 266 294 322 350 378 406 434 462 490 518 546 574 602 630 658 714 742 798 826 854 1134 1218 1274 1302 1330 1610" y="1050">||ss|&gt;&gt;|@r&gt;sv|&gt;&gt;|v+xvvx0v||^m&lt;|</text>
<text x="42 70 126 154 182 210 238 322 406 462 490 574 602 742 854 1134 1162 1190 1218 1274 1302 1330 1610" y="1078">||&gt;&gt;^0||^&lt;||Mss|&gt;&gt;|Xs^|</text>
<text x="42 70 126 182 210 238 322 350 378 406 434 462 490 574 602 630 658 686 714 742 770 798 826 854 1134 1218 1274 1610" y="1106">||r&gt;^|+-----+|&gt;]v]&lt;&gt;]v]&lt;||r|</text>
<text x="42 70 126 154 182 238 322 350 378 406 434 462 490 574 658 798 1134 1218 1610" y="1134">||^ma|+-----+|rr|||</text>
<text x="42 70 182 210 238 266 294 322 350 378 406 434 462 490 518 546 574 602 630 658 714 742 798 826 854 1134 1218 1274 1302 1330 1610" y="1162">||ss|&gt;&gt;|@r&gt;sv|&gt;&gt;|v+xvvx0v||^m&lt;|</text>
<text x="42 70 126 154 182 210 238 322 406 462 490 574 602 742 854 1134 1162 1190 1218 1274 1302 1330 1610" y="1190">||&gt;&gt;^0||^&lt;||Mss|&gt;&gt;|Xs^|</text>
<text x="42 70 126 182 210 238 322 350 378 406 434 462 490 574 602 630 658 686 714 742 770 798 826 854 1134 1218 1274 1610" y="1218">||r&gt;^|+-----+|&gt;]v]&lt;&gt;]v]&lt;||r|</text>
<text x="42 70 126 154 182 238 322 350 378 406 434 462 490 574 658 798 1134 1218 1610" y="1246">||^ma|+-----+|rr|||</text>
<text x="42 70 182 210 238 266 294 322 350 378 406 434 462 490 518 546 574 602 630 658 714 742 798 826 854 1134 1218 1274 1302 1330 1610" y="1274">||ss|&gt;&gt;|@r&gt;sv|&gt;&gt;|v+xvvx0v||^m&lt;|</text>
<text x="42 70 126 154 182 210 238 322 406 462 490 574 602 742 854 1134 1162 1190 1218 1274 1302 1330 1610" y="1302">||&gt;&gt;^0||^&lt;||Mss|&gt;&gt;|Xs^|</text>
<text x="42 70 126 182 210 238 322 350 378 406 434 462 490 574 602 630 658 686 714 742 770 798 826 854 1134 1218 1274 1610" y="1330">||r&gt;^|+-----+|&gt;]v]&lt;&gt;]v]&lt;||r|</text>
<text x="42 70 126 154 182 238 322 350 378 406 434 462 490 574 658 798 1134 1218 1610" y="1358">||^ma|+-----+|rr|||</text>
<text x="42 70 182 210 238 266 294 322 350 378 406 434 462 490 518 546 574 602 630 658 714 742 798 826 854 1134 1218 1274 1302 1330 1610" y="1386">||ss|&gt;&gt;|@r&gt;sv|&gt;&gt;|v+xvvx0v||^m&lt;|</text>
<text x="42 70 126 154 182 210 238 322 406 462 490 574 602 742 854 1134 1162 1190 1218 1274 1302 1330 1610" y="1414">||&gt;&gt;^0||^&lt;||Mss|&gt;&gt;|Xs^|</text>
<text x="42 70 126 182 210 238 322 350 378 406 434 462 490 574 602 630 658 686 714 742 770 798 826 854 1134 1218 1274 1610" y="1442">||r&gt;^|+-----+|&gt;]v]&lt;&gt;]v]&lt;||r|</text>
<text x="42 70 126 154 182 238 322 350 378 406 434 462 490 574 658 798 1134 1218 1610" y="1470">||^ma|+-----+|rr|||</text>
<text x="42 70 182 210 238 266 294 322 350 378 406 434 462 490 518 546 574 602 630 658 714 742 798 826 854 1134 1218 1274 1302 1330 1610" y="1498">||ss|&gt;&gt;|@r&gt;sv|&gt;&gt;|v+xvvx0v||^m&lt;|</text>
<text x="42 70 126 154 182 210 238 322 406 462 490 574 602 742 854 1134 1162 1190 1218 1274 1302 1330 1610" y="1526">||&gt;&gt;^0||^&lt;||Mss|&gt;&gt;|Xs^|</text>
<text x="42 70 126 182 210 238 322 350 378 406 434 462 490 574 602 630 658 686 714 742 770 798 826 854 1134 1218 1274 1610" y="1554">||r&gt;^|+-----+|&gt;]v]&lt;&gt;]v]&lt;||r|</text>
<text x="42 70 126 154 182 238 322 350 378 406 434 462 490 574 658 798 1134 1218 1610" y="1582">||^ma|+-----+|rr|||</text>
<text x="42 70 182 210 238 266 294 322 350 378 406 434 462 490 518 546 574 602 630 658 714 742 798 826 854 1134 1218 1274 1302 1330 1610" y="1610">||ss|&gt;&gt;|@r&gt;sv|&gt;&gt;|v+xvvx0v||^m&lt;|</text>
<text x="42 70 126 154 182 210 238 322 406 462 490 574 602 742 854 1134 1162 1190 1218 1274 1302 1330 1610" y="1638">||&gt;&gt;^0||^&lt;||Mss|&gt;&gt;|Xs^|</text>
<text x="42 70 126 182 210 238 322 350 378 406 434 462 490 574 602 630 658 686 714 742 770 798 826 854 1134 1218 1274 1610" y="1666">||r&gt;^|+-----+|&gt;]v]&lt;&gt;]v]&lt;||r|</text>
<text x="42 70 126 154 182 238 322 350 378 406 434 462 490 574 658 798 1134 1218 1610" y="1694">^|^ma|+-----+|rr|||</text>
<text x="42 70 182 210 238 266 294 322 350 378 406 434 462 490 518 546 574 602 630 658 714 742 798 826 854 1134 1218 1274 1302 1330 1610" y="1722">||ss|&gt;&gt;|@r&gt;sv|&gt;&gt;|v+xvvx0v||^m&lt;|</text>
<text x="42 70 126 154 182 210 238 322 406 462 490 574 602 742 854 1134 1162 1190 1218 1274 1302 1330 1610" y="1750">||&gt;&gt;^0||^&lt;||Mss|&gt;&gt;|Xs^|</text>
<text x="42 70 126 182 210 238 322 350 378 406 434 462 490 574 602 630 658 686 714 742 770 798 826 854 1134 1218 1274 1610" y="1778">||r&gt;^|+-----+|&gt;]v]&lt;&gt;]v]&lt;||r|</text>
<text x="42 70 126 154 182 238 322 350 378 406 434 462 490 574 658 798 1134 1218 1610" y="1806">||^ma|+-----+|rr|||</text>
<text x="42 70 182 210 238 266 294 322 350 378 406 434 462 490 518 546 574 602 630 658 714 742 798 826 854 1134 1218 1274 1302 1330 1610" y="1834">||ss|&gt;&gt;|@r&gt;sv|&gt;&gt;|v+xvvx0v||^m&lt;|</text>
<text x="42 70 126 154 182 210 238 322 406 462 490 574 602 742 854 1134 1162 1190 1218 1274 1302 1330 1610" y="1862">||&gt;&gt;^0||^&lt;||Mss|&gt;&gt;|Xs^|</text>
<text x="42 70 126 182 210 238 322 350 378 406 434 462 490 574 602 630 658 686 714 742 770 798 826 854 1134 1218 1274 1610" y="1890">||r&gt;^|+-----+|&gt;]v]&lt;&gt;]v]&lt;||r|</text>
<text x="42 70 126 154 182 238 322 350 378 406 434 462 490 574 658 798 1134 1218 1610" y="1918">||^ma|+-----+|rr|||</text>
<text x="42 70 182 210 238 266 294 322 350 378 406 434 462 490 518 546 574 602 630 658 714 742 798 826 854 1134 1218 1274 1302 1330 1610" y="1946">||ss|&gt;&gt;|@r&gt;sv|&gt;&gt;|v+xvvx0v||^m&lt;|</text>
<text x="42 70 126 154 182 210 238 322 406 462 490 574 602 742 854 1134 1162 1190 1218 1274 1302 1330 1610" y="1974">||&gt;&gt;^0||^&lt;||Mss|&gt;&gt;|Xs^|</text>
<text x="42 70 126 182 210 238 322 350 378 406 434 462 490 574 602 630 658 686 714 742 770 798 826 854 1134 1218 1274 1610" y="2002">||r&gt;^|+-----+|&gt;]v]&lt;&gt;]v]&lt;||r|</text>
<text x="42 70 126 154 182 238 322 350 378 406 434 462 490 574 658 798 1134 1218 1610" y="2030">||^ma|+-----+|rr|||</text>
<text x="42 70 182 210 238 266 294 322 350 378 406 434 462 490 518 546 574 602 630 658 714 742 798 826 854 1134 1218 1274 1302 1330 1610" y="2058">||ss|&gt;&gt;|@r&gt;sv|&gt;&gt;|v+xvvx0v||^m&lt;|</text>
<text x="42 70 126 154 182 210 238 322 406 462 490 574 602 742 854 1134 1162 1190 1218 1274 1302 1330 1610" y="2086">||&gt;&gt;^0||^&lt;||Mss|&gt;&gt;|Xs^|</text>
<text x="42 70 126 182 210 238 322 350 378 406 434 462 490 574 602 630 658 686 714 742 770 798 826 854 1134 1218 1274 1610" y="2114">||r&gt;^|+-----+|&gt;]v]&lt;&gt;]v]&lt;||r|</text>
<text x="42 70 126 154 182 238 322 350 378 406 434 462 490 574 658 798 1134 1218 1610" y="2142">||^ma|+-----+|rr|||</text>
<text x="42 70 182 210 238 266 294 322 350 378 406 434 462 490 518 546 574 602 630 658 714 742 798 826 854 1134 1218 1274 1302 1330 1610" y="2170">||ss|&gt;&gt;|@r&gt;sv|&gt;&gt;|v+xvvx0v||^m&lt;|</text>
<text x="42 70 126 154 182 210 238 322 406 462 490 574 602 742 854 1134 1162 1190 1218 1274 1302 1330 1610" y="2198">||&gt;&gt;^0||^&lt;||Mss|&gt;&gt;|Xs^|</text>
<text x="42 70 126 182 210 238 322 350 378 406 434 462 490 574 602 630 658 686 714 742 770 798 826 854 1134 1218 1274 1610" y="2226">||r&gt;^|+-----+|&gt;]v]&lt;&gt;]v]&lt;||r|</text>
<text x="42 70 126 154 182 238 322 350 378 406 434 462 490 574 658 798 1134 1218 1610" y="2254">||^ma|+-----+|rr|||</text>
<text x="42 70 182 210 238 266 294 322 350 378 406 434 462 490 518 546 574 602 630 658 714 742 798 826 854 1134 1218 1274 1302 1330 1610" y="2282">||ss|&gt;&gt;|@r&gt;sv|&gt;&gt;|v+xvvx0v||^m&lt;|</text>
<text x="42 70 126 154 182 210 238 322 406 462 490 574 602 742 854 1134 1162 1190 1218 1274 1302 1330 1610" y="2310">||&gt;&gt;^0||^&lt;||Mss|&gt;&gt;|Xs^|</text>
<text x="42 70 126 182 210 238 322 350 378 406 434 462 490 574 602 630 658 686 714 742 770 798 826 854 1134 1218 1274 1610" y="2338">||r&gt;^|+-----+|&gt;]v]&lt;&gt;]v]&lt;||r|</text>
<text x="42 70 126 154 182 238 322 350 378 406 434 462 490 574 658 798 1134 1218 1610" y="2366">||^ma|+-----+|rr|||</text>
<text x="42 70 182 210 238 266 294 322 350 378 406 434 462 490 518 546 574 602 630 658 714 742 798 826 854 1134 1218 1274 1302 1330 1610" y="2394">||ss|&gt;&gt;|@r&gt;sv|&gt;&gt;|v+xvvx0v||^m&lt;|</text>
<text x="42 70 126 154 182 210 238 322 406 462 490 574 602 742 854 1134 1162 1190 1218 1274 1302 1330 1610" y="2422">||&gt;&gt;^0||^&lt;||Mss|&gt;&gt;|Xs^|</text>
<text x="42 70 126 182 210 238 322 350 378 406 434 462 490 574 602 630 658 686 714 742 770 798 826 854 1134 1218 1274 1610" y="2450">||r&gt;^|+-----+|&gt;]v]&lt;&gt;]v]&lt;||r|</text>
<text x="42 70 126 154 182 238 322 350 378 406 434 462 490 574 658 798 1134 1218 1610" y="2478">||^ma|+-----+|rr|||</text>
<text x="42 70 182 210 238 266 294 322 350 378 406 434 462 490 518 546 574 602 630 658 714 742 798 826 854 1134 1218 1274 1302 1330 1610" y="2506">||ss|&gt;&gt;|@r&gt;sv|&gt;&gt;|v+xvvx0v||^m&lt;|</text>
<text x="42 70 126 154 182 210 238 322 406 462 490 574 602 742 854 1134 1162 1190 1218 1274 1302 1330 1610" y="2534">||&gt;&gt;^0||^&lt;||Mss|&gt;&gt;|Xs^|</text>
<text x="42 70 126 182 210 238 322 350 378 406 434 462 490 574 602 630 658 686 714 742 770 798 826 854 1134 1218 1274 1610" y="2562">||r&gt;^|+-----+|&gt;]v]&lt;&gt;]v]&lt;||r|</text>
<text x="42 70 126 154 182 238 322 350 378 406 434 462 490 574 1134 1218 1610" y="2590">||^ma|+-----+||||</text>
<text x="42 70 182 238 266 294 322 350 378 406 434 462 490 518 546 574 658 798 1134 1218 1274 1610" y="2618">||b|&gt;&gt;|@r&gt;sv|&gt;&gt;|rH||b|</text>
<text x="42 70 98 238 322 406 462 490 574 658 686 742 1134 1218 1274 1386 1610" y="2646">||s||^&lt;||-&gt;v||^&lt;|</text>
<text x="42 70 98 238 322 350 378 406 434 462 490 574 658 686 714 742 1106 1134 1218 1246 1274 1302 1330 1358 1386 1610" y="2674">||H|+-----+|&gt;XH&gt;H||@`20`^|</text>
<text x="42 70 238 574 686 742 1134 1218 1610" y="2702">||||&gt;^|||</text>
<text x="42 70 238 574 882 938 1134 1218 1246 1274 1302 1330 1358 1386 1414 1442 1470 1498 1526 1554 1582 1610" y="2730">||||^&lt;|+-------------+</text>
<text x="42 70 182 210 238 574 1134" y="2758">||^&lt;|||</text>
<text x="42 70 98 126 154 210 238 574 798 1134" y="2786">||@rs^||H|</text>
<text x="42 70 98 126 154 182 210 238 574 602 630 658 686 714 742 770 798 826 854 882 910 938 966 994 1022 1050 1078 1106 1134" y="2814">|+-----++-------------------+</text>
<text x="42 154" y="2842">|v</text>
<text x="42 70 98 126 154" y="2870">^---&lt;</text>
</g>
</svg>
