<?xml version="1.0" encoding="UTF-8"?>
<svg xmlns="http://www.w3.org/2000/svg" width="1232" height="728" viewBox="0 0 1232 728" role="img" aria-label="Little Man program, 44 by 26 cells">
<rect width="1232" height="728" fill="#d6d3d1"/>
<g shape-rendering="crispEdges">
<path fill="#6366f1" d="M140 28h168v28h-168zM364 28h532v28h-532zM952 28h140v28h-140zM140 56h28v28h-28zM280 56h28v28h-28zM364 56h28v28h-28zM868 56h28v28h-28zM952 56h28v28h-28zM1064 56h28v28h-28zM140 84h28v28h-28zM280 84h28v28h-28zM364 84h28v28h-28zM868 84h28v28h-28zM952 84h28v28h-28zM1064 84h28v28h-28zM28 112h280v28h-280zM364 112h28v28h-28zM868 112h28v28h-28zM952 112h252v28h-252zM28 140h28v28h-28zM112 140h28v28h-28zM364 140h28v28h-28zM868 140h28v28h-28zM1092 140h28v28h-28zM1176 140h28v28h-28zM28 168h28v28h-28zM112 168h28v28h-28zM364 168h28v28h-28zM868 168h28v28h-28zM1092 168h28v28h-28zM1176 168h28v28h-28zM28 196h28v28h-28zM112 196h196v28h-196zM364 196h28v28h-28zM868 196h28v28h-28zM952 196h168v28h-168zM1176 196h28v28h-28zM28 224h28v28h-28zM112 224h56v28h-56zM280 224h28v28h-28zM364 224h28v28h-28zM868 224h28v28h-28zM952 224h28v28h-28zM1064 224h56v28h-56zM1176 224h28v28h-28zM28 252h140v28h-140zM280 252h28v28h-28zM364 252h28v28h-28zM868 252h28v28h-28zM952 252h28v28h-28zM1064 252h140v28h-140zM28 280h280v28h-280zM364 280h28v28h-28zM868 280h28v28h-28zM952 280h252v28h-252zM28 308h28v28h-28zM112 308h28v28h-28zM364 308h28v28h-28zM868 308h28v28h-28zM1092 308h28v28h-28zM1176 308h28v28h-28zM28 336h28v28h-28zM112 336h28v28h-28zM364 336h28v28h-28zM868 336h28v28h-28zM1092 336h28v28h-28zM1176 336h28v28h-28zM28 364h28v28h-28zM112 364h196v28h-196zM364 364h28v28h-28zM868 364h28v28h-28zM952 364h168v28h-168zM1176 364h28v28h-28zM28 392h28v28h-28zM112 392h56v28h-56zM280 392h28v28h-28zM364 392h28v28h-28zM868 392h28v28h-28zM952 392h28v28h-28zM1064 392h56v28h-56zM1176 392h28v28h-28zM28 420h140v28h-140zM280 420h28v28h-28zM364 420h28v28h-28zM868 420h28v28h-28zM952 420h28v28h-28zM1064 420h140v28h-140zM140 448h168v28h-168zM364 448h28v28h-28zM868 448h28v28h-28zM952 448h140v28h-140zM364 476h28v28h-28zM868 476h28v28h-28zM364 504h28v28h-28zM868 504h28v28h-28zM364 532h28v28h-28zM868 532h28v28h-28zM364 560h28v28h-28zM868 560h28v28h-28zM364 588h28v28h-28zM868 588h28v28h-28zM364 616h28v28h-28zM868 616h28v28h-28zM364 644h28v28h-28zM868 644h28v28h-28zM364 672h532v28h-532z"/>
<path fill="#facc15" d="M168 56h28v28h-28zM252 56h28v28h-28zM392 56h28v28h-28zM504 56h28v28h-28zM728 56h28v28h-28zM840 56h28v28h-28zM1036 56h28v28h-28zM168 84h56v28h-56zM252 84h28v28h-28zM392 84h28v28h-28zM532 84h28v28h-28zM588 84h28v28h-28zM644 84h28v28h-28zM728 84h28v28h-28zM840 84h28v28h-28zM980 84h28v28h-28zM1036 84h28v28h-28zM392 112h28v28h-28zM504 112h56v28h-56zM588 112h28v28h-28zM644 112h28v28h-28zM840 112h28v28h-28zM56 140h56v28h-56zM392 140h28v28h-28zM504 140h28v28h-28zM728 140h28v28h-28zM840 140h28v28h-28zM1148 140h28v28h-28zM84 168h28v28h-28zM392 168h28v28h-28zM532 168h28v28h-28zM588 168h28v28h-28zM644 168h28v28h-28zM728 168h28v28h-28zM840 168h28v28h-28zM56 196h28v28h-28zM392 196h28v28h-28zM504 196h56v28h-56zM588 196h28v28h-28zM644 196h28v28h-28zM840 196h28v28h-28zM1148 196h28v28h-28zM56 224h28v28h-28zM168 224h28v28h-28zM252 224h28v28h-28zM392 224h28v28h-28zM504 224h28v28h-28zM728 224h28v28h-28zM840 224h28v28h-28zM1036 224h28v28h-28zM1120 224h56v28h-56zM168 252h56v28h-56zM252 252h28v28h-28zM392 252h28v28h-28zM532 252h28v28h-28zM588 252h28v28h-28zM644 252h28v28h-28zM728 252h28v28h-28zM840 252h28v28h-28zM980 252h28v28h-28zM1036 252h28v28h-28zM392 280h28v28h-28zM504 280h56v28h-56zM588 280h28v28h-28zM644 280h28v28h-28zM840 280h28v28h-28zM56 308h56v28h-56zM392 308h28v28h-28zM504 308h28v28h-28zM728 308h28v28h-28zM840 308h28v28h-28zM1148 308h28v28h-28zM84 336h28v28h-28zM392 336h28v28h-28zM532 336h28v28h-28zM588 336h28v28h-28zM644 336h28v28h-28zM728 336h28v28h-28zM840 336h28v28h-28zM56 364h28v28h-28zM392 364h28v28h-28zM504 364h56v28h-56zM588 364h28v28h-28zM644 364h28v28h-28zM840 364h28v28h-28zM1148 364h28v28h-28zM56 392h28v28h-28zM168 392h28v28h-28zM252 392h28v28h-28zM392 392h28v28h-28zM504 392h28v28h-28zM728 392h28v28h-28zM840 392h28v28h-28zM1036 392h28v28h-28zM1120 392h56v28h-56zM168 420h56v28h-56zM252 420h28v28h-28zM392 420h28v28h-28zM532 420h28v28h-28zM588 420h28v28h-28zM644 420h28v28h-28zM728 420h28v28h-28zM840 420h28v28h-28zM980 420h28v28h-28zM1036 420h28v28h-28zM392 448h28v28h-28zM504 448h56v28h-56zM588 448h28v28h-28zM644 448h28v28h-28zM840 448h28v28h-28zM392 476h84v28h-84zM784 476h84v28h-84zM448 504h28v28h-28zM616 504h28v28h-28zM784 504h28v28h-28zM420 560h28v28h-28zM616 560h28v28h-28zM812 560h28v28h-28zM616 588h28v28h-28zM756 588h56v28h-56zM644 616h28v28h-28zM756 616h28v28h-28zM644 644h28v28h-28zM784 644h28v28h-28z"/>
<path fill="#f87171" d="M196 56h28v28h-28zM1008 56h28v28h-28zM56 168h28v28h-28zM1120 196h28v28h-28zM196 224h28v28h-28zM1008 224h28v28h-28zM56 336h28v28h-28zM1120 364h28v28h-28zM196 392h28v28h-28zM1008 392h28v28h-28zM644 588h28v28h-28z"/>
<path fill="#f472b6" d="M224 56h28v28h-28zM420 56h56v28h-56zM756 56h28v28h-28zM812 56h28v28h-28zM980 56h28v28h-28zM224 84h28v28h-28zM420 84h28v28h-28zM476 84h28v28h-28zM784 84h56v28h-56zM1008 84h28v28h-28zM420 140h56v28h-56zM756 140h28v28h-28zM812 140h28v28h-28zM1120 140h28v28h-28zM420 168h28v28h-28zM476 168h28v28h-28zM784 168h56v28h-56zM1120 168h28v28h-28zM84 196h28v28h-28zM84 224h28v28h-28zM224 224h28v28h-28zM420 224h56v28h-56zM756 224h28v28h-28zM812 224h28v28h-28zM980 224h28v28h-28zM224 252h28v28h-28zM420 252h28v28h-28zM476 252h28v28h-28zM784 252h56v28h-56zM1008 252h28v28h-28zM420 308h56v28h-56zM756 308h28v28h-28zM812 308h28v28h-28zM1120 308h28v28h-28zM420 336h28v28h-28zM476 336h28v28h-28zM784 336h56v28h-56zM1120 336h28v28h-28zM84 364h28v28h-28zM84 392h28v28h-28zM224 392h28v28h-28zM420 392h56v28h-56zM756 392h28v28h-28zM812 392h28v28h-28zM980 392h28v28h-28zM224 420h28v28h-28zM420 420h28v28h-28zM476 420h28v28h-28zM784 420h56v28h-56zM1008 420h28v28h-28zM616 532h28v28h-28zM672 588h28v28h-28zM728 588h28v28h-28zM728 616h28v28h-28z"/>
<path fill="#a5b4fc" d="M308 56h56v28h-56zM896 56h56v28h-56zM308 84h56v28h-56zM896 84h56v28h-56zM140 140h224v28h-224zM896 140h196v28h-196zM140 168h224v28h-224zM896 168h196v28h-196zM308 224h56v28h-56zM896 224h56v28h-56zM308 252h56v28h-56zM896 252h56v28h-56zM140 308h224v28h-224zM896 308h196v28h-196zM140 336h224v28h-224zM896 336h196v28h-196zM308 392h56v28h-56zM896 392h56v28h-56zM308 420h56v28h-56zM896 420h56v28h-56z"/>
<path fill="#93c5fd" d="M784 56h28v28h-28zM448 84h28v28h-28zM616 84h28v28h-28zM672 84h28v28h-28zM560 112h28v28h-28zM616 112h28v28h-28zM784 140h28v28h-28zM448 168h28v28h-28zM616 168h28v28h-28zM672 168h28v28h-28zM560 196h28v28h-28zM616 196h28v28h-28zM784 224h28v28h-28zM448 252h28v28h-28zM616 252h28v28h-28zM672 252h28v28h-28zM560 280h28v28h-28zM616 280h28v28h-28zM784 308h28v28h-28zM448 336h28v28h-28zM616 336h28v28h-28zM672 336h28v28h-28zM560 364h28v28h-28zM616 364h28v28h-28zM784 392h28v28h-28zM448 420h28v28h-28zM616 420h28v28h-28zM672 420h28v28h-28zM560 448h28v28h-28zM700 588h28v28h-28zM700 616h28v28h-28z"/>
<path fill="#4ade80" d="M700 84h28v28h-28zM700 168h28v28h-28zM700 252h28v28h-28zM700 336h28v28h-28zM700 420h28v28h-28z"/>
<path fill="#94a3b8" d="M672 616h28v28h-28z"/>
<path fill="none" stroke="#a8a29e" stroke-width="2" d="M0 0V728M28 0V728M56 0V728M84 0V728M112 0V728M140 0V728M168 0V728M196 0V728M224 0V728M252 0V728M280 0V728M308 0V728M336 0V728M364 0V728M392 0V728M420 0V728M448 0V728M476 0V728M504 0V728M532 0V728M560 0V728M588 0V728M616 0V728M644 0V728M672 0V728M700 0V728M728 0V728M756 0V728M784 0V728M812 0V728M840 0V728M868 0V728M896 0V728M924 0V728M952 0V728M980 0V728M1008 0V728M1036 0V728M1064 0V728M1092 0V728M1120 0V728M1148 0V728M1176 0V728M1204 0V728M1232 0V728M0 0H1232M0 28H1232M0 56H1232M0 84H1232M0 112H1232M0 140H1232M0 168H1232M0 196H1232M0 224H1232M0 252H1232M0 280H1232M0 308H1232M0 336H1232M0 364H1232M0 392H1232M0 420H1232M0 448H1232M0 476H1232M0 504H1232M0 532H1232M0 560H1232M0 588H1232M0 616H1232M0 644H1232M0 672H1232M0 700H1232M0 728H1232"/>
</g>
<g fill="#000" font-family="DejaVu Sans Mono, ui-monospace, monospace" font-size="18" text-anchor="middle" dominant-baseline="central">
<text x="154 182 210 238 266 294 378 406 434 462 490 518 546 574 602 630 658 686 714 742 770 798 826 854 882 966 994 1022 1050 1078" y="42">+----++-----------------++---+</text>
<text x="154 182 210 238 266 294 322 350 378 406 434 462 518 742 770 798 826 854 882 910 938 966 994 1022 1050 1078" y="70">|&gt;@sv|&gt;&gt;|vsr&lt;&gt;rWsv|&gt;&gt;|U@v|</text>
<text x="154 182 210 238 266 294 322 350 378 406 434 462 490 546 602 630 658 686 714 742 798 826 854 882 910 938 966 994 1022 1050 1078" y="98">|^&lt;U&lt;|&lt;&lt;|vsWr&lt;&gt;mabNXrsv|&lt;&lt;|^s&lt;|</text>
<text x="42 70 98 126 154 182 210 238 266 294 378 406 518 546 574 602 630 658 854 882 966 994 1022 1050 1078 1106 1134 1162 1190" y="126">+--++----+|v^Xbdm&lt;v|+---++--+</text>
<text x="42 70 98 126 154 182 210 238 266 294 322 350 378 406 434 462 518 742 770 798 826 854 882 910 938 966 994 1022 1050 1078 1106 1134 1162 1190" y="154">|&gt;v|&gt;&gt;&gt;&gt;&gt;&gt;&gt;&gt;|vsr&lt;&gt;rWsv|&gt;&gt;&gt;&gt;&gt;&gt;&gt;|Uv|</text>
<text x="42 70 98 126 154 182 210 238 266 294 322 350 378 406 434 462 490 546 602 630 658 686 714 742 798 826 854 882 910 938 966 994 1022 1050 1078 1106 1134 1190" y="182">|@v|&lt;&lt;&lt;&lt;&lt;&lt;&lt;&lt;|vsWr&lt;&gt;mabNXrsv|&lt;&lt;&lt;&lt;&lt;&lt;&lt;|s|</text>
<text x="42 70 98 126 154 182 210 238 266 294 378 406 518 546 574 602 630 658 854 882 966 994 1022 1050 1078 1106 1134 1162 1190" y="210">|^s|+----+|v^Xbdm&lt;v|+---+|@v|</text>
<text x="42 70 98 126 154 182 210 238 266 294 322 350 378 406 434 462 518 742 770 798 826 854 882 910 938 966 994 1022 1050 1078 1106 1134 1162 1190" y="238">|^U||&gt;@sv|&gt;&gt;|vsr&lt;&gt;rWsv|&gt;&gt;|U@v||^&lt;|</text>
<text x="42 70 98 126 154 182 210 238 266 294 322 350 378 406 434 462 490 546 602 630 658 686 714 742 798 826 854 882 910 938 966 994 1022 1050 1078 1106 1134 1162 1190" y="266">+--+|^&lt;U&lt;|&lt;&lt;|vsWr&lt;&gt;mabNXrsv|&lt;&lt;|^s&lt;|+--+</text>
<text x="42 70 98 126 154 182 210 238 266 294 378 406 518 546 574 602 630 658 854 882 966 994 1022 1050 1078 1106 1134 1162 1190" y="294">+--++----+|v^Xbdm&lt;v|+---++--+</text>
<text x="42 70 98 126 154 182 210 238 266 294 322 350 378 406 434 462 518 742 770 798 826 854 882 910 938 966 994 1022 1050 1078 1106 1134 1162 1190" y="322">|&gt;v|&gt;&gt;&gt;&gt;&gt;&gt;&gt;&gt;|vsr&lt;&gt;rWsv|&gt;&gt;&gt;&gt;&gt;&gt;&gt;|Uv|</text>
<text x="42 70 98 126 154 182 210 238 266 294 322 350 378 406 434 462 490 546 602 630 658 686 714 742 798 826 854 882 910 938 966 994 1022 1050 1078 1106 1134 1190" y="350">|@v|&lt;&lt;&lt;&lt;&lt;&lt;&lt;&lt;|vsWr&lt;&gt;mabNXrsv|&lt;&lt;&lt;&lt;&lt;&lt;&lt;|s|</text>
<text x="42 70 98 126 154 182 210 238 266 294 378 406 518 546 574 602 630 658 854 882 966 994 1022 1050 1078 1106 1134 1162 1190" y="378">|^s|+----+|v^Xbdm&lt;v|+---+|@v|</text>
<text x="42 70 98 126 154 182 210 238 266 294 322 350 378 406 434 462 518 742 770 798 826 854 882 910 938 966 994 1022 1050 1078 1106 1134 1162 1190" y="406">|^U||&gt;@sv|&gt;&gt;|vsr&lt;&gt;rWsv|&gt;&gt;|U@v||^&lt;|</text>
<text x="42 70 98 126 154 182 210 238 266 294 322 350 378 406 434 462 490 546 602 630 658 686 714 742 798 826 854 882 910 938 966 994 1022 1050 1078 1106 1134 1162 1190" y="434">+--+|^&lt;U&lt;|&lt;&lt;|vsWr&lt;&gt;mabNXrsv|&lt;&lt;|^s&lt;|+--+</text>
<text x="154 182 210 238 266 294 378 406 518 546 574 602 658 854 882 966 994 1022 1050 1078" y="462">+----+|v^Xbd&lt;v|+---+</text>
<text x="378 406 434 462 798 826 854 882" y="490">|&gt;dvva&lt;|</text>
<text x="378 462 630 798 882" y="518">|&gt;v&lt;|</text>
<text x="378 630 882" y="546">|s|</text>
<text x="378 434 630 826 882" y="574">|&gt;v&lt;|</text>
<text x="378 630 658 686 714 742 770 798 882" y="602">|&gt;@rbrXv|</text>
<text x="378 658 686 714 742 770 882" y="630">|^1Mr&lt;|</text>
<text x="378 658 798 882" y="658">|^&lt;|</text>
<text x="378 406 434 462 490 518 546 574 602 630 658 686 714 742 770 798 826 854 882" y="686">+-----------------+</text>
</g>
</svg>
