<?xml version="1.0" encoding="UTF-8" standalone="no"?>
<!DOCTYPE svg PUBLIC "-//W3C//DTD SVG 1.1//EN"
 "http://www.w3.org/Graphics/SVG/1.1/DTD/svg11.dtd">
<!-- Generated by graphviz version 2.42.4 (0)
 -->
<!-- Title: flow Pages: 1 -->
<svg width="391pt" height="132pt"
 viewBox="0.00 0.00 391.00 132.00" xmlns="http://www.w3.org/2000/svg" xmlns:xlink="http://www.w3.org/1999/xlink">
<g id="graph0" class="graph" transform="scale(1 1) rotate(0) translate(4 128)">
<title>flow</title>
<polygon fill="white" stroke="transparent" points="-4,4 -4,-128 387,-128 387,4 -4,4"/>
<!-- split -->
<g id="node1" class="node">
<title>split</title>
<polygon fill="none" stroke="black" points="68,-88 0,-88 0,-35 68,-35 68,-88"/>
<text text-anchor="middle" x="34" y="-72.8" font-family="Times,serif" font-size="14.00">split</text>
<text text-anchor="middle" x="34" y="-57.8" font-family="Times,serif" font-size="14.00">persistent</text>
<text text-anchor="middle" x="34" y="-42.8" font-family="Times,serif" font-size="14.00">layer 0</text>
</g>
<!-- left -->
<g id="node2" class="node">
<title>left</title>
<polygon fill="none" stroke="black" points="232,-124 169,-124 169,-71 232,-71 232,-124"/>
<text text-anchor="middle" x="200.5" y="-108.8" font-family="Times,serif" font-size="14.00">left</text>
<text text-anchor="middle" x="200.5" y="-93.8" font-family="Times,serif" font-size="14.00">transient</text>
<text text-anchor="middle" x="200.5" y="-78.8" font-family="Times,serif" font-size="14.00">layer 1</text>
</g>
<!-- split&#45;&gt;left -->
<g id="edge1" class="edge">
<title>split&#45;&gt;left</title>
<path fill="none" stroke="black" stroke-width="2" d="M68.29,-68.79C94.46,-74.51 131.03,-82.52 158.92,-88.62"/>
<polygon fill="black" stroke="black" stroke-width="2" points="158.24,-92.05 168.76,-90.77 159.74,-85.22 158.24,-92.05"/>
<text text-anchor="middle" x="118.5" y="-105.3" font-family="Times,serif" font-size="14.00">left_man</text>
<text text-anchor="middle" x="118.5" y="-90.3" font-family="Times,serif" font-size="14.00">man: inputs</text>
</g>
<!-- right -->
<g id="node3" class="node">
<title>right</title>
<polygon fill="none" stroke="black" points="232,-53 169,-53 169,0 232,0 232,-53"/>
<text text-anchor="middle" x="200.5" y="-37.8" font-family="Times,serif" font-size="14.00">right</text>
<text text-anchor="middle" x="200.5" y="-22.8" font-family="Times,serif" font-size="14.00">transient</text>
<text text-anchor="middle" x="200.5" y="-7.8" font-family="Times,serif" font-size="14.00">layer 1</text>
</g>
<!-- split&#45;&gt;right -->
<g id="edge2" class="edge">
<title>split&#45;&gt;right</title>
<path fill="none" stroke="black" stroke-width="2" d="M68.03,-46.41C73.92,-44.15 80.07,-42.06 86,-40.5 109.6,-34.31 136.7,-30.83 158.49,-28.9"/>
<polygon fill="black" stroke="black" stroke-width="2" points="159.05,-32.36 168.73,-28.06 158.48,-25.38 159.05,-32.36"/>
<text text-anchor="middle" x="118.5" y="-59.3" font-family="Times,serif" font-size="14.00">right_man</text>
<text text-anchor="middle" x="118.5" y="-44.3" font-family="Times,serif" font-size="14.00">man: inputs</text>
</g>
<!-- join -->
<g id="node4" class="node">
<title>join</title>
<polygon fill="none" stroke="black" points="383,-88 315,-88 315,-35 383,-35 383,-88"/>
<text text-anchor="middle" x="349" y="-72.8" font-family="Times,serif" font-size="14.00">join</text>
<text text-anchor="middle" x="349" y="-57.8" font-family="Times,serif" font-size="14.00">persistent</text>
<text text-anchor="middle" x="349" y="-42.8" font-family="Times,serif" font-size="14.00">layer 2</text>
</g>
<!-- left&#45;&gt;join -->
<g id="edge3" class="edge">
<title>left&#45;&gt;join</title>
<path fill="none" stroke="black" d="M232.21,-89.95C253.26,-84.78 281.48,-77.85 304.79,-72.12"/>
<polygon fill="black" stroke="black" points="305.9,-75.45 314.78,-69.66 304.23,-68.65 305.9,-75.45"/>
<text text-anchor="middle" x="273.5" y="-103.3" font-family="Times,serif" font-size="14.00">left_bit</text>
<text text-anchor="middle" x="273.5" y="-88.3" font-family="Times,serif" font-size="14.00">pipe: bit</text>
</g>
<!-- right&#45;&gt;join -->
<g id="edge4" class="edge">
<title>right&#45;&gt;join</title>
<path fill="none" stroke="black" d="M232.43,-29.09C251.32,-31.16 275.83,-34.69 297,-40.5 299.77,-41.26 302.59,-42.13 305.41,-43.08"/>
<polygon fill="black" stroke="black" points="304.35,-46.41 314.94,-46.52 306.73,-39.83 304.35,-46.41"/>
<text text-anchor="middle" x="273.5" y="-59.3" font-family="Times,serif" font-size="14.00">right_bit</text>
<text text-anchor="middle" x="273.5" y="-44.3" font-family="Times,serif" font-size="14.00">pipe: bit</text>
</g>
</g>
</svg>
